<svg width="170" height="285" viewBox="0 0 170 285" fill="none" xmlns="http://www.w3.org/2000/svg">
<path d="M85.5098 2.47461L165.608 146.935L165.762 147.211L165.477 147.073L85.5811 108.249V197.931H84.4395V106.425L84.583 106.495L163.01 144.604L84.5117 3.02832L84.4629 2.94043L84.5498 2.89258L85.374 2.43555L85.4609 2.3877L85.5098 2.47461Z" fill="#231F20" stroke="black" stroke-width="0.2"/>
<path d="M85.5801 107.709L85.5205 107.735L85.2412 107.86L2.29102 144.797L2.00879 144.923L2.16309 144.656L85.3936 0.950195L85.5801 0.62793V107.709ZM4.76074 142.446L84.4385 106.968V4.87598L4.76074 142.446Z" fill="#231F20" stroke="black" stroke-width="0.2"/>
<path d="M84.5684 106.496L85.5557 106.968L86.5664 106.519L86.708 106.455L86.707 106.611L86.6992 107.517L166.506 145.755L166.666 145.832L166.518 145.929L86.1826 198.479L86.1338 198.403L86.0732 198.479L85.8154 198.308L3.47559 143.686L3.32422 143.585L3.49023 143.511L84.4355 107.467L84.4258 106.587L84.4238 106.426L84.5684 106.496ZM86.2334 160.096L86.6885 196.784L164.345 145.986L86.6885 108.776L86.2334 160.096ZM5.6875 143.783L85.5459 196.759L85.5059 193.483L84.8936 193.478L84.7939 193.477L84.7949 193.377L85.0908 160.099L84.4512 108.711L5.6875 143.783Z" fill="#231F20" stroke="black" stroke-width="0.2"/>
<path d="M85.5799 2.63912L86.714 107.425L85.5724 107.437L84.4384 2.65147L85.5799 2.63912Z" fill="#231F20" stroke="black" stroke-width="0.2"/>
<path d="M85.1787 280.787V216.11L4.68164 170.836L85.1787 280.787ZM86.3203 283.975H86.2197L86.1396 284.033L0.918945 167.629L1.04883 167.483L86.2695 215.414L86.3203 215.443V283.975Z" fill="#231F20" stroke="black" stroke-width="0.2"/>
<path d="M169.084 167.621L85.3623 284.057L85.1816 284.309V215.449L85.2314 215.421L85.4678 215.284L168.953 167.476L169.084 167.621ZM86.3232 216.11V280.764L165.354 170.852L86.3232 216.11Z" fill="#231F20" stroke="black" stroke-width="0.2"/>
<path d="M85.3335 108.487L63.5551 80.3294L63.3479 80.0625L63.1177 80.3074L4.50781 142.738L4.9254 143.182L63.306 80.996L84.8772 108.885L85.3335 108.487Z" fill="#4162AE"/>
<path d="M64.213 80.5661L85.3928 2.25797L84.837 2.10938L63.6562 80.4175L64.213 80.5661Z" fill="#4162AE"/>
<path d="M58.5245 49.955L63.6287 80.5736L63.7019 81.0131L64.1258 80.7473C64.1855 80.7107 85.1381 67.5786 86.0256 67.5786V67.0532C85.0083 67.0532 67.1599 78.1929 64.175 80.0608L59.1441 49.8828L58.5234 49.954L58.5245 49.955Z" fill="#4162AE"/>
<path d="M4.50781 144.262L55.8292 145.442L55.9768 145.445L56.071 145.321L85.3335 106.477L84.8626 106.055L55.6942 144.775L4.52037 143.6L4.50781 144.262Z" fill="#4162AE"/>
<path d="M55.6953 145.185L84.848 197.185L85.3503 196.773L56.1966 144.773L55.6953 145.185Z" fill="#4162AE"/>
<path d="M85.5312 109.856L106.779 80.9773L106.981 80.7031L107.206 80.9543L164.387 144.985L163.979 145.44L107.022 81.6596L85.976 110.265L85.5312 109.856Z" fill="#4162AE"/>
<path d="M106.656 81.2067L85.4766 2.8986L86.0323 2.75L107.212 81.0581L106.656 81.2067Z" fill="#4162AE"/>
<path d="M112.337 50.5956L107.233 81.2142L107.16 81.6537L106.736 81.3879C106.676 81.3513 85.7234 68.2192 84.8359 68.2192V67.6938C85.8532 67.6938 103.702 78.8335 106.687 80.7014L111.717 50.5234L112.338 50.5946L112.337 50.5956Z" fill="#4162AE"/>
<path d="M164.387 145.441L114.317 146.637L114.172 146.64L114.081 146.514L85.5312 107.123L85.9907 106.695L114.448 145.96L164.375 144.768L164.387 145.441Z" fill="#4162AE"/>
<path d="M114.985 146.058L86.0148 197.833L85.5156 197.423L114.486 145.648L114.985 146.058Z" fill="#4162AE"/>
<path d="M166.43 170.329L100.388 228.527L100.221 228.709L100.054 228.529L85.5878 215.616C85.5878 215.616 85.5836 215.604 85.5878 215.6L85.9049 215.306C85.9049 215.306 85.9164 215.302 85.9206 215.306L100.219 228.04L166.095 170.023L166.43 170.33V170.329Z" fill="#4162AE"/>
<path d="M15.3253 178.229L71.2736 228.04L85.5721 215.307H85.5867L85.9039 215.602V215.618L71.4379 228.531L71.2705 228.711L71.1041 228.529L14.9893 178.536C14.9045 178.444 14.9108 178.301 15.004 178.216C15.0961 178.131 15.2405 178.137 15.3253 178.231V178.229Z" fill="#4162AE"/>
<path d="M71.4932 228.312L85.9664 280.965L85.5279 281.085L71.0547 228.432L71.4932 228.312Z" fill="#4162AE"/>
<path d="M100.443 228.432L85.9698 281.085L85.5312 280.965L100.004 228.312L100.443 228.432Z" fill="#4162AE"/>
</svg>
