<svg width="192" height="203" viewBox="0 0 192 203" fill="none" xmlns="http://www.w3.org/2000/svg">
<path d="M186.673 125.858L157.579 108.956C151.832 105.616 151.806 97.2253 157.536 93.8517L186.604 76.7361C190.714 74.3163 192.106 68.9797 189.718 64.8153L173.891 37.2208C171.502 33.0569 166.232 31.6437 162.123 34.0634L133.206 51.0877C127.476 54.4591 120.293 50.2852 120.275 43.574L120.179 9.69596C120.165 4.87823 116.302 0.985686 111.548 1.00004L80.0336 1.09139C75.2802 1.10574 71.4357 5.02003 71.4497 9.83775L71.5492 43.8959C71.5684 50.607 64.4076 54.8241 58.6606 51.4865L29.5677 34.5849C25.4429 32.1891 20.1845 33.6332 17.8198 37.8093L2.14184 65.5052C-0.22328 69.6835 1.20461 75.0106 5.32719 77.4064L34.2661 94.2219C40.0156 97.5616 40.0392 105.953 34.3088 109.324L5.54764 126.257C1.43728 128.679 0.0425676 134.015 2.43082 138.18L18.2681 165.781C20.6586 169.946 25.9266 171.359 30.037 168.937L58.9479 151.91C64.6782 148.536 71.8626 152.71 71.8814 159.423L71.9809 193.306C71.9953 198.124 75.8612 202.017 80.6146 202L112.12 201.904C116.873 201.889 120.713 197.975 120.702 193.16L120.602 159.457C120.583 152.746 127.744 148.529 133.493 151.867L162.434 168.682C166.559 171.078 171.817 169.631 174.182 165.455L189.858 137.761C192.223 133.583 190.797 128.256 186.675 125.86L186.673 125.858ZM131.56 102.906C131.389 102.937 131.218 102.97 131.05 103.002C128.732 103.449 126.484 104.088 124.319 104.898C123.026 105.383 121.761 105.931 120.528 106.534C112.006 110.725 105.104 117.719 100.967 126.353C100.368 127.6 99.8289 128.881 99.3522 130.193C98.5529 132.384 97.9243 134.662 97.4808 137.009C97.4476 137.18 97.4171 137.356 97.3861 137.529C97.1111 139.098 94.8887 139.098 94.6132 137.529C94.5827 137.356 94.5495 137.18 94.5185 137.009C94.0772 134.662 93.4464 132.384 92.6471 130.193C92.1678 128.881 91.6274 127.6 91.0319 126.353C86.8928 117.717 79.9908 110.725 71.4689 106.534C70.2378 105.929 68.9737 105.383 67.6785 104.898C65.5155 104.088 63.2669 103.451 60.9494 103.002C60.7787 102.968 60.608 102.937 60.4373 102.906C58.8885 102.627 58.8885 100.375 60.4373 100.097C60.608 100.065 60.7787 100.034 60.9494 100C63.2669 99.5511 65.5155 98.9122 67.6785 98.1049C68.9737 97.6194 70.2378 97.0714 71.4689 96.4685C79.9934 92.278 86.8928 85.2828 91.0319 76.6517C91.6296 75.4046 92.1678 74.1215 92.6471 72.8122C93.4464 70.6182 94.075 68.3429 94.5185 65.9928C94.5517 65.8223 94.5827 65.647 94.6132 65.476C94.8887 63.9071 97.1111 63.9071 97.3861 65.476C97.4171 65.647 97.4476 65.8223 97.4808 65.9928C97.9243 68.3403 98.5555 70.6182 99.3522 72.8122C99.8315 74.1215 100.37 75.4025 100.967 76.6517C105.104 85.2854 112.009 92.278 120.528 96.4685C121.759 97.074 123.026 97.6216 124.319 98.1049C126.484 98.9143 128.73 99.5511 131.05 100C131.218 100.034 131.391 100.065 131.56 100.097C133.109 100.375 133.109 102.627 131.56 102.906Z" stroke="black" stroke-width="2"/>
</svg>
