<svg width="220" height="222" viewBox="0 0 220 222" fill="none" xmlns="http://www.w3.org/2000/svg">
<path d="M108.708 222.001C80.9398 222.001 54.8348 211.187 35.1997 191.552C15.5646 171.916 4.75 145.812 4.75 118.044C4.75 90.2757 15.5646 64.1708 35.1997 44.5357C54.8348 24.9005 80.9398 14.0859 108.708 14.0859C136.476 14.0859 162.581 24.9005 182.216 44.5357C201.851 64.1708 212.665 90.2757 212.665 118.044C212.665 145.812 201.851 171.916 182.216 191.552C162.581 211.187 136.476 222.001 108.708 222.001ZM108.708 16.6368C81.6202 16.6368 56.1557 27.1857 37.0009 46.3369C17.8461 65.4917 7.29718 90.9562 7.29718 118.044C7.29718 145.131 17.8461 170.596 37.0009 189.75C56.1557 208.905 81.6202 219.451 108.708 219.451C135.795 219.451 161.26 208.902 180.414 189.75C199.569 170.596 210.118 145.131 210.118 118.044C210.118 90.9562 199.569 65.4917 180.414 46.3369C161.26 27.1821 135.795 16.6368 108.708 16.6368Z" fill="black"/>
<path d="M38.2491 101.741L35.8984 100.758C40.6507 89.3798 46.0653 78.1431 51.993 67.3649C60.8572 51.2449 71.0932 35.6998 82.4136 21.1627C82.7702 20.7078 83.1304 20.2384 83.5016 19.7617C86.8639 15.4206 90.6737 10.5046 95.0694 6.49456C102.464 -0.248186 110.112 -1.72191 118.449 1.98605C125.519 5.13 131.894 11.4106 138.055 17.4875C138.663 18.0879 139.267 18.681 139.867 19.2668L138.084 21.0863C137.484 20.4968 136.876 19.9 136.268 19.2996C130.268 13.3829 124.06 7.26599 117.415 4.31127C110 1.01449 103.446 2.30627 96.7869 8.37584C92.555 12.233 88.8143 17.0617 85.5175 21.3191C85.1463 21.7995 84.7825 22.2689 84.4259 22.7274C73.1892 37.159 63.0295 52.5912 54.2272 68.5912C48.3432 79.2893 42.9687 90.4423 38.2528 101.737L38.2491 101.741Z" fill="black"/>
<path d="M36.2701 102.885L27.7734 79.6582L30.1641 78.7812L37.7875 99.6208L58.6271 91.9938L59.5004 94.3882L36.2701 102.885Z" fill="#0058FF"/>
<path d="M101.552 191.712C97.0652 191.712 92.5858 191.625 88.1282 191.45C69.7449 190.733 51.2632 188.532 33.1965 184.911C32.6324 184.798 32.0539 184.686 31.4644 184.566C26.0753 183.499 19.9693 182.291 14.4165 180.152C5.05377 176.542 0.341483 170.167 0.0176274 160.669C-0.255285 152.66 2.69217 143.578 5.29393 135.561C5.53409 134.823 5.77061 134.091 6.0035 133.367L8.42696 134.146C8.19407 134.874 7.95391 135.605 7.71375 136.347C2.51022 152.384 -3.38832 170.56 15.3335 177.775C20.6789 179.835 26.672 181.021 31.9593 182.069C32.5524 182.186 33.131 182.302 33.6986 182.415C51.6308 186.01 69.9777 188.197 88.2265 188.907C100.427 189.383 112.807 189.201 125.019 188.368L125.193 190.908C117.352 191.443 109.441 191.712 101.552 191.712Z" fill="black"/>
<path d="M109.961 207.614L108.109 205.867L123.337 189.729L107.195 174.501L108.946 172.648L126.936 189.624L109.961 207.614Z" fill="#0058FF"/>
<path d="M187.127 184.546L186.272 182.148C187.065 181.864 187.866 181.58 188.674 181.296C196.621 178.491 204.834 175.59 210.405 170.907C216.616 165.686 218.323 159.227 215.779 150.581C214.164 145.086 211.46 139.61 209.077 134.781C208.807 134.239 208.545 133.704 208.291 133.184C200.238 116.761 190.81 100.871 180.275 85.9552C176.375 80.435 172.255 74.9513 168.023 69.6605L170.014 68.0703C174.275 73.4012 178.427 78.9249 182.357 84.4887C192.971 99.5171 202.465 115.524 210.58 132.066C210.834 132.587 211.096 133.114 211.362 133.657C213.793 138.58 216.547 144.158 218.225 149.868C221.048 159.467 219.029 166.988 212.046 172.861C206.126 177.843 197.687 180.823 189.525 183.701C188.721 183.985 187.921 184.269 187.131 184.549L187.127 184.546Z" fill="black"/>
<path d="M166.44 92.0403L163.93 91.6036L168.183 67.2344L192.553 71.4882L192.112 73.999L170.254 70.1818L166.44 92.0403Z" fill="#0058FF"/>
<path d="M108.705 221.965C98.7125 221.965 89.4408 210.979 82.5962 191.035C75.9007 171.513 72.2109 145.586 72.2109 118.025C72.2109 90.4649 75.8971 64.5383 82.5962 45.016C89.4371 25.0716 98.7089 14.0859 108.705 14.0859C118.701 14.0859 127.969 25.0716 134.813 45.016C141.509 64.5383 145.199 90.4649 145.199 118.025C145.199 145.586 141.512 171.513 134.813 191.035C127.972 210.979 118.701 221.965 108.705 221.965ZM108.705 16.6331C100.012 16.6331 91.3766 27.2803 85.0087 45.842C78.4006 65.1023 74.7618 90.7378 74.7618 118.025C74.7618 145.313 78.4006 170.945 85.0087 190.209C91.3766 208.771 100.015 219.418 108.705 219.418C117.394 219.418 126.033 208.771 132.401 190.209C139.009 170.949 142.648 145.313 142.648 118.025C142.648 90.7378 139.009 65.1059 132.401 45.842C126.033 27.2803 117.394 16.6331 108.705 16.6331Z" fill="black"/>
<path d="M133.483 191.094L133.359 188.55C151.663 187.648 167.601 185.777 178.241 183.281L178.823 185.759C168.041 188.292 151.939 190.184 133.487 191.094H133.483Z" fill="black"/>
<path d="M178.824 185.762L178.242 183.284C183.62 182.021 187.59 180.598 189.719 179.172L191.138 181.286C188.722 182.905 184.581 184.412 178.824 185.762Z" fill="black"/>
<path d="M193.585 62.3294C185.511 56.3618 149.832 52.0316 108.75 52.0316C67.6673 52.0316 32.8983 56.2744 24.2197 62.1184L22.7969 60.0042C31.9995 53.8109 67.3434 49.4844 108.75 49.4844C150.156 49.4844 186.493 53.9237 195.099 60.2844L193.585 62.3331V62.3294Z" fill="black"/>
<path d="M109.031 128.59C81.5909 128.59 55.7407 127.393 36.2402 125.22C26.7137 124.158 19.2214 122.921 13.9669 121.538C7.70087 119.89 4.90625 118.132 4.90625 115.836H7.45343C7.45343 115.872 8.24305 119.537 36.524 122.688C55.9335 124.853 81.6819 126.043 109.031 126.043C136.381 126.043 162.038 124.853 181.346 122.688C209.441 119.54 210.227 115.869 210.227 115.836H212.774C212.774 118.128 209.998 119.886 203.776 121.538C198.554 122.921 191.105 124.162 181.63 125.22C162.231 127.393 136.446 128.59 109.031 128.59Z" fill="black"/>
</svg>
