<svg width="530" height="170" viewBox="0 0 530 170" fill="none" xmlns="http://www.w3.org/2000/svg">
<path d="M321.381 141.403V135.388C321.381 135.111 321.157 134.886 320.879 134.886C320.602 134.886 320.378 135.111 320.378 135.388V141.403C320.378 141.551 320.442 141.685 320.545 141.777H314.858C314.581 141.777 314.356 142.001 314.356 142.278C314.356 142.555 314.581 142.779 314.858 142.779H320.879C321.157 142.779 321.381 142.555 321.381 142.278C321.381 142.09 321.278 141.927 321.125 141.84C321.278 141.755 321.381 141.591 321.381 141.403ZM308.837 141.777H302.815C302.538 141.777 302.313 142.001 302.313 142.278C302.313 142.555 302.538 142.779 302.815 142.779H308.837C309.114 142.779 309.339 142.555 309.339 142.278C309.339 142.001 309.114 141.777 308.837 141.777ZM296.794 141.777H291.791V142.779H296.794C297.071 142.779 297.296 142.555 297.296 142.278C297.296 142.001 297.071 141.777 296.794 141.777ZM266.186 142.278C266.186 142.444 266.267 142.591 266.391 142.682V141.874C266.267 141.964 266.186 142.112 266.186 142.278ZM236.581 141.777H230.56C230.282 141.777 230.058 142.001 230.058 142.278C230.058 142.555 230.282 142.779 230.56 142.779H236.581C236.859 142.779 237.083 142.555 237.083 142.278C237.083 142.001 236.859 141.777 236.581 141.777ZM224.538 141.777H218.517C218.241 141.777 218.015 142.001 218.015 142.278C218.015 142.555 218.241 142.779 218.517 142.779H224.538C224.816 142.779 225.04 142.555 225.04 142.278C225.04 142.001 224.816 141.777 224.538 141.777ZM212.497 141.777H211.401V137.857C211.401 137.581 211.177 137.356 210.899 137.356C210.622 137.356 210.398 137.581 210.398 137.857V142.278C210.398 142.555 210.623 142.779 210.899 142.779H212.497C212.773 142.779 212.997 142.555 212.997 142.278C212.997 142.001 212.773 141.777 212.497 141.777ZM210.899 125.325C210.623 125.325 210.398 125.55 210.398 125.826V131.842C210.398 132.119 210.623 132.343 210.899 132.343C211.175 132.343 211.401 132.119 211.401 131.842V125.826C211.401 125.55 211.177 125.325 210.899 125.325ZM320.879 122.855C320.602 122.855 320.378 123.079 320.378 123.357V129.372C320.378 129.648 320.602 129.874 320.879 129.874C321.157 129.874 321.381 129.648 321.381 129.372V123.357C321.381 123.079 321.157 122.855 320.879 122.855ZM210.899 113.295C210.623 113.295 210.398 113.519 210.398 113.796V119.812C210.398 120.088 210.623 120.312 210.899 120.312C211.175 120.312 211.401 120.088 211.401 119.812V113.796C211.401 113.519 211.177 113.295 210.899 113.295ZM320.879 98.7929C320.602 98.7929 320.378 99.017 320.378 99.2943V105.31C320.378 105.587 320.602 105.811 320.879 105.811C321.157 105.811 321.381 105.587 321.381 105.31V99.2943C321.381 99.017 321.157 98.7929 320.879 98.7929ZM320.879 98.7929C320.602 98.7929 320.378 99.017 320.378 99.2943V105.31C320.378 105.587 320.602 105.811 320.879 105.811C321.157 105.811 321.381 105.587 321.381 105.31V99.2943C321.381 99.017 321.157 98.7929 320.879 98.7929ZM320.879 110.824C320.602 110.824 320.378 111.048 320.378 111.325V117.341C320.378 117.617 320.602 117.842 320.879 117.842C321.157 117.842 321.381 117.617 321.381 117.341V111.325C321.381 111.048 321.157 110.824 320.879 110.824ZM320.879 98.7929C320.602 98.7929 320.378 99.017 320.378 99.2943V105.31C320.378 105.587 320.602 105.811 320.879 105.811C321.157 105.811 321.381 105.587 321.381 105.31V99.2943C321.381 99.017 321.157 98.7929 320.879 98.7929ZM320.879 98.7929C320.602 98.7929 320.378 99.017 320.378 99.2943V105.31C320.378 105.587 320.602 105.811 320.879 105.811C321.157 105.811 321.381 105.587 321.381 105.31V99.2943C321.381 99.017 321.157 98.7929 320.879 98.7929ZM210.899 89.2325C210.623 89.2325 210.398 89.4566 210.398 89.7339V95.7495C210.398 96.0267 210.623 96.2509 210.899 96.2509C211.175 96.2509 211.401 96.0267 211.401 95.7495V89.7339C211.401 89.4566 211.177 89.2325 210.899 89.2325ZM210.899 89.2325C210.623 89.2325 210.398 89.4566 210.398 89.7339V95.7495C210.398 96.0267 210.623 96.2509 210.899 96.2509C211.175 96.2509 211.401 96.0267 211.401 95.7495V89.7339C211.401 89.4566 211.177 89.2325 210.899 89.2325ZM210.899 101.264C210.623 101.264 210.398 101.488 210.398 101.765V107.781C210.398 108.057 210.623 108.282 210.899 108.282C211.175 108.282 211.401 108.057 211.401 107.781V101.765C211.401 101.488 211.177 101.264 210.899 101.264ZM210.899 89.2325C210.623 89.2325 210.398 89.4566 210.398 89.7339V95.7495C210.398 96.0267 210.623 96.2509 210.899 96.2509C211.175 96.2509 211.401 96.0267 211.401 95.7495V89.7339C211.401 89.4566 211.177 89.2325 210.899 89.2325ZM210.899 89.2325C210.623 89.2325 210.398 89.4566 210.398 89.7339V95.7495C210.398 96.0267 210.623 96.2509 210.899 96.2509C211.175 96.2509 211.401 96.0267 211.401 95.7495V89.7339C211.401 89.4566 211.177 89.2325 210.899 89.2325ZM320.879 98.7929C320.602 98.7929 320.378 99.017 320.378 99.2943V105.31C320.378 105.587 320.602 105.811 320.879 105.811C321.157 105.811 321.381 105.587 321.381 105.31V99.2943C321.381 99.017 321.157 98.7929 320.879 98.7929ZM210.899 89.2325C210.623 89.2325 210.398 89.4566 210.398 89.7339V95.7495C210.398 96.0267 210.623 96.2509 210.899 96.2509C211.175 96.2509 211.401 96.0267 211.401 95.7495V89.7339C211.401 89.4566 211.177 89.2325 210.899 89.2325ZM320.879 86.7617C320.602 86.7617 320.378 86.9872 320.378 87.2631V93.2787C320.378 93.556 320.602 93.7801 320.879 93.7801C321.157 93.7801 321.381 93.556 321.381 93.2787V87.2631C321.381 86.9872 321.157 86.7617 320.879 86.7617ZM210.899 77.2013C210.623 77.2013 210.398 77.4254 210.398 77.7027V83.7183C210.398 83.9956 210.623 84.2197 210.899 84.2197C211.175 84.2197 211.401 83.9956 211.401 83.7183V77.7027C211.401 77.4254 211.177 77.2013 210.899 77.2013ZM320.879 74.7318C320.602 74.7318 320.378 74.956 320.378 75.232V81.2475C320.378 81.2981 320.385 81.346 320.398 81.3914C320.461 81.5987 320.653 81.749 320.879 81.749C321.106 81.749 321.298 81.5987 321.361 81.3914C321.374 81.346 321.381 81.2981 321.381 81.2475V75.232C321.381 74.956 321.157 74.7318 320.879 74.7318ZM210.899 65.1701C210.623 65.1701 210.398 65.3956 210.398 65.6715V71.6871C210.398 71.9644 210.623 72.1885 210.899 72.1885C211.175 72.1885 211.401 71.9644 211.401 71.6871V65.6715C211.401 65.3956 211.177 65.1701 210.899 65.1701ZM320.879 62.7007C320.602 62.7007 320.378 62.9248 320.378 63.2021V69.2177C320.378 69.4936 320.602 69.7191 320.879 69.7191C321.157 69.7191 321.381 69.4936 321.381 69.2177V63.2021C321.381 62.9248 321.157 62.7007 320.879 62.7007ZM210.899 53.1403C210.623 53.1403 210.398 53.3644 210.398 53.6417V59.656C210.398 59.9332 210.623 60.1574 210.899 60.1574C211.175 60.1574 211.401 59.9332 211.401 59.656V53.6417C211.401 53.3644 211.177 53.1403 210.899 53.1403ZM320.879 50.6695C320.602 50.6695 320.378 50.8937 320.378 51.1709V57.1865C320.378 57.4625 320.602 57.6879 320.879 57.6879C321.157 57.6879 321.381 57.4625 321.381 57.1865V51.1709C321.381 50.8937 321.157 50.6695 320.879 50.6695ZM210.899 41.1091C210.623 41.1091 210.398 41.3332 210.398 41.6105V47.6261C210.398 47.9021 210.623 48.1275 210.899 48.1275C211.175 48.1275 211.401 47.9021 211.401 47.6261V41.6105C211.401 41.3332 211.177 41.1091 210.899 41.1091ZM320.879 38.6383C320.602 38.6383 320.378 38.8625 320.378 39.1397V45.1553C320.378 45.4326 320.602 45.6567 320.879 45.6567C321.157 45.6567 321.381 45.4326 321.381 45.1553V39.1397C321.381 38.8625 321.157 38.6383 320.879 38.6383ZM213.472 31.6484H210.899C210.623 31.6484 210.398 31.8726 210.398 32.1498V35.5949C210.398 35.8709 210.623 36.0963 210.899 36.0963C211.175 36.0963 211.401 35.8709 211.401 35.5949V32.65H213.472C213.75 32.65 213.974 32.4258 213.974 32.1498C213.974 31.8739 213.75 31.6484 213.472 31.6484ZM320.879 31.6484H315.835C315.557 31.6484 315.333 31.8726 315.333 32.1498C315.333 32.4271 315.557 32.65 315.835 32.65H320.378V33.1242C320.378 33.4014 320.602 33.6256 320.879 33.6256C321.157 33.6256 321.381 33.4014 321.381 33.1242V32.1498C321.381 31.8726 321.157 31.6484 320.879 31.6484ZM309.813 31.6484H303.792C303.514 31.6484 303.29 31.8726 303.29 32.1498C303.29 32.4271 303.514 32.65 303.792 32.65H309.813C310.091 32.65 310.315 32.4258 310.315 32.1498C310.315 31.8739 310.091 31.6484 309.813 31.6484ZM297.77 31.6484H291.749C291.471 31.6484 291.247 31.8726 291.247 32.1498C291.247 32.4271 291.471 32.65 291.749 32.65H297.77C298.048 32.65 298.272 32.4258 298.272 32.1498C298.272 31.8739 298.048 31.6484 297.77 31.6484ZM237.558 31.6484H231.536C231.259 31.6484 231.034 31.8726 231.034 32.1498C231.034 32.4271 231.259 32.65 231.536 32.65H237.558C237.835 32.65 238.06 32.4258 238.06 32.1498C238.06 31.8739 237.835 31.6484 237.558 31.6484ZM225.515 31.6484H219.493C219.216 31.6484 218.992 31.8726 218.992 32.1498C218.992 32.4271 219.216 32.65 219.493 32.65H225.515C225.792 32.65 226.017 32.4258 226.017 32.1498C226.017 31.8739 225.792 31.6484 225.515 31.6484Z" fill="#0058FF"/>
<path d="M265.894 25.2736V55.9838L265.392 55.7454L239.492 43.4745V12.7656L239.994 13.004V43.1571L265.392 55.1909V25.2736C265.392 25.1971 265.409 25.1233 265.44 25.0585L265.894 25.2736Z" fill="white"/>
<path d="M266.39 25.2828V55.993C266.39 56.164 266.302 56.3247 266.157 56.4167C266.147 56.4219 266.14 56.427 266.131 56.4322L266.103 56.4452C266.103 56.4452 266.102 56.4465 266.101 56.4465C266.085 56.4529 266.071 56.4594 266.055 56.4646C266.053 56.4659 266.052 56.4659 266.05 56.4659C266.033 56.4724 266.018 56.4776 266.001 56.4802C265.987 56.484 265.971 56.4879 265.957 56.4892C265.934 56.4931 265.911 56.4944 265.888 56.4944C265.865 56.4944 265.843 56.4931 265.819 56.4892C265.805 56.4892 265.79 56.484 265.775 56.4802C265.758 56.4776 265.743 56.4724 265.726 56.4659C265.723 56.4659 265.722 56.4659 265.721 56.4646C265.705 56.4594 265.691 56.4529 265.675 56.4465C265.674 56.4465 265.673 56.4452 265.673 56.4452C265.664 56.4413 265.655 56.4374 265.646 56.4322L239.271 43.9372C239.096 43.8543 238.984 43.6781 238.984 43.4837V12.7748C238.984 12.4976 239.209 12.2734 239.486 12.2734C239.598 12.2734 239.702 12.3097 239.786 12.3719C239.903 12.4587 239.98 12.596 239.987 12.7515C239.988 12.7593 239.988 12.7671 239.988 12.7748V43.1663L265.386 55.2001V25.2828C265.386 25.2064 265.403 25.1325 265.434 25.0677C265.469 24.9939 265.522 24.9291 265.587 24.8812C265.672 24.8177 265.775 24.7814 265.888 24.7814C266.001 24.7814 266.105 24.8177 266.189 24.8812C266.254 24.9291 266.307 24.9939 266.342 25.0677C266.373 25.1325 266.39 25.2064 266.39 25.2828Z" fill="white"/>
<path d="M292.294 12.7656V43.4745L266.393 55.7454L265.891 55.9838V25.2736L266.345 25.0585C266.376 25.1233 266.393 25.1971 266.393 25.2736V55.1909L291.792 43.1571V13.004L292.294 12.7656Z" fill="white"/>
<path d="M292.798 12.7748V43.4837C292.798 43.6781 292.686 43.8543 292.511 43.9372L266.135 56.4322L266.108 56.4452C266.108 56.4452 266.107 56.4465 266.105 56.4465C266.09 56.4529 266.075 56.4594 266.06 56.4646C266.057 56.4659 266.056 56.4659 266.055 56.4659C266.038 56.4724 266.022 56.4776 266.005 56.4802C265.991 56.484 265.976 56.4879 265.961 56.4892C265.938 56.4931 265.916 56.4944 265.893 56.4944C265.869 56.4944 265.847 56.4931 265.824 56.4892C265.81 56.4892 265.794 56.484 265.78 56.4802C265.763 56.4776 265.747 56.4724 265.73 56.4659C265.728 56.4659 265.727 56.4659 265.725 56.4646C265.71 56.4594 265.695 56.4529 265.68 56.4465C265.679 56.4465 265.677 56.4452 265.677 56.4452C265.668 56.4413 265.659 56.4374 265.65 56.4322C265.641 56.427 265.633 56.4219 265.624 56.4167C265.479 56.3247 265.391 56.164 265.391 55.993V25.2828C265.391 25.2064 265.407 25.1325 265.439 25.0677C265.474 24.9939 265.527 24.9291 265.592 24.8812C265.676 24.8177 265.78 24.7814 265.893 24.7814C266.005 24.7814 266.109 24.8177 266.193 24.8812C266.258 24.9291 266.311 24.9939 266.346 25.0677C266.378 25.1325 266.394 25.2064 266.394 25.2828V55.2001L291.794 43.1663V12.7748C291.794 12.7671 291.794 12.7593 291.795 12.7515C291.802 12.596 291.879 12.4587 291.996 12.3719C292.08 12.3097 292.184 12.2734 292.296 12.2734C292.573 12.2734 292.798 12.4976 292.798 12.7748Z" fill="white"/>
<path d="M292.297 12.5093L291.797 12.7464L266.195 24.876L265.894 25.0185L265.593 24.876L239.993 12.7464L239.492 12.5093L239.792 12.3667L265.894 0L291.998 12.3667L292.297 12.5093Z" fill="#0058FF"/>
<path d="M265.894 137.791V168.501L265.392 168.262L239.492 155.991V125.281L239.994 125.52V155.674L265.392 167.708V137.791C265.392 137.714 265.409 137.64 265.44 137.575L265.894 137.791Z" fill="white"/>
<path d="M266.39 137.783V168.493C266.39 168.664 266.302 168.825 266.157 168.917C266.14 168.927 266.122 168.936 266.103 168.945C266.102 168.945 266.102 168.946 266.101 168.946C266.09 168.95 266.081 168.956 266.071 168.958C266.061 168.963 266.05 168.967 266.039 168.97C266.032 168.972 266.026 168.975 266.018 168.976C265.998 168.981 265.978 168.985 265.958 168.988C265.935 168.992 265.911 168.993 265.888 168.993C265.865 168.993 265.841 168.992 265.818 168.988C265.799 168.985 265.778 168.981 265.758 168.976C265.752 168.976 265.745 168.972 265.739 168.97C265.727 168.967 265.716 168.963 265.705 168.958C265.695 168.956 265.686 168.95 265.675 168.946C265.674 168.946 265.673 168.945 265.673 168.945L239.271 156.437C239.096 156.354 238.984 156.177 238.984 155.984V125.274C238.984 124.998 239.209 124.773 239.486 124.773C239.598 124.773 239.702 124.81 239.786 124.872C239.903 124.959 239.98 125.096 239.987 125.252C239.988 125.259 239.988 125.266 239.988 125.274V155.666L265.386 167.7V137.783C265.386 137.706 265.403 137.633 265.434 137.568C265.469 137.493 265.524 137.429 265.589 137.38C265.673 137.318 265.777 137.281 265.888 137.281C266 137.281 266.103 137.318 266.188 137.38C266.253 137.429 266.307 137.493 266.342 137.568C266.373 137.633 266.39 137.706 266.39 137.783Z" fill="white"/>
<path d="M292.294 125.281V155.991L266.393 168.262L265.891 168.501V137.791L266.345 137.575C266.376 137.64 266.393 137.714 266.393 137.791V167.708L291.792 155.674V125.52L292.294 125.281Z" fill="white"/>
<path d="M292.798 125.274V155.984C292.798 156.177 292.686 156.354 292.511 156.437L266.108 168.945C266.108 168.945 266.107 168.946 266.105 168.946C266.095 168.95 266.086 168.956 266.075 168.958C266.065 168.963 266.055 168.967 266.043 168.97C266.036 168.972 266.03 168.975 266.022 168.976C266.003 168.981 265.982 168.985 265.963 168.988C265.939 168.992 265.916 168.993 265.893 168.993C265.869 168.993 265.846 168.992 265.822 168.988C265.803 168.985 265.782 168.981 265.763 168.976C265.756 168.976 265.75 168.972 265.743 168.97C265.732 168.967 265.72 168.963 265.71 168.958C265.699 168.956 265.69 168.95 265.68 168.946C265.679 168.946 265.677 168.945 265.677 168.945C265.659 168.936 265.641 168.927 265.624 168.917C265.479 168.825 265.391 168.664 265.391 168.493V137.783C265.391 137.706 265.407 137.633 265.439 137.568C265.474 137.493 265.528 137.429 265.593 137.38C265.677 137.318 265.781 137.281 265.893 137.281C266.004 137.281 266.108 137.318 266.192 137.38C266.257 137.429 266.311 137.493 266.346 137.568C266.378 137.633 266.394 137.706 266.394 137.783V167.7L291.794 155.666V125.274C291.794 125.266 291.794 125.259 291.795 125.252C291.802 125.096 291.879 124.959 291.996 124.872C292.08 124.81 292.184 124.773 292.296 124.773C292.573 124.773 292.798 124.998 292.798 125.274Z" fill="white"/>
<path d="M292.297 125.017L291.797 125.254L266.194 137.383L265.894 137.525L265.594 137.383L239.993 125.254L239.492 125.017L239.792 124.875L265.894 112.508L291.998 124.875L292.297 125.017Z" fill="#0058FF"/>
<path d="M210.894 81.5314V112.242L210.393 112.004L184.492 99.7323V69.0234L184.994 69.2618V99.4149L210.393 111.449V81.5314C210.393 81.455 210.41 81.3811 210.441 81.3163L210.894 81.5314Z" fill="white"/>
<path d="M237.302 69.0234V99.7323L211.4 112.003L210.898 112.242V81.5314L211.352 81.3163C211.383 81.3811 211.4 81.455 211.4 81.5314V111.449L236.8 99.4149V69.2618L237.302 69.0234Z" fill="white"/>
<path d="M211.406 81.5328V112.243C211.406 112.414 211.317 112.575 211.172 112.667C211.163 112.672 211.155 112.677 211.146 112.682L211.119 112.695C211.119 112.695 211.119 112.696 211.116 112.696C211.101 112.703 211.087 112.709 211.071 112.715C211.068 112.716 211.067 112.716 211.066 112.716C211.049 112.722 211.033 112.728 211.017 112.73C211.002 112.734 210.987 112.738 210.972 112.739C210.95 112.743 210.927 112.744 210.904 112.744C210.882 112.744 210.858 112.743 210.836 112.739C210.821 112.738 210.805 112.734 210.79 112.73C210.774 112.726 210.758 112.722 210.743 112.716C210.743 112.717 210.739 112.716 210.738 112.715C210.722 112.709 210.708 112.703 210.692 112.696L210.69 112.695C210.681 112.691 210.672 112.686 210.663 112.682L184.287 100.187C184.112 100.104 184 99.9281 184 99.7337V69.0248C184 68.7476 184.224 68.5234 184.502 68.5234C184.613 68.5234 184.717 68.5597 184.801 68.6219C184.918 68.7087 184.996 68.846 185.002 69.0015C185.004 69.0093 185.004 69.0171 185.004 69.0248V99.4163L210.403 111.45V81.5328C210.403 81.4564 210.42 81.3825 210.451 81.3177C210.486 81.2439 210.539 81.1791 210.604 81.1312C210.688 81.0677 210.792 81.0314 210.904 81.0314C211.015 81.0314 211.12 81.0677 211.205 81.1312C211.269 81.1791 211.323 81.2439 211.358 81.3177C211.389 81.3825 211.406 81.4564 211.406 81.5328Z" fill="white"/>
<path d="M237.804 69.0248V99.7337C237.804 99.9281 237.693 100.104 237.517 100.187L211.142 112.682L211.114 112.695C211.114 112.695 211.114 112.696 211.112 112.696C211.096 112.703 211.082 112.709 211.066 112.715C211.064 112.716 211.062 112.716 211.061 112.716C211.044 112.722 211.029 112.728 211.012 112.73C210.998 112.734 210.982 112.738 210.968 112.739C210.946 112.743 210.922 112.744 210.899 112.744C210.877 112.744 210.854 112.743 210.832 112.739C210.816 112.738 210.8 112.734 210.785 112.73C210.769 112.726 210.754 112.722 210.738 112.716C210.738 112.717 210.734 112.716 210.733 112.715C210.717 112.709 210.703 112.703 210.688 112.696L210.685 112.695C210.676 112.691 210.667 112.686 210.658 112.682C210.649 112.677 210.64 112.672 210.632 112.667C210.487 112.575 210.398 112.414 210.398 112.243V81.5328C210.398 81.4564 210.415 81.3825 210.446 81.3177C210.481 81.2439 210.535 81.1791 210.599 81.1312C210.684 81.0677 210.788 81.0314 210.899 81.0314C211.011 81.0314 211.116 81.0677 211.2 81.1312C211.265 81.1791 211.318 81.2439 211.353 81.3177C211.384 81.3825 211.401 81.4564 211.401 81.5328V111.45L236.8 99.4163V69.0248C236.8 69.0171 236.8 69.0093 236.802 69.0015C236.808 68.846 236.886 68.7087 237.003 68.6219C237.087 68.5597 237.191 68.5234 237.302 68.5234C237.58 68.5234 237.804 68.7476 237.804 69.0248Z" fill="white"/>
<path d="M210.894 56.2578L184.492 68.7671L210.894 81.2763L237.297 68.7671L210.894 56.2578Z" fill="#0058FF"/>
<path d="M320.88 112.746C320.806 112.746 320.734 112.73 320.665 112.698L294.263 100.189C294.088 100.106 293.977 99.9294 293.977 99.735V69.0248C293.977 68.7476 294.201 68.5234 294.478 68.5234C294.756 68.5234 294.98 68.7476 294.98 69.0248V99.4176L320.38 111.451V81.5341C320.38 81.2568 320.604 81.0327 320.882 81.0327C321.159 81.0327 321.383 81.2568 321.383 81.5341V112.244C321.383 112.417 321.295 112.576 321.15 112.668C321.068 112.72 320.975 112.746 320.882 112.746H320.88Z" fill="white"/>
<path d="M320.877 112.746C320.784 112.746 320.69 112.72 320.608 112.668C320.463 112.576 320.375 112.417 320.375 112.244V81.5341C320.375 81.2568 320.599 81.0327 320.877 81.0327C321.154 81.0327 321.379 81.2568 321.379 81.5341V111.451L346.778 99.4176V69.0248C346.778 68.7476 347.002 68.5234 347.28 68.5234C347.558 68.5234 347.782 68.7476 347.782 69.0248V99.735C347.782 99.9281 347.67 100.106 347.495 100.189L321.092 112.698C321.023 112.73 320.951 112.746 320.877 112.746Z" fill="white"/>
<path d="M320.88 56.2578L294.477 68.7671L320.88 81.2763L347.283 68.7671L320.88 56.2578Z" fill="#0058FF"/>
<path d="M137.381 142.403V136.388C137.381 136.111 137.157 135.886 136.879 135.886C136.602 135.886 136.378 136.111 136.378 136.388V142.403C136.378 142.551 136.442 142.685 136.545 142.777H130.858C130.581 142.777 130.356 143.001 130.356 143.278C130.356 143.555 130.581 143.779 130.858 143.779H136.879C137.157 143.779 137.381 143.555 137.381 143.278C137.381 143.09 137.278 142.927 137.125 142.84C137.278 142.755 137.381 142.591 137.381 142.403ZM124.837 142.777H118.815C118.538 142.777 118.313 143.001 118.313 143.278C118.313 143.555 118.538 143.779 118.815 143.779H124.837C125.114 143.779 125.339 143.555 125.339 143.278C125.339 143.001 125.114 142.777 124.837 142.777ZM112.794 142.777H107.791V143.779H112.794C113.071 143.779 113.296 143.555 113.296 143.278C113.296 143.001 113.071 142.777 112.794 142.777ZM82.1862 143.278C82.1862 143.444 82.2667 143.591 82.3912 143.682V142.874C82.2667 142.964 82.1862 143.112 82.1862 143.278ZM52.5811 142.777H46.5597C46.2822 142.777 46.0578 143.001 46.0578 143.278C46.0578 143.555 46.2822 143.779 46.5597 143.779H52.5811C52.8586 143.779 53.083 143.555 53.083 143.278C53.083 143.001 52.8586 142.777 52.5811 142.777ZM40.5383 142.777H34.5169C34.2407 142.777 34.015 143.001 34.015 143.278C34.015 143.555 34.2407 143.779 34.5169 143.779H40.5383C40.8158 143.779 41.0402 143.555 41.0402 143.278C41.0402 143.001 40.8158 142.777 40.5383 142.777ZM28.4968 142.777H27.4009V138.857C27.4009 138.581 27.1766 138.356 26.899 138.356C26.6215 138.356 26.3984 138.581 26.3984 138.857V143.278C26.3984 143.555 26.6228 143.779 26.899 143.779H28.4968C28.773 143.779 28.9974 143.555 28.9974 143.278C28.9974 143.001 28.773 142.777 28.4968 142.777ZM26.899 126.325C26.6228 126.325 26.3984 126.55 26.3984 126.826V132.842C26.3984 133.119 26.6228 133.343 26.899 133.343C27.1753 133.343 27.4009 133.119 27.4009 132.842V126.826C27.4009 126.55 27.1766 126.325 26.899 126.325ZM136.879 123.855C136.602 123.855 136.378 124.079 136.378 124.357V130.372C136.378 130.648 136.602 130.874 136.879 130.874C137.157 130.874 137.381 130.648 137.381 130.372V124.357C137.381 124.079 137.157 123.855 136.879 123.855ZM26.899 114.295C26.6228 114.295 26.3984 114.519 26.3984 114.796V120.812C26.3984 121.088 26.6228 121.312 26.899 121.312C27.1753 121.312 27.4009 121.088 27.4009 120.812V114.796C27.4009 114.519 27.1766 114.295 26.899 114.295ZM136.879 99.7929C136.602 99.7929 136.378 100.017 136.378 100.294V106.31C136.378 106.587 136.602 106.811 136.879 106.811C137.157 106.811 137.381 106.587 137.381 106.31V100.294C137.381 100.017 137.157 99.7929 136.879 99.7929ZM136.879 99.7929C136.602 99.7929 136.378 100.017 136.378 100.294V106.31C136.378 106.587 136.602 106.811 136.879 106.811C137.157 106.811 137.381 106.587 137.381 106.31V100.294C137.381 100.017 137.157 99.7929 136.879 99.7929ZM136.879 111.824C136.602 111.824 136.378 112.048 136.378 112.325V118.341C136.378 118.617 136.602 118.842 136.879 118.842C137.157 118.842 137.381 118.617 137.381 118.341V112.325C137.381 112.048 137.157 111.824 136.879 111.824ZM136.879 99.7929C136.602 99.7929 136.378 100.017 136.378 100.294V106.31C136.378 106.587 136.602 106.811 136.879 106.811C137.157 106.811 137.381 106.587 137.381 106.31V100.294C137.381 100.017 137.157 99.7929 136.879 99.7929ZM136.879 99.7929C136.602 99.7929 136.378 100.017 136.378 100.294V106.31C136.378 106.587 136.602 106.811 136.879 106.811C137.157 106.811 137.381 106.587 137.381 106.31V100.294C137.381 100.017 137.157 99.7929 136.879 99.7929ZM26.899 90.2325C26.6228 90.2325 26.3984 90.4566 26.3984 90.7339V96.7495C26.3984 97.0267 26.6228 97.2509 26.899 97.2509C27.1753 97.2509 27.4009 97.0267 27.4009 96.7495V90.7339C27.4009 90.4566 27.1766 90.2325 26.899 90.2325ZM26.899 90.2325C26.6228 90.2325 26.3984 90.4566 26.3984 90.7339V96.7495C26.3984 97.0267 26.6228 97.2509 26.899 97.2509C27.1753 97.2509 27.4009 97.0267 27.4009 96.7495V90.7339C27.4009 90.4566 27.1766 90.2325 26.899 90.2325ZM26.899 102.264C26.6228 102.264 26.3984 102.488 26.3984 102.765V108.781C26.3984 109.057 26.6228 109.282 26.899 109.282C27.1753 109.282 27.4009 109.057 27.4009 108.781V102.765C27.4009 102.488 27.1766 102.264 26.899 102.264ZM26.899 90.2325C26.6228 90.2325 26.3984 90.4566 26.3984 90.7339V96.7495C26.3984 97.0267 26.6228 97.2509 26.899 97.2509C27.1753 97.2509 27.4009 97.0267 27.4009 96.7495V90.7339C27.4009 90.4566 27.1766 90.2325 26.899 90.2325ZM26.899 90.2325C26.6228 90.2325 26.3984 90.4566 26.3984 90.7339V96.7495C26.3984 97.0267 26.6228 97.2509 26.899 97.2509C27.1753 97.2509 27.4009 97.0267 27.4009 96.7495V90.7339C27.4009 90.4566 27.1766 90.2325 26.899 90.2325ZM136.879 99.7929C136.602 99.7929 136.378 100.017 136.378 100.294V106.31C136.378 106.587 136.602 106.811 136.879 106.811C137.157 106.811 137.381 106.587 137.381 106.31V100.294C137.381 100.017 137.157 99.7929 136.879 99.7929ZM26.899 90.2325C26.6228 90.2325 26.3984 90.4566 26.3984 90.7339V96.7495C26.3984 97.0267 26.6228 97.2509 26.899 97.2509C27.1753 97.2509 27.4009 97.0267 27.4009 96.7495V90.7339C27.4009 90.4566 27.1766 90.2325 26.899 90.2325ZM136.879 87.7617C136.602 87.7617 136.378 87.9872 136.378 88.2631V94.2787C136.378 94.556 136.602 94.7801 136.879 94.7801C137.157 94.7801 137.381 94.556 137.381 94.2787V88.2631C137.381 87.9872 137.157 87.7617 136.879 87.7617ZM26.899 78.2013C26.6228 78.2013 26.3984 78.4254 26.3984 78.7027V84.7183C26.3984 84.9956 26.6228 85.2197 26.899 85.2197C27.1753 85.2197 27.4009 84.9956 27.4009 84.7183V78.7027C27.4009 78.4254 27.1766 78.2013 26.899 78.2013ZM136.879 75.7318C136.602 75.7318 136.378 75.956 136.378 76.232V82.2475C136.378 82.2981 136.385 82.346 136.398 82.3914C136.461 82.5987 136.653 82.749 136.879 82.749C137.106 82.749 137.298 82.5987 137.361 82.3914C137.374 82.346 137.381 82.2981 137.381 82.2475V76.232C137.381 75.956 137.157 75.7318 136.879 75.7318ZM26.899 66.1701C26.6228 66.1701 26.3984 66.3956 26.3984 66.6715V72.6871C26.3984 72.9644 26.6228 73.1885 26.899 73.1885C27.1753 73.1885 27.4009 72.9644 27.4009 72.6871V66.6715C27.4009 66.3956 27.1766 66.1701 26.899 66.1701ZM136.879 63.7007C136.602 63.7007 136.378 63.9248 136.378 64.2021V70.2177C136.378 70.4936 136.602 70.7191 136.879 70.7191C137.157 70.7191 137.381 70.4936 137.381 70.2177V64.2021C137.381 63.9248 137.157 63.7007 136.879 63.7007ZM26.899 54.1403C26.6228 54.1403 26.3984 54.3644 26.3984 54.6417V60.656C26.3984 60.9332 26.6228 61.1574 26.899 61.1574C27.1753 61.1574 27.4009 60.9332 27.4009 60.656V54.6417C27.4009 54.3644 27.1766 54.1403 26.899 54.1403ZM136.879 51.6695C136.602 51.6695 136.378 51.8937 136.378 52.1709V58.1865C136.378 58.4625 136.602 58.6879 136.879 58.6879C137.157 58.6879 137.381 58.4625 137.381 58.1865V52.1709C137.381 51.8937 137.157 51.6695 136.879 51.6695ZM26.899 42.1091C26.6228 42.1091 26.3984 42.3332 26.3984 42.6105V48.6261C26.3984 48.9021 26.6228 49.1275 26.899 49.1275C27.1753 49.1275 27.4009 48.9021 27.4009 48.6261V42.6105C27.4009 42.3332 27.1766 42.1091 26.899 42.1091ZM136.879 39.6383C136.602 39.6383 136.378 39.8625 136.378 40.1397V46.1553C136.378 46.4326 136.602 46.6567 136.879 46.6567C137.157 46.6567 137.381 46.4326 137.381 46.1553V40.1397C137.381 39.8625 137.157 39.6383 136.879 39.6383ZM29.472 32.6484H26.899C26.6228 32.6484 26.3984 32.8726 26.3984 33.1498V36.5949C26.3984 36.8709 26.6228 37.0963 26.899 37.0963C27.1753 37.0963 27.4009 36.8709 27.4009 36.5949V33.65H29.472C29.7496 33.65 29.9739 33.4258 29.9739 33.1498C29.9739 32.8739 29.7496 32.6484 29.472 32.6484ZM136.879 32.6484H131.835C131.557 32.6484 131.333 32.8726 131.333 33.1498C131.333 33.4271 131.557 33.65 131.835 33.65H136.378V34.1242C136.378 34.4014 136.602 34.6256 136.879 34.6256C137.157 34.6256 137.381 34.4014 137.381 34.1242V33.1498C137.381 32.8726 137.157 32.6484 136.879 32.6484ZM125.813 32.6484H119.792C119.514 32.6484 119.29 32.8726 119.29 33.1498C119.29 33.4271 119.514 33.65 119.792 33.65H125.813C126.091 33.65 126.315 33.4258 126.315 33.1498C126.315 32.8739 126.091 32.6484 125.813 32.6484ZM113.77 32.6484H107.749C107.471 32.6484 107.247 32.8726 107.247 33.1498C107.247 33.4271 107.471 33.65 107.749 33.65H113.77C114.048 33.65 114.272 33.4258 114.272 33.1498C114.272 32.8739 114.048 32.6484 113.77 32.6484ZM53.5577 32.6484H47.5363C47.2587 32.6484 47.0344 32.8726 47.0344 33.1498C47.0344 33.4271 47.2587 33.65 47.5363 33.65H53.5577C53.8352 33.65 54.0596 33.4258 54.0596 33.1498C54.0596 32.8739 53.8352 32.6484 53.5577 32.6484ZM41.5148 32.6484H35.4934C35.2159 32.6484 34.9916 32.8726 34.9916 33.1498C34.9916 33.4271 35.2159 33.65 35.4934 33.65H41.5148C41.7924 33.65 42.0167 33.4258 42.0167 33.1498C42.0167 32.8739 41.7924 32.6484 41.5148 32.6484Z" fill="#0058FF"/>
<path d="M81.894 26.2736V56.9838L81.3921 56.7454L55.4922 44.4745V13.7656L55.9941 14.004V44.1571L81.3921 56.1909V26.2736C81.3921 26.1971 81.409 26.1233 81.4401 26.0585L81.894 26.2736Z" fill="white"/>
<path d="M82.39 26.2828V56.993C82.39 57.164 82.3018 57.3247 82.1566 57.4167C82.1475 57.4219 82.1397 57.427 82.1306 57.4322L82.1034 57.4452C82.1034 57.4452 82.1021 57.4465 82.1008 57.4465C82.0852 57.4529 82.071 57.4594 82.0554 57.4646C82.0528 57.4659 82.0515 57.4659 82.0502 57.4659C82.0334 57.4724 82.0178 57.4776 82.0009 57.4802C81.9867 57.484 81.9711 57.4879 81.9568 57.4892C81.9335 57.4931 81.9115 57.4944 81.8881 57.4944C81.8648 57.4944 81.8427 57.4931 81.8194 57.4892C81.8051 57.4892 81.7895 57.484 81.7753 57.4802C81.7584 57.4776 81.7429 57.4724 81.726 57.4659C81.7234 57.4659 81.7221 57.4659 81.7208 57.4646C81.7053 57.4594 81.691 57.4529 81.6754 57.4465C81.6741 57.4465 81.6728 57.4452 81.6728 57.4452C81.6638 57.4413 81.6547 57.4374 81.6456 57.4322L55.271 44.9372C55.0959 44.8543 54.9844 44.6781 54.9844 44.4837V13.7748C54.9844 13.4976 55.2087 13.2734 55.4863 13.2734C55.5978 13.2734 55.7016 13.3097 55.7858 13.3719C55.9026 13.4587 55.9804 13.596 55.9869 13.7515C55.9882 13.7593 55.9882 13.7671 55.9882 13.7748V44.1663L81.3862 56.2001V26.2828C81.3862 26.2064 81.4031 26.1325 81.4342 26.0677C81.4692 25.9939 81.5224 25.9291 81.5872 25.8812C81.6715 25.8177 81.7753 25.7814 81.8881 25.7814C82.0009 25.7814 82.1047 25.8177 82.189 25.8812C82.2538 25.9291 82.307 25.9939 82.342 26.0677C82.3731 26.1325 82.39 26.2064 82.39 26.2828Z" fill="white"/>
<path d="M108.294 13.7656V44.4745L82.3925 56.7454L81.8906 56.9838V26.2736L82.3445 26.0585C82.3757 26.1233 82.3925 26.1971 82.3925 26.2736V56.1909L107.792 44.1571V14.004L108.294 13.7656Z" fill="white"/>
<path d="M108.798 13.7748V44.4837C108.798 44.6781 108.686 44.8543 108.511 44.9372L82.135 57.4322L82.1078 57.4452C82.1078 57.4452 82.1065 57.4465 82.1052 57.4465C82.0896 57.4529 82.0754 57.4594 82.0598 57.4646C82.0572 57.4659 82.0559 57.4659 82.0546 57.4659C82.0378 57.4724 82.0222 57.4776 82.0054 57.4802C81.9911 57.484 81.9755 57.4879 81.9613 57.4892C81.9379 57.4931 81.9159 57.4944 81.8925 57.4944C81.8692 57.4944 81.8471 57.4931 81.8238 57.4892C81.8095 57.4892 81.794 57.484 81.7797 57.4802C81.7628 57.4776 81.7473 57.4724 81.7304 57.4659C81.7278 57.4659 81.7265 57.4659 81.7252 57.4646C81.7097 57.4594 81.6954 57.4529 81.6798 57.4465C81.6785 57.4465 81.6772 57.4452 81.6772 57.4452C81.6682 57.4413 81.6591 57.4374 81.65 57.4322C81.6409 57.427 81.6331 57.4219 81.6241 57.4167C81.4788 57.3247 81.3906 57.164 81.3906 56.993V26.2828C81.3906 26.2064 81.4075 26.1325 81.4386 26.0677C81.4736 25.9939 81.5268 25.9291 81.5916 25.8812C81.6759 25.8177 81.7797 25.7814 81.8925 25.7814C82.0053 25.7814 82.1091 25.8177 82.1934 25.8812C82.2582 25.9291 82.3114 25.9939 82.3464 26.0677C82.3775 26.1325 82.3944 26.2064 82.3944 26.2828V56.2001L107.794 44.1663V13.7748C107.794 13.7671 107.794 13.7593 107.795 13.7515C107.802 13.596 107.879 13.4587 107.996 13.3719C108.08 13.3097 108.184 13.2734 108.296 13.2734C108.573 13.2734 108.798 13.4976 108.798 13.7748Z" fill="white"/>
<path d="M108.297 13.5093L107.797 13.7464L82.1949 25.876L81.894 26.0185L81.5932 25.876L55.9928 13.7464L55.4922 13.5093L55.7918 13.3667L81.894 1L107.998 13.3667L108.297 13.5093Z" fill="#0058FF"/>
<path d="M81.894 138.791V169.501L81.3921 169.262L55.4922 156.991V126.281L55.9941 126.52V156.674L81.3921 168.708V138.791C81.3921 138.714 81.409 138.64 81.4401 138.575L81.894 138.791Z" fill="white"/>
<path d="M82.39 138.783V169.493C82.39 169.664 82.3018 169.825 82.1566 169.917C82.1397 169.927 82.1216 169.936 82.1034 169.945C82.1021 169.945 82.1021 169.946 82.1008 169.946C82.0904 169.95 82.0813 169.956 82.071 169.958C82.0606 169.963 82.0502 169.967 82.0386 169.97C82.0321 169.972 82.0256 169.975 82.0178 169.976C81.9983 169.981 81.9776 169.985 81.9581 169.988C81.9348 169.992 81.9115 169.993 81.8881 169.993C81.8648 169.993 81.8414 169.992 81.8181 169.988C81.7986 169.985 81.7779 169.981 81.7584 169.976C81.7519 169.976 81.7455 169.972 81.739 169.97C81.7273 169.967 81.7156 169.963 81.7053 169.958C81.6949 169.956 81.6858 169.95 81.6754 169.946C81.6741 169.946 81.6728 169.945 81.6728 169.945L55.271 157.437C55.0959 157.354 54.9844 157.177 54.9844 156.984V126.274C54.9844 125.998 55.2087 125.773 55.4863 125.773C55.5978 125.773 55.7016 125.81 55.7858 125.872C55.9026 125.959 55.9804 126.096 55.9869 126.252C55.9882 126.259 55.9882 126.266 55.9882 126.274V156.666L81.3862 168.7V138.783C81.3862 138.706 81.4031 138.633 81.4342 138.568C81.4692 138.493 81.5237 138.429 81.5885 138.38C81.6728 138.318 81.7766 138.281 81.8881 138.281C81.9996 138.281 82.1034 138.318 82.1877 138.38C82.2525 138.429 82.307 138.493 82.342 138.568C82.3731 138.633 82.39 138.706 82.39 138.783Z" fill="white"/>
<path d="M108.294 126.281V156.991L82.3925 169.262L81.8906 169.501V138.791L82.3445 138.575C82.3757 138.64 82.3925 138.714 82.3925 138.791V168.708L107.792 156.674V126.52L108.294 126.281Z" fill="white"/>
<path d="M108.798 126.274V156.984C108.798 157.177 108.686 157.354 108.511 157.437L82.1078 169.945C82.1078 169.945 82.1065 169.946 82.1052 169.946C82.0948 169.95 82.0858 169.956 82.0754 169.958C82.065 169.963 82.0546 169.967 82.043 169.97C82.0365 169.972 82.03 169.975 82.0222 169.976C82.0028 169.981 81.982 169.985 81.9626 169.988C81.9392 169.992 81.9159 169.993 81.8925 169.993C81.8692 169.993 81.8458 169.992 81.8225 169.988C81.803 169.985 81.7823 169.981 81.7628 169.976C81.7563 169.976 81.7499 169.972 81.7434 169.97C81.7317 169.967 81.72 169.963 81.7097 169.958C81.6993 169.956 81.6902 169.95 81.6798 169.946C81.6785 169.946 81.6772 169.945 81.6772 169.945C81.6591 169.936 81.6409 169.927 81.6241 169.917C81.4788 169.825 81.3906 169.664 81.3906 169.493V138.783C81.3906 138.706 81.4075 138.633 81.4386 138.568C81.4736 138.493 81.5281 138.429 81.5929 138.38C81.6772 138.318 81.781 138.281 81.8925 138.281C82.004 138.281 82.1078 138.318 82.1921 138.38C82.2569 138.429 82.3114 138.493 82.3464 138.568C82.3775 138.633 82.3944 138.706 82.3944 138.783V168.7L107.794 156.666V126.274C107.794 126.266 107.794 126.259 107.795 126.252C107.802 126.096 107.879 125.959 107.996 125.872C108.08 125.81 108.184 125.773 108.296 125.773C108.573 125.773 108.798 125.998 108.798 126.274Z" fill="white"/>
<path d="M108.297 126.017L107.797 126.254L82.1936 138.383L81.894 138.525L81.5945 138.383L55.9928 126.254L55.4922 126.017L55.7918 125.875L81.894 113.508L107.998 125.875L108.297 126.017Z" fill="#0058FF"/>
<path d="M26.894 82.5314V113.242L26.3934 113.004L0.492188 100.732V70.0234L0.994079 70.2618V100.415L26.3934 112.449V82.5314C26.3934 82.455 26.4103 82.3811 26.4414 82.3163L26.894 82.5314Z" fill="white"/>
<path d="M53.3016 70.0234V100.732L27.4003 113.003L26.8984 113.242V82.5314L27.3523 82.3163C27.3835 82.3811 27.4003 82.455 27.4003 82.5314V112.449L52.7997 100.415V70.2618L53.3016 70.0234Z" fill="white"/>
<path d="M27.4056 82.5328V113.243C27.4056 113.414 27.3174 113.575 27.1722 113.667C27.1631 113.672 27.1553 113.677 27.1463 113.682L27.119 113.695C27.119 113.695 27.119 113.696 27.1164 113.696C27.1009 113.703 27.0866 113.709 27.071 113.715C27.0684 113.716 27.0671 113.716 27.0658 113.716C27.049 113.722 27.0334 113.728 27.0166 113.73C27.0023 113.734 26.9867 113.738 26.9725 113.739C26.9504 113.743 26.9271 113.744 26.9037 113.744C26.8817 113.744 26.8583 113.743 26.8363 113.739C26.8207 113.738 26.8052 113.734 26.7896 113.73C26.774 113.726 26.7585 113.722 26.7429 113.716C26.7429 113.717 26.739 113.716 26.7377 113.715C26.7222 113.709 26.7079 113.703 26.6923 113.696L26.6898 113.695C26.6807 113.691 26.6716 113.686 26.6625 113.682L0.28661 101.187C0.111532 101.104 0 100.928 0 100.734V70.0248C0 69.7476 0.22436 69.5234 0.501892 69.5234C0.613423 69.5234 0.717174 69.5597 0.801471 69.6219C0.91819 69.7087 0.996002 69.846 1.00249 70.0015C1.00378 70.0093 1.00378 70.0171 1.00378 70.0248V100.416L26.4031 112.45V82.5328C26.4031 82.4564 26.42 82.3825 26.4511 82.3177C26.4861 82.2439 26.5393 82.1791 26.6042 82.1312C26.6885 82.0677 26.7922 82.0314 26.9037 82.0314C27.0153 82.0314 27.1203 82.0677 27.2046 82.1312C27.2695 82.1791 27.3226 82.2439 27.3576 82.3177C27.3888 82.3825 27.4056 82.4564 27.4056 82.5328Z" fill="white"/>
<path d="M53.8041 70.0248V100.734C53.8041 100.928 53.6925 101.104 53.5175 101.187L27.1416 113.682L27.1143 113.695C27.1143 113.695 27.1143 113.696 27.1117 113.696C27.0962 113.703 27.0819 113.709 27.0663 113.715C27.0637 113.716 27.0624 113.716 27.0611 113.716C27.0443 113.722 27.0287 113.728 27.0119 113.73C26.9976 113.734 26.982 113.738 26.9678 113.739C26.9457 113.743 26.9224 113.744 26.899 113.744C26.877 113.744 26.8536 113.743 26.8316 113.739C26.816 113.738 26.8005 113.734 26.7849 113.73C26.7693 113.726 26.7538 113.722 26.7382 113.716C26.7382 113.717 26.7343 113.716 26.733 113.715C26.7175 113.709 26.7032 113.703 26.6876 113.696L26.685 113.695C26.676 113.691 26.6669 113.686 26.6578 113.682C26.6487 113.677 26.6397 113.672 26.6319 113.667C26.4866 113.575 26.3984 113.414 26.3984 113.243V82.5328C26.3984 82.4564 26.4153 82.3825 26.4464 82.3177C26.4814 82.2439 26.5346 82.1791 26.5995 82.1312C26.6838 82.0677 26.7875 82.0314 26.899 82.0314C27.0106 82.0314 27.1156 82.0677 27.1999 82.1312C27.2648 82.1791 27.3179 82.2439 27.3529 82.3177C27.3841 82.3825 27.4009 82.4564 27.4009 82.5328V112.45L52.8003 100.416V70.0248C52.8003 70.0171 52.8003 70.0093 52.8016 70.0015C52.8081 69.846 52.8859 69.7087 53.0026 69.6219C53.0869 69.5597 53.1906 69.5234 53.3022 69.5234C53.5797 69.5234 53.8041 69.7476 53.8041 70.0248Z" fill="white"/>
<path d="M26.894 57.2578L0.492188 69.7671L26.894 82.2763L53.2972 69.7671L26.894 57.2578Z" fill="#0058FF"/>
<path d="M136.88 113.746C136.806 113.746 136.734 113.73 136.665 113.698L110.263 101.189C110.088 101.106 109.977 100.929 109.977 100.735V70.0248C109.977 69.7476 110.201 69.5234 110.478 69.5234C110.756 69.5234 110.98 69.7476 110.98 70.0248V100.418L136.38 112.451V82.5341C136.38 82.2568 136.604 82.0327 136.882 82.0327C137.159 82.0327 137.383 82.2568 137.383 82.5341V113.244C137.383 113.417 137.295 113.576 137.15 113.668C137.068 113.72 136.975 113.746 136.882 113.746H136.88Z" fill="white"/>
<path d="M136.877 113.746C136.784 113.746 136.69 113.72 136.608 113.668C136.463 113.576 136.375 113.417 136.375 113.244V82.5341C136.375 82.2568 136.599 82.0327 136.877 82.0327C137.154 82.0327 137.379 82.2568 137.379 82.5341V112.451L162.778 100.418V70.0248C162.778 69.7476 163.002 69.5234 163.28 69.5234C163.558 69.5234 163.782 69.7476 163.782 70.0248V100.735C163.782 100.928 163.67 101.106 163.495 101.189L137.092 113.698C137.023 113.73 136.951 113.746 136.877 113.746Z" fill="white"/>
<path d="M136.88 57.2578L110.477 69.7671L136.88 82.2763L163.283 69.7671L136.88 57.2578Z" fill="#0058FF"/>
<path d="M503.381 142.403V136.388C503.381 136.111 503.157 135.886 502.879 135.886C502.602 135.886 502.378 136.111 502.378 136.388V142.403C502.378 142.551 502.442 142.685 502.545 142.777H496.858C496.581 142.777 496.356 143.001 496.356 143.278C496.356 143.555 496.581 143.779 496.858 143.779H502.879C503.157 143.779 503.381 143.555 503.381 143.278C503.381 143.09 503.278 142.927 503.125 142.84C503.278 142.755 503.381 142.591 503.381 142.403ZM490.837 142.777H484.815C484.538 142.777 484.313 143.001 484.313 143.278C484.313 143.555 484.538 143.779 484.815 143.779H490.837C491.114 143.779 491.339 143.555 491.339 143.278C491.339 143.001 491.114 142.777 490.837 142.777ZM478.794 142.777H473.791V143.779H478.794C479.071 143.779 479.296 143.555 479.296 143.278C479.296 143.001 479.071 142.777 478.794 142.777ZM448.186 143.278C448.186 143.444 448.267 143.591 448.391 143.682V142.874C448.267 142.964 448.186 143.112 448.186 143.278ZM418.581 142.777H412.56C412.282 142.777 412.058 143.001 412.058 143.278C412.058 143.555 412.282 143.779 412.56 143.779H418.581C418.859 143.779 419.083 143.555 419.083 143.278C419.083 143.001 418.859 142.777 418.581 142.777ZM406.538 142.777H400.517C400.241 142.777 400.015 143.001 400.015 143.278C400.015 143.555 400.241 143.779 400.517 143.779H406.538C406.816 143.779 407.04 143.555 407.04 143.278C407.04 143.001 406.816 142.777 406.538 142.777ZM394.497 142.777H393.401V138.857C393.401 138.581 393.177 138.356 392.899 138.356C392.622 138.356 392.398 138.581 392.398 138.857V143.278C392.398 143.555 392.623 143.779 392.899 143.779H394.497C394.773 143.779 394.997 143.555 394.997 143.278C394.997 143.001 394.773 142.777 394.497 142.777ZM392.899 126.325C392.623 126.325 392.398 126.55 392.398 126.826V132.842C392.398 133.119 392.623 133.343 392.899 133.343C393.175 133.343 393.401 133.119 393.401 132.842V126.826C393.401 126.55 393.177 126.325 392.899 126.325ZM502.879 123.855C502.602 123.855 502.378 124.079 502.378 124.357V130.372C502.378 130.648 502.602 130.874 502.879 130.874C503.157 130.874 503.381 130.648 503.381 130.372V124.357C503.381 124.079 503.157 123.855 502.879 123.855ZM392.899 114.295C392.623 114.295 392.398 114.519 392.398 114.796V120.812C392.398 121.088 392.623 121.312 392.899 121.312C393.175 121.312 393.401 121.088 393.401 120.812V114.796C393.401 114.519 393.177 114.295 392.899 114.295ZM502.879 99.7929C502.602 99.7929 502.378 100.017 502.378 100.294V106.31C502.378 106.587 502.602 106.811 502.879 106.811C503.157 106.811 503.381 106.587 503.381 106.31V100.294C503.381 100.017 503.157 99.7929 502.879 99.7929ZM502.879 99.7929C502.602 99.7929 502.378 100.017 502.378 100.294V106.31C502.378 106.587 502.602 106.811 502.879 106.811C503.157 106.811 503.381 106.587 503.381 106.31V100.294C503.381 100.017 503.157 99.7929 502.879 99.7929ZM502.879 111.824C502.602 111.824 502.378 112.048 502.378 112.325V118.341C502.378 118.617 502.602 118.842 502.879 118.842C503.157 118.842 503.381 118.617 503.381 118.341V112.325C503.381 112.048 503.157 111.824 502.879 111.824ZM502.879 99.7929C502.602 99.7929 502.378 100.017 502.378 100.294V106.31C502.378 106.587 502.602 106.811 502.879 106.811C503.157 106.811 503.381 106.587 503.381 106.31V100.294C503.381 100.017 503.157 99.7929 502.879 99.7929ZM502.879 99.7929C502.602 99.7929 502.378 100.017 502.378 100.294V106.31C502.378 106.587 502.602 106.811 502.879 106.811C503.157 106.811 503.381 106.587 503.381 106.31V100.294C503.381 100.017 503.157 99.7929 502.879 99.7929ZM392.899 90.2325C392.623 90.2325 392.398 90.4566 392.398 90.7339V96.7495C392.398 97.0267 392.623 97.2509 392.899 97.2509C393.175 97.2509 393.401 97.0267 393.401 96.7495V90.7339C393.401 90.4566 393.177 90.2325 392.899 90.2325ZM392.899 90.2325C392.623 90.2325 392.398 90.4566 392.398 90.7339V96.7495C392.398 97.0267 392.623 97.2509 392.899 97.2509C393.175 97.2509 393.401 97.0267 393.401 96.7495V90.7339C393.401 90.4566 393.177 90.2325 392.899 90.2325ZM392.899 102.264C392.623 102.264 392.398 102.488 392.398 102.765V108.781C392.398 109.057 392.623 109.282 392.899 109.282C393.175 109.282 393.401 109.057 393.401 108.781V102.765C393.401 102.488 393.177 102.264 392.899 102.264ZM392.899 90.2325C392.623 90.2325 392.398 90.4566 392.398 90.7339V96.7495C392.398 97.0267 392.623 97.2509 392.899 97.2509C393.175 97.2509 393.401 97.0267 393.401 96.7495V90.7339C393.401 90.4566 393.177 90.2325 392.899 90.2325ZM392.899 90.2325C392.623 90.2325 392.398 90.4566 392.398 90.7339V96.7495C392.398 97.0267 392.623 97.2509 392.899 97.2509C393.175 97.2509 393.401 97.0267 393.401 96.7495V90.7339C393.401 90.4566 393.177 90.2325 392.899 90.2325ZM502.879 99.7929C502.602 99.7929 502.378 100.017 502.378 100.294V106.31C502.378 106.587 502.602 106.811 502.879 106.811C503.157 106.811 503.381 106.587 503.381 106.31V100.294C503.381 100.017 503.157 99.7929 502.879 99.7929ZM392.899 90.2325C392.623 90.2325 392.398 90.4566 392.398 90.7339V96.7495C392.398 97.0267 392.623 97.2509 392.899 97.2509C393.175 97.2509 393.401 97.0267 393.401 96.7495V90.7339C393.401 90.4566 393.177 90.2325 392.899 90.2325ZM502.879 87.7617C502.602 87.7617 502.378 87.9872 502.378 88.2631V94.2787C502.378 94.556 502.602 94.7801 502.879 94.7801C503.157 94.7801 503.381 94.556 503.381 94.2787V88.2631C503.381 87.9872 503.157 87.7617 502.879 87.7617ZM392.899 78.2013C392.623 78.2013 392.398 78.4254 392.398 78.7027V84.7183C392.398 84.9956 392.623 85.2197 392.899 85.2197C393.175 85.2197 393.401 84.9956 393.401 84.7183V78.7027C393.401 78.4254 393.177 78.2013 392.899 78.2013ZM502.879 75.7318C502.602 75.7318 502.378 75.956 502.378 76.232V82.2475C502.378 82.2981 502.385 82.346 502.398 82.3914C502.461 82.5987 502.653 82.749 502.879 82.749C503.106 82.749 503.298 82.5987 503.361 82.3914C503.374 82.346 503.381 82.2981 503.381 82.2475V76.232C503.381 75.956 503.157 75.7318 502.879 75.7318ZM392.899 66.1701C392.623 66.1701 392.398 66.3956 392.398 66.6715V72.6871C392.398 72.9644 392.623 73.1885 392.899 73.1885C393.175 73.1885 393.401 72.9644 393.401 72.6871V66.6715C393.401 66.3956 393.177 66.1701 392.899 66.1701ZM502.879 63.7007C502.602 63.7007 502.378 63.9248 502.378 64.2021V70.2177C502.378 70.4936 502.602 70.7191 502.879 70.7191C503.157 70.7191 503.381 70.4936 503.381 70.2177V64.2021C503.381 63.9248 503.157 63.7007 502.879 63.7007ZM392.899 54.1403C392.623 54.1403 392.398 54.3644 392.398 54.6417V60.656C392.398 60.9332 392.623 61.1574 392.899 61.1574C393.175 61.1574 393.401 60.9332 393.401 60.656V54.6417C393.401 54.3644 393.177 54.1403 392.899 54.1403ZM502.879 51.6695C502.602 51.6695 502.378 51.8937 502.378 52.1709V58.1865C502.378 58.4625 502.602 58.6879 502.879 58.6879C503.157 58.6879 503.381 58.4625 503.381 58.1865V52.1709C503.381 51.8937 503.157 51.6695 502.879 51.6695ZM392.899 42.1091C392.623 42.1091 392.398 42.3332 392.398 42.6105V48.6261C392.398 48.9021 392.623 49.1275 392.899 49.1275C393.175 49.1275 393.401 48.9021 393.401 48.6261V42.6105C393.401 42.3332 393.177 42.1091 392.899 42.1091ZM502.879 39.6383C502.602 39.6383 502.378 39.8625 502.378 40.1397V46.1553C502.378 46.4326 502.602 46.6567 502.879 46.6567C503.157 46.6567 503.381 46.4326 503.381 46.1553V40.1397C503.381 39.8625 503.157 39.6383 502.879 39.6383ZM395.472 32.6484H392.899C392.623 32.6484 392.398 32.8726 392.398 33.1498V36.5949C392.398 36.8709 392.623 37.0963 392.899 37.0963C393.175 37.0963 393.401 36.8709 393.401 36.5949V33.65H395.472C395.75 33.65 395.974 33.4258 395.974 33.1498C395.974 32.8739 395.75 32.6484 395.472 32.6484ZM502.879 32.6484H497.835C497.557 32.6484 497.333 32.8726 497.333 33.1498C497.333 33.4271 497.557 33.65 497.835 33.65H502.378V34.1242C502.378 34.4014 502.602 34.6256 502.879 34.6256C503.157 34.6256 503.381 34.4014 503.381 34.1242V33.1498C503.381 32.8726 503.157 32.6484 502.879 32.6484ZM491.813 32.6484H485.792C485.514 32.6484 485.29 32.8726 485.29 33.1498C485.29 33.4271 485.514 33.65 485.792 33.65H491.813C492.091 33.65 492.315 33.4258 492.315 33.1498C492.315 32.8739 492.091 32.6484 491.813 32.6484ZM479.77 32.6484H473.749C473.471 32.6484 473.247 32.8726 473.247 33.1498C473.247 33.4271 473.471 33.65 473.749 33.65H479.77C480.048 33.65 480.272 33.4258 480.272 33.1498C480.272 32.8739 480.048 32.6484 479.77 32.6484ZM419.558 32.6484H413.536C413.259 32.6484 413.034 32.8726 413.034 33.1498C413.034 33.4271 413.259 33.65 413.536 33.65H419.558C419.835 33.65 420.06 33.4258 420.06 33.1498C420.06 32.8739 419.835 32.6484 419.558 32.6484ZM407.515 32.6484H401.493C401.216 32.6484 400.992 32.8726 400.992 33.1498C400.992 33.4271 401.216 33.65 401.493 33.65H407.515C407.792 33.65 408.017 33.4258 408.017 33.1498C408.017 32.8739 407.792 32.6484 407.515 32.6484Z" fill="#0058FF"/>
<path d="M447.894 26.2736V56.9838L447.392 56.7454L421.492 44.4745V13.7656L421.994 14.004V44.1571L447.392 56.1909V26.2736C447.392 26.1971 447.409 26.1233 447.44 26.0585L447.894 26.2736Z" fill="white"/>
<path d="M448.39 26.2828V56.993C448.39 57.164 448.302 57.3247 448.157 57.4167C448.147 57.4219 448.14 57.427 448.131 57.4322L448.103 57.4452C448.103 57.4452 448.102 57.4465 448.101 57.4465C448.085 57.4529 448.071 57.4594 448.055 57.4646C448.053 57.4659 448.052 57.4659 448.05 57.4659C448.033 57.4724 448.018 57.4776 448.001 57.4802C447.987 57.484 447.971 57.4879 447.957 57.4892C447.934 57.4931 447.911 57.4944 447.888 57.4944C447.865 57.4944 447.843 57.4931 447.819 57.4892C447.805 57.4892 447.79 57.484 447.775 57.4802C447.758 57.4776 447.743 57.4724 447.726 57.4659C447.723 57.4659 447.722 57.4659 447.721 57.4646C447.705 57.4594 447.691 57.4529 447.675 57.4465C447.674 57.4465 447.673 57.4452 447.673 57.4452C447.664 57.4413 447.655 57.4374 447.646 57.4322L421.271 44.9372C421.096 44.8543 420.984 44.6781 420.984 44.4837V13.7748C420.984 13.4976 421.209 13.2734 421.486 13.2734C421.598 13.2734 421.702 13.3097 421.786 13.3719C421.903 13.4587 421.98 13.596 421.987 13.7515C421.988 13.7593 421.988 13.7671 421.988 13.7748V44.1663L447.386 56.2001V26.2828C447.386 26.2064 447.403 26.1325 447.434 26.0677C447.469 25.9939 447.522 25.9291 447.587 25.8812C447.672 25.8177 447.775 25.7814 447.888 25.7814C448.001 25.7814 448.105 25.8177 448.189 25.8812C448.254 25.9291 448.307 25.9939 448.342 26.0677C448.373 26.1325 448.39 26.2064 448.39 26.2828Z" fill="white"/>
<path d="M474.294 13.7656V44.4745L448.393 56.7454L447.891 56.9838V26.2736L448.345 26.0585C448.376 26.1233 448.393 26.1971 448.393 26.2736V56.1909L473.792 44.1571V14.004L474.294 13.7656Z" fill="white"/>
<path d="M474.798 13.7748V44.4837C474.798 44.6781 474.686 44.8543 474.511 44.9372L448.135 57.4322L448.108 57.4452C448.108 57.4452 448.107 57.4465 448.105 57.4465C448.09 57.4529 448.075 57.4594 448.06 57.4646C448.057 57.4659 448.056 57.4659 448.055 57.4659C448.038 57.4724 448.022 57.4776 448.005 57.4802C447.991 57.484 447.976 57.4879 447.961 57.4892C447.938 57.4931 447.916 57.4944 447.893 57.4944C447.869 57.4944 447.847 57.4931 447.824 57.4892C447.81 57.4892 447.794 57.484 447.78 57.4802C447.763 57.4776 447.747 57.4724 447.73 57.4659C447.728 57.4659 447.727 57.4659 447.725 57.4646C447.71 57.4594 447.695 57.4529 447.68 57.4465C447.679 57.4465 447.677 57.4452 447.677 57.4452C447.668 57.4413 447.659 57.4374 447.65 57.4322C447.641 57.427 447.633 57.4219 447.624 57.4167C447.479 57.3247 447.391 57.164 447.391 56.993V26.2828C447.391 26.2064 447.407 26.1325 447.439 26.0677C447.474 25.9939 447.527 25.9291 447.592 25.8812C447.676 25.8177 447.78 25.7814 447.893 25.7814C448.005 25.7814 448.109 25.8177 448.193 25.8812C448.258 25.9291 448.311 25.9939 448.346 26.0677C448.378 26.1325 448.394 26.2064 448.394 26.2828V56.2001L473.794 44.1663V13.7748C473.794 13.7671 473.794 13.7593 473.795 13.7515C473.802 13.596 473.879 13.4587 473.996 13.3719C474.08 13.3097 474.184 13.2734 474.296 13.2734C474.573 13.2734 474.798 13.4976 474.798 13.7748Z" fill="white"/>
<path d="M474.297 13.5093L473.797 13.7464L448.195 25.876L447.894 26.0185L447.593 25.876L421.993 13.7464L421.492 13.5093L421.792 13.3667L447.894 1L473.998 13.3667L474.297 13.5093Z" fill="#0058FF"/>
<path d="M447.894 138.791V169.501L447.392 169.262L421.492 156.991V126.281L421.994 126.52V156.674L447.392 168.708V138.791C447.392 138.714 447.409 138.64 447.44 138.575L447.894 138.791Z" fill="white"/>
<path d="M448.39 138.783V169.493C448.39 169.664 448.302 169.825 448.157 169.917C448.14 169.927 448.122 169.936 448.103 169.945C448.102 169.945 448.102 169.946 448.101 169.946C448.09 169.95 448.081 169.956 448.071 169.958C448.061 169.963 448.05 169.967 448.039 169.97C448.032 169.972 448.026 169.975 448.018 169.976C447.998 169.981 447.978 169.985 447.958 169.988C447.935 169.992 447.911 169.993 447.888 169.993C447.865 169.993 447.841 169.992 447.818 169.988C447.799 169.985 447.778 169.981 447.758 169.976C447.752 169.976 447.745 169.972 447.739 169.97C447.727 169.967 447.716 169.963 447.705 169.958C447.695 169.956 447.686 169.95 447.675 169.946C447.674 169.946 447.673 169.945 447.673 169.945L421.271 157.437C421.096 157.354 420.984 157.177 420.984 156.984V126.274C420.984 125.998 421.209 125.773 421.486 125.773C421.598 125.773 421.702 125.81 421.786 125.872C421.903 125.959 421.98 126.096 421.987 126.252C421.988 126.259 421.988 126.266 421.988 126.274V156.666L447.386 168.7V138.783C447.386 138.706 447.403 138.633 447.434 138.568C447.469 138.493 447.524 138.429 447.589 138.38C447.673 138.318 447.777 138.281 447.888 138.281C448 138.281 448.103 138.318 448.188 138.38C448.253 138.429 448.307 138.493 448.342 138.568C448.373 138.633 448.39 138.706 448.39 138.783Z" fill="white"/>
<path d="M474.294 126.281V156.991L448.393 169.262L447.891 169.501V138.791L448.345 138.575C448.376 138.64 448.393 138.714 448.393 138.791V168.708L473.792 156.674V126.52L474.294 126.281Z" fill="white"/>
<path d="M474.798 126.274V156.984C474.798 157.177 474.686 157.354 474.511 157.437L448.108 169.945C448.108 169.945 448.107 169.946 448.105 169.946C448.095 169.95 448.086 169.956 448.075 169.958C448.065 169.963 448.055 169.967 448.043 169.97C448.036 169.972 448.03 169.975 448.022 169.976C448.003 169.981 447.982 169.985 447.963 169.988C447.939 169.992 447.916 169.993 447.893 169.993C447.869 169.993 447.846 169.992 447.822 169.988C447.803 169.985 447.782 169.981 447.763 169.976C447.756 169.976 447.75 169.972 447.743 169.97C447.732 169.967 447.72 169.963 447.71 169.958C447.699 169.956 447.69 169.95 447.68 169.946C447.679 169.946 447.677 169.945 447.677 169.945C447.659 169.936 447.641 169.927 447.624 169.917C447.479 169.825 447.391 169.664 447.391 169.493V138.783C447.391 138.706 447.407 138.633 447.439 138.568C447.474 138.493 447.528 138.429 447.593 138.38C447.677 138.318 447.781 138.281 447.893 138.281C448.004 138.281 448.108 138.318 448.192 138.38C448.257 138.429 448.311 138.493 448.346 138.568C448.378 138.633 448.394 138.706 448.394 138.783V168.7L473.794 156.666V126.274C473.794 126.266 473.794 126.259 473.795 126.252C473.802 126.096 473.879 125.959 473.996 125.872C474.08 125.81 474.184 125.773 474.296 125.773C474.573 125.773 474.798 125.998 474.798 126.274Z" fill="white"/>
<path d="M474.297 126.017L473.797 126.254L448.194 138.383L447.894 138.525L447.594 138.383L421.993 126.254L421.492 126.017L421.792 125.875L447.894 113.508L473.998 125.875L474.297 126.017Z" fill="#0058FF"/>
<path d="M392.894 82.5314V113.242L392.393 113.004L366.492 100.732V70.0234L366.994 70.2618V100.415L392.393 112.449V82.5314C392.393 82.455 392.41 82.3811 392.441 82.3163L392.894 82.5314Z" fill="white"/>
<path d="M419.302 70.0234V100.732L393.4 113.003L392.898 113.242V82.5314L393.352 82.3163C393.383 82.3811 393.4 82.455 393.4 82.5314V112.449L418.8 100.415V70.2618L419.302 70.0234Z" fill="white"/>
<path d="M393.406 82.5328V113.243C393.406 113.414 393.317 113.575 393.172 113.667C393.163 113.672 393.155 113.677 393.146 113.682L393.119 113.695C393.119 113.695 393.119 113.696 393.116 113.696C393.101 113.703 393.087 113.709 393.071 113.715C393.068 113.716 393.067 113.716 393.066 113.716C393.049 113.722 393.033 113.728 393.017 113.73C393.002 113.734 392.987 113.738 392.972 113.739C392.95 113.743 392.927 113.744 392.904 113.744C392.882 113.744 392.858 113.743 392.836 113.739C392.821 113.738 392.805 113.734 392.79 113.73C392.774 113.726 392.758 113.722 392.743 113.716C392.743 113.717 392.739 113.716 392.738 113.715C392.722 113.709 392.708 113.703 392.692 113.696L392.69 113.695C392.681 113.691 392.672 113.686 392.663 113.682L366.287 101.187C366.112 101.104 366 100.928 366 100.734V70.0248C366 69.7476 366.224 69.5234 366.502 69.5234C366.613 69.5234 366.717 69.5597 366.801 69.6219C366.918 69.7087 366.996 69.846 367.002 70.0015C367.004 70.0093 367.004 70.0171 367.004 70.0248V100.416L392.403 112.45V82.5328C392.403 82.4564 392.42 82.3825 392.451 82.3177C392.486 82.2439 392.539 82.1791 392.604 82.1312C392.688 82.0677 392.792 82.0314 392.904 82.0314C393.015 82.0314 393.12 82.0677 393.205 82.1312C393.269 82.1791 393.323 82.2439 393.358 82.3177C393.389 82.3825 393.406 82.4564 393.406 82.5328Z" fill="white"/>
<path d="M419.804 70.0248V100.734C419.804 100.928 419.693 101.104 419.517 101.187L393.142 113.682L393.114 113.695C393.114 113.695 393.114 113.696 393.112 113.696C393.096 113.703 393.082 113.709 393.066 113.715C393.064 113.716 393.062 113.716 393.061 113.716C393.044 113.722 393.029 113.728 393.012 113.73C392.998 113.734 392.982 113.738 392.968 113.739C392.946 113.743 392.922 113.744 392.899 113.744C392.877 113.744 392.854 113.743 392.832 113.739C392.816 113.738 392.8 113.734 392.785 113.73C392.769 113.726 392.754 113.722 392.738 113.716C392.738 113.717 392.734 113.716 392.733 113.715C392.717 113.709 392.703 113.703 392.688 113.696L392.685 113.695C392.676 113.691 392.667 113.686 392.658 113.682C392.649 113.677 392.64 113.672 392.632 113.667C392.487 113.575 392.398 113.414 392.398 113.243V82.5328C392.398 82.4564 392.415 82.3825 392.446 82.3177C392.481 82.2439 392.535 82.1791 392.599 82.1312C392.684 82.0677 392.788 82.0314 392.899 82.0314C393.011 82.0314 393.116 82.0677 393.2 82.1312C393.265 82.1791 393.318 82.2439 393.353 82.3177C393.384 82.3825 393.401 82.4564 393.401 82.5328V112.45L418.8 100.416V70.0248C418.8 70.0171 418.8 70.0093 418.802 70.0015C418.808 69.846 418.886 69.7087 419.003 69.6219C419.087 69.5597 419.191 69.5234 419.302 69.5234C419.58 69.5234 419.804 69.7476 419.804 70.0248Z" fill="white"/>
<path d="M392.894 57.2578L366.492 69.7671L392.894 82.2763L419.297 69.7671L392.894 57.2578Z" fill="#0058FF"/>
<path d="M502.88 113.746C502.806 113.746 502.734 113.73 502.665 113.698L476.263 101.189C476.088 101.106 475.977 100.929 475.977 100.735V70.0248C475.977 69.7476 476.201 69.5234 476.478 69.5234C476.756 69.5234 476.98 69.7476 476.98 70.0248V100.418L502.38 112.451V82.5341C502.38 82.2568 502.604 82.0327 502.882 82.0327C503.159 82.0327 503.383 82.2568 503.383 82.5341V113.244C503.383 113.417 503.295 113.576 503.15 113.668C503.068 113.72 502.975 113.746 502.882 113.746H502.88Z" fill="white"/>
<path d="M502.877 113.746C502.784 113.746 502.69 113.72 502.608 113.668C502.463 113.576 502.375 113.417 502.375 113.244V82.5341C502.375 82.2568 502.599 82.0327 502.877 82.0327C503.154 82.0327 503.379 82.2568 503.379 82.5341V112.451L528.778 100.418V70.0248C528.778 69.7476 529.002 69.5234 529.28 69.5234C529.558 69.5234 529.782 69.7476 529.782 70.0248V100.735C529.782 100.928 529.67 101.106 529.495 101.189L503.092 113.698C503.023 113.73 502.951 113.746 502.877 113.746Z" fill="white"/>
<path d="M502.88 57.2578L476.477 69.7671L502.88 82.2763L529.283 69.7671L502.88 57.2578Z" fill="#0058FF"/>
</svg>
