<svg width="813" height="193" viewBox="0 0 813 193" fill="none" xmlns="http://www.w3.org/2000/svg">
<g clip-path="url(#clip0_10098_137521)">
<path d="M4.97176 174.744C6.31826 174.726 7.48855 174.239 8.47356 173.277C9.30044 172.42 9.77038 171.426 9.88332 170.302L26.7147 170.302C26.8592 172.677 27.763 174.726 29.4529 176.455C31.3371 178.261 33.5557 179.173 36.1176 179.191C38.6931 179.15 40.8982 178.23 42.7372 176.442C44.4316 174.699 45.3353 172.65 45.4708 170.307L80.5704 170.307C80.5704 170.307 80.5839 170.307 80.5884 170.302C80.62 170.302 80.6472 170.311 80.6833 170.307C86.9143 170.289 91.5412 168.668 94.5867 165.445C96.1862 163.752 97.3339 161.59 98.0433 158.971C98.4951 157.297 98.7663 155.455 98.8521 153.46C98.8747 152.76 98.8838 152.286 98.8747 152.038C98.8747 152.038 98.8747 152.029 98.8747 152.024L98.8747 134.725C101.211 134.59 103.258 133.696 104.997 132.012C106.814 130.148 107.74 127.931 107.772 125.372C107.753 122.812 106.841 120.595 105.033 118.722C103.285 117.016 101.229 116.108 98.8747 115.973C98.8747 115.711 98.8611 115.381 98.8476 114.975C98.7617 112.975 98.4906 111.138 98.0342 109.463C97.3203 106.84 96.1546 104.687 94.5505 103.008C91.5186 99.7935 86.8691 98.1819 80.6065 98.1729C80.5749 98.1729 80.5478 98.1819 80.5207 98.1864C77.0595 98.1593 74.1541 97.6402 71.8045 96.6425C70.0559 95.8976 68.5828 94.891 67.3809 93.6224C66.0932 92.2591 65.1126 90.6114 64.4349 88.6657C63.7255 86.6298 63.3459 84.2101 63.2917 81.4248L80.5704 81.4248C80.5704 81.4248 80.593 81.4158 80.6065 81.4158L98.3551 81.4248L98.3641 81.4248C98.3641 81.4248 98.3867 81.4158 98.4003 81.4158L115.67 81.4248C115.805 83.7632 116.705 85.8172 118.394 87.5507C120.261 89.3654 122.488 90.2864 125.05 90.3134C127.617 90.2864 129.831 89.3654 131.706 87.5507C133.4 85.8127 134.3 83.7542 134.435 81.4158C140.445 81.3345 144.954 79.7319 147.941 76.59C149.536 74.8971 150.702 72.7438 151.425 70.13C151.876 68.4642 152.148 66.6134 152.233 64.5819C152.247 64.1892 152.251 63.8687 152.256 63.6159C153.395 63.494 154.389 63.02 155.256 62.1848C156.214 61.2052 156.702 60.0315 156.707 58.6862C156.698 57.332 156.214 56.1627 155.256 55.1786C154.267 54.2261 153.101 53.7386 151.745 53.7205C150.399 53.7386 149.224 54.2261 148.235 55.1786C147.277 56.1627 146.793 57.3319 146.784 58.6772C146.793 60.0315 147.277 61.2007 148.235 62.1848C149.098 63.0155 150.092 63.494 151.23 63.6113C151.176 66.4057 150.801 68.8344 150.083 70.8794C149.405 72.825 148.424 74.4728 147.141 75.8361C145.939 77.1046 144.466 78.1113 142.717 78.8561C140.472 79.8132 137.706 80.3233 134.435 80.3865C134.3 78.0436 133.4 75.9941 131.706 74.2561C129.831 72.4413 127.617 71.5204 125.05 71.4933C122.488 71.5204 120.274 72.4413 118.394 74.2561C116.709 75.9941 115.805 78.0391 115.665 80.3865L80.5839 80.3865C80.5839 80.3865 80.5749 80.3865 80.5659 80.3865C80.5659 80.3865 80.5613 80.3865 80.5523 80.3865L63.2827 80.3865L63.2827 63.1373C63.2827 63.1373 63.2782 63.1193 63.2782 63.1057C63.2962 60.1037 63.6757 57.5261 64.4304 55.3682C65.1081 53.4226 66.0886 51.7748 67.3673 50.4206C68.6009 49.1159 70.0875 48.1137 71.8316 47.3824C74.0863 46.4254 76.8381 45.9243 80.0778 45.8566C80.2089 48.1769 81.099 50.2129 82.7618 51.9554C84.6325 53.7792 86.8375 54.7091 89.3994 54.7498C91.9614 54.7407 94.1845 53.8289 96.0732 52.0322C97.7857 50.2896 98.7075 48.2266 98.843 45.8611L133.943 45.8611C133.943 45.8611 133.956 45.8566 133.965 45.8521C133.979 45.8521 133.988 45.8566 134.001 45.8611C140.268 45.843 144.913 44.2269 147.941 41.0082C149.545 39.3063 150.702 37.162 151.406 34.5753C151.858 32.9412 152.129 31.1129 152.215 29.1085C152.251 28.2598 152.256 27.7407 152.242 27.5285C152.265 24.5355 152.645 21.9624 153.395 19.8136C154.072 17.8679 155.057 16.2202 156.332 14.8659C157.402 13.7373 158.663 12.83 160.118 12.1302L160.118 18.7121C160.118 18.7121 160.118 18.7121 160.118 18.7166C160.118 19.8091 160.217 20.8158 160.412 21.7231C160.742 23.2309 161.343 24.4859 162.219 25.4655C163.783 27.208 166.218 28.0838 169.517 28.0838L187.319 28.0838C187.319 28.0838 187.319 28.0838 187.328 28.0838C187.333 28.0838 187.342 28.0838 187.346 28.0838L205.113 28.0838C205.113 28.0838 205.149 28.0748 205.167 28.0702C208.665 28.1018 211.584 28.621 213.911 29.6277C215.659 30.377 217.128 31.3928 218.325 32.6568C219.586 33.993 220.557 35.6362 221.249 37.5864C222.003 39.7487 222.383 42.34 222.401 45.342C222.387 48.344 222.003 50.9352 221.249 53.0975C220.571 55.0432 219.586 56.6909 218.302 58.0542C217.105 59.3228 215.628 60.3294 213.883 61.0743C211.633 62.0313 208.868 62.5415 205.601 62.6047C205.461 60.2482 204.557 58.1942 202.849 56.4471C200.974 54.6414 198.747 53.7295 196.185 53.7115C193.623 53.7476 191.404 54.6775 189.538 56.4923C187.861 58.2348 186.971 60.2753 186.84 62.6092C180.79 62.6995 176.29 64.3066 173.344 67.435C171.735 69.1278 170.574 71.2811 169.86 73.8949C169.408 75.5201 169.137 77.3574 169.051 79.4069C169.024 80.1247 169.01 80.6122 169.019 80.8831C169.019 80.8831 169.019 80.8876 169.019 80.8921L169.019 98.1548L151.754 98.1548L151.745 98.1548C151.745 98.1548 151.745 98.1548 151.741 98.1548C145.487 98.1548 140.82 99.7619 137.752 102.99C136.152 104.682 134.991 106.836 134.268 109.459C133.816 111.115 133.545 112.962 133.459 115.007C133.441 115.702 133.427 116.171 133.437 116.424C133.437 116.424 133.437 116.424 133.437 116.429L133.437 133.741C131.091 133.876 129.045 134.779 127.291 136.463C125.475 138.337 124.562 140.553 124.54 143.113C124.567 145.672 125.479 147.898 127.291 149.762C129.031 151.455 131.087 152.358 133.437 152.493L133.437 169.792C133.437 169.792 133.441 169.81 133.441 169.815C133.423 172.803 133.039 175.381 132.289 177.534C131.607 179.48 130.626 181.128 129.343 182.491C128.141 183.755 126.668 184.766 124.919 185.511C122.574 186.509 119.673 187.023 116.217 187.05C116.203 187.05 116.194 187.041 116.176 187.037L81.0493 187.037C80.9363 185.899 80.4574 184.902 79.626 184.048C78.6364 183.091 77.4617 182.608 76.1152 182.59C74.7596 182.608 73.5984 183.091 72.6043 184.048C71.6464 185.028 71.1629 186.202 71.1538 187.547C71.1629 188.901 71.6464 190.075 72.6043 191.055C73.5983 192.012 74.7596 192.495 76.1152 192.513C77.4617 192.495 78.6319 192.012 79.626 191.055C80.4574 190.201 80.9363 189.199 81.0493 188.066L116.153 188.066C122.407 188.075 127.07 186.459 130.138 183.231C131.218 182.089 132.094 180.73 132.777 179.168C132.795 179.168 132.808 179.178 132.826 179.178L133.947 179.178L133.992 179.168L142.83 179.178L142.848 179.178C146.17 179.168 148.601 178.302 150.164 176.559C151.027 175.598 151.623 174.347 151.962 172.835C152.161 171.9 152.256 170.88 152.256 169.761L152.256 160.854C152.256 160.854 152.247 160.831 152.247 160.822C152.279 159.31 152.473 158.037 152.852 157.012C153.155 156.168 153.584 155.45 154.131 154.832C154.841 154.051 155.735 153.469 156.833 153.08C157.362 152.9 157.918 152.76 158.528 152.665C159.138 152.57 159.833 152.525 160.602 152.512C160.62 152.512 160.633 152.516 160.647 152.516L169.024 152.507C169.024 152.764 169.038 153.089 169.056 153.487C169.132 155.482 169.404 157.315 169.864 158.999C170.578 161.612 171.74 163.761 173.339 165.454C176.326 168.601 180.835 170.199 186.845 170.284C186.98 172.627 187.875 174.672 189.57 176.419C191.436 178.234 193.663 179.15 196.225 179.178C198.787 179.15 201.001 178.23 202.881 176.428C204.575 174.681 205.47 172.632 205.61 170.293L258.503 170.293C264.757 170.302 269.425 168.686 272.493 165.459C274.088 163.766 275.253 161.612 275.976 159.003C276.419 157.369 276.69 155.541 276.785 153.491C276.808 152.782 276.817 152.295 276.808 152.028C276.808 152.028 276.808 152.019 276.808 152.015L276.808 134.716C279.153 134.581 281.2 133.678 282.948 131.994C284.765 130.116 285.677 127.904 285.705 125.344C285.686 122.785 284.765 120.564 282.948 118.695C281.2 117.002 279.153 116.099 276.808 115.964L276.808 63.6384L293.598 63.6384C293.743 66.0716 294.705 68.1708 296.495 69.9314C298.415 71.692 300.647 72.5632 303.209 72.5181L303.218 72.5181C305.771 72.4323 307.967 71.4572 309.806 69.6018C311.397 67.8819 312.242 65.8911 312.373 63.6384L329.163 63.6384L329.163 98.6604C329.163 98.6604 329.168 98.6785 329.168 98.692C329.15 101.662 328.77 104.218 328.034 106.362C327.383 108.28 326.43 109.919 325.178 111.273C322.363 114.325 317.994 115.892 312.061 115.973C311.912 115.923 311.708 115.914 311.446 115.946C305.346 116.013 300.796 117.657 297.805 120.884C296.215 122.604 295.085 124.758 294.394 127.344C293.96 128.974 293.698 130.807 293.612 132.856L293.603 134.098C293.603 134.098 293.594 134.111 293.589 134.12C293.571 134.432 293.58 135.023 293.625 135.899C293.72 137.849 293.991 139.641 294.43 141.262C295.135 143.84 296.3 145.984 297.904 147.686C300.891 150.828 305.387 152.439 311.401 152.512C311.546 154.886 312.449 156.94 314.153 158.674C316.028 160.479 318.251 161.391 320.818 161.409C323.38 161.373 325.598 160.448 327.464 158.633C329.141 156.886 330.031 154.85 330.162 152.521L347.468 152.521C353.721 152.521 358.389 150.913 361.457 147.686C363.056 145.993 364.218 143.84 364.931 141.23C365.392 139.565 365.663 137.714 365.749 135.678C365.772 134.969 365.781 134.495 365.772 134.247L365.772 134.238L365.772 116.975L383.055 116.975C383.055 116.975 383.073 116.97 383.082 116.97C383.105 116.97 383.118 116.975 383.141 116.975C389.413 116.948 394.053 115.327 397.076 112.095C398.675 110.402 399.819 108.249 400.533 105.626C400.984 103.969 401.255 102.109 401.332 100.037C401.359 99.3556 401.364 98.9132 401.355 98.701C401.355 98.701 401.355 98.6965 401.355 98.692L401.355 63.6114C403.79 63.4714 405.896 62.5099 407.654 60.7267C409.416 58.8172 410.288 56.5781 410.252 54.0185C410.166 51.4589 409.199 49.2694 407.342 47.4411C405.607 45.8385 403.614 44.9853 401.355 44.8635L401.355 36.9499C402.489 36.8325 403.492 36.363 404.355 35.5234C405.309 34.5438 405.797 33.37 405.806 32.0248C405.797 30.6705 405.309 29.4968 404.355 28.5172C403.366 27.5601 402.2 27.0771 400.844 27.059C399.498 27.0771 398.323 27.5601 397.333 28.5172C396.376 29.4968 395.892 30.6705 395.883 32.0157C395.892 33.37 396.38 34.5438 397.333 35.5234C398.196 36.354 399.191 36.8325 400.329 36.9499L400.329 44.868C397.894 45.0079 395.793 45.9695 394.039 47.7526C392.268 49.6622 391.396 51.9013 391.432 54.4609C391.518 57.0114 392.485 59.2099 394.342 61.0382C396.068 62.6408 398.07 63.485 400.329 63.6114L400.329 80.8831L400.329 98.6604C400.329 98.6604 400.334 98.683 400.334 98.692C400.316 101.667 399.936 104.231 399.2 106.375C398.531 108.321 397.555 109.978 396.281 111.341C395.079 112.619 393.615 113.634 391.866 114.379C389.557 115.39 386.647 115.905 383.141 115.95C383.127 115.95 383.123 115.941 383.109 115.937C383.073 115.928 383.046 115.928 383.028 115.928L365.763 115.928L365.763 99.157C368.108 99.0216 370.155 98.1142 371.908 96.4258C373.724 94.5614 374.637 92.3359 374.66 89.7853C374.633 87.2257 373.72 85.0046 371.908 83.1357C370.159 81.4429 368.108 80.54 365.763 80.4046L365.763 72.491C366.897 72.3736 367.891 71.8996 368.75 71.0735C369.708 70.0894 370.191 68.9292 370.209 67.5749C370.2 66.2296 369.721 65.0559 368.768 64.0673C367.783 63.1058 366.612 62.6182 365.266 62.6002C363.91 62.6092 362.736 63.0922 361.746 64.0402C360.788 65.0288 360.305 66.1935 360.287 67.5478C360.296 68.8931 360.775 70.0668 361.728 71.0554C362.586 71.8996 363.594 72.3781 364.733 72.4955L364.733 80.4091C362.388 80.5445 360.341 81.4474 358.592 83.1312C356.785 85.0092 355.863 87.2212 355.84 89.7808C355.867 92.3404 356.78 94.5524 358.592 96.4303C360.336 98.1232 362.388 99.0261 364.733 99.1615L364.733 115.932L347.481 115.932C347.481 115.932 347.459 115.932 347.45 115.937C347.291 115.932 347.052 115.937 346.718 115.95C343.649 116.072 341.399 117.016 339.958 118.772C339.149 119.751 338.602 120.993 338.3 122.505C338.123 123.381 338.047 124.342 338.047 125.376L338.047 151.482L330.148 151.482C330.008 149.13 329.105 147.072 327.397 145.329C325.558 143.542 323.348 142.63 320.777 142.598C318.215 142.625 315.992 143.533 314.121 145.347C312.427 147.094 311.523 149.144 311.388 151.487C308.116 151.424 305.351 150.909 303.105 149.956C301.361 149.212 299.884 148.205 298.682 146.936C297.412 145.6 296.44 143.97 295.754 142.016C294.99 139.862 294.597 137.262 294.583 134.224C294.601 131.245 294.981 128.685 295.717 126.536C296.382 124.6 297.326 122.979 298.551 121.647C301.352 118.578 305.735 117.011 311.704 116.925C311.839 116.979 312.016 116.988 312.237 116.952C318.414 116.885 322.986 115.241 325.955 112.023C327.537 110.307 328.675 108.149 329.367 105.567C329.809 103.883 330.071 102.042 330.148 100.046L330.157 98.7597C330.157 98.7326 330.171 98.7146 330.175 98.6875L330.175 63.6384L347.454 63.6384C347.454 63.6384 347.468 63.6339 347.477 63.6294C347.499 63.6294 347.517 63.6384 347.544 63.6384C353.771 63.6204 358.411 62.0043 361.452 58.7856C363.056 57.0837 364.213 54.9394 364.918 52.3617C365.37 50.714 365.641 48.8992 365.727 46.9265C365.754 46.1591 365.767 45.6444 365.754 45.3736C365.754 45.3645 365.754 45.3555 365.758 45.3465L365.758 27.5692C365.758 27.5692 365.758 27.5511 365.754 27.5421C365.772 24.5491 366.151 21.9669 366.906 19.8091C367.584 17.8634 368.564 16.2157 369.843 14.8524C371.049 13.5838 372.527 12.5772 374.276 11.8323C376.521 10.8753 379.287 10.3652 382.554 10.3019C382.694 12.6674 383.602 14.726 385.314 16.4685C387.199 18.2742 389.417 19.1771 391.979 19.1951L391.988 19.1951C394.55 19.1545 396.755 18.2246 398.626 16.4008C400.289 14.6673 401.183 12.6313 401.319 10.3065L427.047 10.3065C427.178 11.5389 427.711 12.5997 428.646 13.4755C429.69 14.3784 430.879 14.7937 432.225 14.744C433.581 14.6583 434.719 14.1165 435.655 13.1098C436.558 12.0761 436.983 10.8888 436.924 9.53452C436.848 8.18926 436.296 7.04263 435.298 6.10365C434.272 5.20982 433.093 4.7945 431.737 4.83513C430.363 4.9209 429.216 5.46262 428.29 6.46931C427.562 7.29994 427.151 8.2344 427.047 9.27269L401.319 9.27269C401.183 6.91171 400.27 4.85319 398.558 3.11067C396.705 1.323 394.5 0.420141 391.929 0.384027C389.331 0.42917 387.099 1.3546 385.251 3.16935C383.584 4.91639 382.689 6.95234 382.558 9.2772C376.558 9.35395 372.053 10.961 369.066 14.103C367.457 15.7868 366.292 17.9402 365.582 20.563C365.121 22.2378 364.85 24.0796 364.764 26.0749C364.742 26.7837 364.733 27.2667 364.742 27.5376C364.742 27.5376 364.742 27.5421 364.742 27.5466L364.742 45.3149C364.742 45.3149 364.751 45.3375 364.751 45.351C364.733 48.3575 364.344 50.9442 363.59 53.1066C362.903 55.0613 361.931 56.7 360.671 58.0272C359.473 59.3047 357.996 60.3114 356.247 61.0563C353.938 62.0449 351.042 62.5686 347.581 62.6137C347.553 62.6047 347.522 62.5956 347.49 62.5956L330.184 62.5956L330.184 45.3555C330.184 45.3555 330.184 45.342 330.184 45.3329C330.193 45.0666 330.184 44.5926 330.166 43.8838C330.081 41.884 329.818 40.0557 329.367 38.3719C328.644 35.7581 327.491 33.5958 325.892 31.9074C322.937 28.7609 318.432 27.1403 312.373 27.0545C312.233 24.6845 311.32 22.6215 309.603 20.8654C307.755 19.0868 305.536 18.1839 302.965 18.1568C300.403 18.1929 298.189 19.1094 296.318 20.9331C294.642 22.6757 293.743 24.7116 293.612 27.0455L276.817 27.0455C276.817 26.7882 276.803 26.4632 276.794 26.0704C276.708 24.0751 276.437 22.2332 275.976 20.5584C275.267 17.9356 274.101 15.7868 272.497 14.0985C269.465 10.8888 264.816 9.27268 258.553 9.26366C258.544 9.26366 258.535 9.26366 258.526 9.26366C258.521 9.26366 258.517 9.26366 258.508 9.26366L241.207 9.26365C241.071 6.90267 240.158 4.83964 238.446 3.0926C236.562 1.29591 234.339 0.393048 231.777 0.374991C229.215 0.420134 227.005 1.34557 225.139 3.16934C223.467 4.90284 222.577 6.9433 222.446 9.26365L187.355 9.26365C187.355 9.26365 187.351 9.26365 187.346 9.26365C187.342 9.26365 187.337 9.26365 187.333 9.26365L169.584 9.26365C169.584 9.26365 169.58 9.26365 169.571 9.26365C169.571 9.26365 169.571 9.26365 169.566 9.26365C163.313 9.25462 158.645 10.8707 155.577 14.0985C153.968 15.7823 152.803 17.9356 152.093 20.5584C151.632 22.2332 151.361 24.0751 151.284 26.0704C151.253 26.8514 151.239 27.3615 151.253 27.6098C151.23 30.6253 150.842 33.203 150.092 35.3338C149.405 37.2884 148.433 38.9271 147.173 40.2543C145.966 41.5319 144.498 42.5341 142.745 43.2834C140.427 44.2856 137.526 44.8002 134.051 44.8409C134.015 44.8364 133.983 44.8228 133.943 44.8228L98.8702 44.8228C98.7346 42.5025 97.849 40.471 96.1772 38.7285C94.3201 36.9047 92.1015 35.9748 89.5486 35.9342C86.9866 35.9432 84.7635 36.8551 82.8793 38.6518C81.1623 40.3988 80.2405 42.4618 80.1095 44.8318C74.1044 44.9086 69.5995 46.5157 66.6173 49.6576C65.0088 51.3415 63.843 53.4948 63.1335 56.1131C62.6727 57.7924 62.4061 59.6297 62.3248 61.625C62.2931 62.3022 62.2886 62.7762 62.2931 63.0741C62.2931 63.0787 62.2931 63.0832 62.2931 63.0877L62.2931 80.3775C56.2564 80.4677 51.7515 82.0839 48.801 85.2303C47.2059 86.9232 46.0493 89.0765 45.3353 91.6948C44.8835 93.3696 44.6123 95.2115 44.5265 97.2068C44.5129 97.604 44.5084 97.92 44.5039 98.1728C42.1588 98.3083 40.1119 99.2157 38.3588 100.904C36.5424 102.768 35.6296 104.985 35.607 107.545C35.6296 110.104 36.5469 112.33 38.3588 114.194C40.1029 115.887 42.1588 116.79 44.5039 116.925L44.5039 134.233C44.5039 134.233 44.5039 134.238 44.5039 134.242C44.4948 134.49 44.5039 134.955 44.5265 135.655C44.6123 137.687 44.8835 139.542 45.3353 141.203C46.0538 143.821 47.2195 145.979 48.8191 147.668C51.8826 150.895 56.5501 152.503 62.7992 152.503L97.8806 152.503C97.8219 155.252 97.4468 157.653 96.7465 159.707C96.0778 161.653 95.1063 163.31 93.8185 164.673C92.6166 165.951 91.1526 166.957 89.404 167.702C87.0634 168.709 84.149 169.223 80.6471 169.26C80.6246 169.26 80.6065 169.246 80.5839 169.246L45.5025 169.246C45.3715 166.912 44.4678 164.863 42.7824 163.116C40.9072 161.301 38.6932 160.384 36.1267 160.357C33.5647 160.384 31.3461 161.296 29.4709 163.111C27.7765 164.854 26.8728 166.908 26.7373 169.246L9.91045 169.246C9.79299 168.104 9.31402 167.106 8.48263 166.244C7.48855 165.296 6.31826 164.813 4.9627 164.804C3.6162 164.822 2.45043 165.305 1.4609 166.271C0.502983 167.26 0.0240405 168.433 0.0195238 169.779C0.0375902 171.133 0.52105 172.298 1.47897 173.277C2.46853 174.234 3.64333 174.717 4.99889 174.726L4.97176 174.744ZM148.971 61.4625C148.216 60.677 147.832 59.7606 147.814 58.6908C147.828 57.6073 148.216 56.6774 148.971 55.8964C149.753 55.1425 150.674 54.7588 151.741 54.7498C152.812 54.7498 153.729 55.1335 154.52 55.8874C155.288 56.6683 155.667 57.5893 155.685 58.6546C155.685 59.72 155.301 60.6409 154.556 61.4309C153.783 62.1939 152.852 62.5821 151.768 62.6047L151.75 62.6047C150.679 62.5956 149.757 62.2119 148.971 61.458L148.971 61.4625ZM119.126 74.9829C120.798 73.3668 122.777 72.5452 125.05 72.5271C127.328 72.5452 129.307 73.3622 130.978 74.9648C132.605 76.6306 133.418 78.6124 133.446 80.8831C133.427 83.1583 132.61 85.1355 130.997 86.8104C129.329 88.4265 127.355 89.239 125.077 89.2661L125.059 89.2661C122.782 89.2481 120.803 88.431 119.136 86.8194C117.518 85.1536 116.705 83.1718 116.673 80.9011C116.691 78.6259 117.509 76.6487 119.122 74.9829L119.126 74.9829ZM78.9347 190.314C78.162 191.077 77.2312 191.47 76.1468 191.488L76.1287 191.488C75.0442 191.479 74.1135 191.091 73.3408 190.332C72.5862 189.542 72.2021 188.621 72.1931 187.556C72.2021 186.486 72.5862 185.57 73.3408 184.789C74.1316 184.021 75.0533 183.642 76.1196 183.633C77.1815 183.633 78.1078 184.012 78.8985 184.771C79.6531 185.552 80.0462 186.473 80.0643 187.538C80.0553 188.599 79.6802 189.524 78.9347 190.314ZM128.032 149.04C126.415 147.374 125.597 145.397 125.574 143.122C125.592 140.847 126.41 138.869 128.023 137.204C129.691 135.587 131.67 134.766 133.947 134.748C136.224 134.766 138.208 135.583 139.875 137.185C141.497 138.86 142.315 140.829 142.342 143.104C142.324 145.379 141.506 147.356 139.893 149.031C138.226 150.647 136.251 151.473 133.979 151.487L133.961 151.487C131.683 151.469 129.704 150.652 128.037 149.04L128.032 149.04ZM169.029 151.487L160.62 151.487C157.321 151.496 154.899 152.372 153.345 154.096C152.477 155.067 151.876 156.313 151.547 157.802C151.339 158.737 151.244 159.766 151.244 160.89L151.244 169.797C151.244 169.797 151.253 169.819 151.257 169.833C151.226 171.35 151.031 172.618 150.647 173.652C150.345 174.487 149.92 175.214 149.369 175.823C148.664 176.604 147.769 177.196 146.676 177.575C146.151 177.765 145.582 177.904 144.963 177.999C144.331 178.099 143.639 178.144 142.88 178.153C142.871 178.153 142.862 178.148 142.853 178.148L133.202 178.148C133.36 177.706 133.513 177.25 133.64 176.776C134.092 175.092 134.363 173.259 134.449 171.264C134.471 170.555 134.48 170.068 134.471 169.797C134.471 169.797 134.471 169.792 134.471 169.788L134.471 152.489C136.816 152.354 138.863 151.446 140.612 149.758C142.306 148.02 143.201 145.966 143.341 143.632L169.033 143.632L169.033 151.487L169.029 151.487ZM169.033 134.215C169.033 134.215 169.033 134.224 169.033 134.229L169.033 142.607L143.341 142.607C143.205 140.264 142.306 138.215 140.612 136.477C138.863 134.784 136.816 133.881 134.471 133.746L134.471 116.478C134.471 116.478 134.467 116.46 134.462 116.447C134.48 113.44 134.86 110.854 135.623 108.696C136.292 106.759 137.277 105.102 138.56 103.748C139.767 102.47 141.235 101.464 142.984 100.728C145.334 99.7303 148.239 99.2157 151.682 99.1886C151.691 99.1886 151.696 99.1886 151.7 99.1931L151.754 99.2021L169.033 99.2021L169.033 116.415C169.033 116.415 169.033 116.424 169.033 116.433L169.033 116.442L169.033 134.211C169.033 134.211 169.033 134.22 169.033 134.224L169.033 134.215ZM398.074 34.7966C397.315 34.0156 396.936 33.0947 396.918 32.0293C396.927 30.9594 397.302 30.043 398.056 29.253C398.829 28.4901 399.76 28.0973 400.844 28.0883C401.915 28.0883 402.832 28.472 403.623 29.2259C404.378 30.0069 404.771 30.9278 404.784 31.9932C404.784 33.0631 404.405 33.9795 403.655 34.7695C402.882 35.5324 401.951 35.9251 400.867 35.9387L400.849 35.9387C399.778 35.9297 398.861 35.5504 398.07 34.792L398.074 34.7966ZM395.065 60.2979C393.411 58.6637 392.544 56.7135 392.476 54.4383C392.444 52.1541 393.208 50.1587 394.79 48.4568C396.407 46.8001 398.368 45.9379 400.686 45.8611C402.973 45.8431 404.952 46.615 406.628 48.1679C408.286 49.7931 409.154 51.7433 409.235 54.0185C409.271 56.3027 408.499 58.298 406.926 59.9999C405.295 61.6567 403.348 62.5279 401.061 62.6047L401.052 62.6047C398.766 62.6408 396.778 61.8643 395.065 60.2979ZM362.496 70.3557C361.746 69.5883 361.357 68.6809 361.33 67.602C361.33 66.5321 361.705 65.6157 362.433 64.8347C363.205 64.0628 364.127 63.6655 365.185 63.6384C366.269 63.6294 367.209 63.9951 368 64.7399C368.781 65.5209 369.183 66.4509 369.197 67.5343C369.188 68.6177 368.813 69.5477 368.058 70.3286C367.286 71.0915 366.355 71.4753 365.27 71.4933L365.252 71.4933C364.181 71.4753 363.264 71.1051 362.491 70.3557L362.496 70.3557ZM359.342 95.7126C357.725 94.0468 356.911 92.065 356.884 89.7943C356.902 87.5191 357.72 85.5418 359.333 83.8761C361.009 82.2599 362.984 81.4383 365.261 81.4203C367.534 81.4383 369.518 82.2554 371.185 83.858C372.812 85.5328 373.625 87.5056 373.652 89.7763C373.634 92.0605 372.816 94.0287 371.203 95.7035C369.531 97.3197 367.561 98.1413 365.284 98.1593L365.266 98.1593C362.989 98.1413 361.009 97.3287 359.342 95.7126ZM339.637 121.602C339.913 120.794 340.297 120.094 340.794 119.494C341.499 118.645 342.402 118.009 343.532 117.584C344.052 117.395 344.634 117.237 345.267 117.133C345.918 117.02 346.672 116.97 347.531 116.961L364.751 116.97L364.751 134.233C364.751 134.233 364.755 134.251 364.76 134.26C364.742 137.249 364.362 139.826 363.608 141.984C362.93 143.93 361.949 145.578 360.662 146.941C359.464 148.209 357.987 149.216 356.238 149.961C353.893 150.959 350.987 151.478 347.526 151.5C347.504 151.5 347.486 151.487 347.463 151.487L339.086 151.487L339.086 125.353C339.086 125.353 339.077 125.317 339.072 125.299C339.099 123.823 339.289 122.591 339.633 121.602L339.637 121.602ZM314.831 146.106C316.498 144.481 318.473 143.659 320.745 143.632C323.023 143.641 325.002 144.449 326.678 146.056C328.305 147.722 329.127 149.695 329.163 151.97C329.154 154.245 328.345 156.222 326.741 157.897C325.074 159.522 323.099 160.353 320.827 160.38L320.809 160.38C318.531 160.371 316.552 159.563 314.876 157.951C313.249 156.286 312.436 154.322 312.4 152.042C312.418 149.767 313.227 147.79 314.831 146.115L314.831 146.106ZM429.053 7.17354C429.781 6.37451 430.693 5.94114 431.773 5.86439C432.844 5.81925 433.789 6.14879 434.615 6.86205C435.415 7.6024 435.849 8.50526 435.917 9.56161C435.971 10.6315 435.641 11.575 434.936 12.4011C434.204 13.2001 433.296 13.6425 432.216 13.7193L432.189 13.7193C431.127 13.7644 430.183 13.4349 429.356 12.7126C428.556 11.9722 428.131 11.0739 428.059 10.013C428.009 8.94315 428.339 7.99966 429.049 7.17354L429.053 7.17354ZM385.997 3.90067C387.646 2.27552 389.629 1.45392 391.938 1.4178C394.234 1.44489 396.195 2.24392 397.849 3.82844C399.475 5.48519 400.307 7.45794 400.343 9.73315C400.334 12.0174 399.525 13.9947 397.925 15.6695C396.267 17.2946 394.293 18.1252 392.015 18.1614L391.997 18.1614C389.72 18.1523 387.741 17.3443 386.055 15.7417C384.429 14.0849 383.606 12.1122 383.57 9.83698C383.579 7.55274 384.388 5.5845 385.992 3.90067L385.997 3.90067ZM190.306 57.1965C191.978 55.5804 193.948 54.7678 196.234 54.7498C198.516 54.7769 200.491 55.5804 202.131 57.1694C203.757 58.8352 204.58 60.7989 204.616 63.0832C204.607 65.3584 203.803 67.3356 202.194 69.0104C200.527 70.6356 198.552 71.4662 196.275 71.4933L196.257 71.4933C193.98 71.4843 192 70.6762 190.324 69.0646C188.706 67.4169 187.875 65.4351 187.848 63.1193C187.866 60.8441 188.693 58.8758 190.306 57.201L190.306 57.1965ZM170.054 116.447C170.054 116.447 170.054 116.442 170.054 116.438L170.054 99.1841L204.643 99.1931C204.783 101.531 205.678 103.576 207.372 105.324C209.112 107.016 211.168 107.919 213.513 108.055L213.513 115.964C211.168 116.099 209.121 117.007 207.372 118.695C205.556 120.559 204.643 122.776 204.616 125.335C204.643 127.895 205.556 130.116 207.372 131.985C209.112 133.673 211.163 134.581 213.504 134.716C213.445 136.043 213.26 137.172 212.912 138.106C212.609 138.937 212.18 139.668 211.633 140.278C210.928 141.059 210.034 141.65 208.94 142.029C208.416 142.219 207.847 142.359 207.228 142.454C206.595 142.557 205.899 142.598 205.145 142.607C205.136 142.607 205.127 142.607 205.118 142.603L170.05 142.603L170.05 134.251L170.05 134.242C170.05 134.242 170.05 134.238 170.05 134.233L170.05 116.456C170.05 116.456 170.05 116.451 170.05 116.447L170.054 116.447ZM219.952 92.7421C221.565 94.417 222.383 96.3897 222.41 98.6604C222.392 100.945 221.574 102.913 219.961 104.588C218.293 106.199 216.319 107.025 214.046 107.043L214.028 107.043C211.751 107.025 209.772 106.208 208.104 104.597C206.487 102.931 205.673 100.949 205.646 98.6785C205.664 96.4032 206.487 94.426 208.095 92.7557C209.772 91.1441 211.742 90.318 214.019 90.2999C216.305 90.318 218.28 91.1351 219.952 92.7376L219.952 92.7421ZM211.254 79.2444C210.499 78.4634 210.106 77.5425 210.088 76.4726C210.088 75.4162 210.467 74.4863 211.218 73.6963C211.99 72.9334 212.921 72.5406 214.005 72.5226C215.067 72.5226 215.994 72.8973 216.784 73.6512C217.548 74.4321 217.941 75.353 217.959 76.4184C217.959 77.4793 217.584 78.4047 216.829 79.1947C216.066 79.9576 215.135 80.3549 214.046 80.3775L214.028 80.3775C212.971 80.3775 212.04 79.9938 211.249 79.2399L211.254 79.2444ZM219.943 119.408C221.565 121.083 222.383 123.056 222.41 125.331C222.392 127.611 221.574 129.583 219.961 131.258C218.293 132.874 216.319 133.696 214.046 133.714L214.028 133.714C211.751 133.696 209.772 132.879 208.104 131.267C206.487 129.601 205.673 127.62 205.646 125.349C205.664 123.074 206.482 121.096 208.095 119.426C209.772 117.81 211.742 116.988 214.019 116.97C216.296 116.988 218.28 117.806 219.947 119.408L219.943 119.408ZM202.162 175.697C200.495 177.313 198.525 178.139 196.248 178.157L196.23 178.157C193.952 178.139 191.973 177.322 190.302 175.711C188.688 174.045 187.871 172.063 187.843 169.792C187.861 167.517 188.679 165.535 190.292 163.87C191.969 162.258 193.939 161.432 196.216 161.414C198.503 161.432 200.473 162.244 202.144 163.851C203.771 165.526 204.584 167.499 204.612 169.77C204.593 172.054 203.78 174.022 202.162 175.697ZM274.643 159.761C273.966 161.707 272.985 163.355 271.697 164.718C270.5 165.987 269.022 166.993 267.274 167.738C264.929 168.736 262.023 169.255 258.558 169.282C258.539 169.282 258.521 169.269 258.499 169.269L240.705 169.269C240.705 169.269 240.705 169.269 240.701 169.269L205.619 169.269C205.484 166.93 204.58 164.885 202.89 163.138C201.024 161.323 198.796 160.407 196.234 160.38C193.672 160.407 191.454 161.323 189.579 163.134C187.893 164.881 186.989 166.93 186.854 169.273C183.583 169.21 180.822 168.695 178.572 167.743C176.823 166.998 175.35 165.991 174.148 164.723C172.865 163.359 171.88 161.712 171.202 159.766C170.492 157.73 170.113 155.31 170.059 152.525L222.929 152.525C229.178 152.534 233.832 150.918 236.901 147.69C238.509 146.006 239.67 143.853 240.384 141.235C240.845 139.56 241.112 137.718 241.202 135.723C241.216 135.317 241.22 134.982 241.225 134.721C243.57 134.585 245.617 133.682 247.365 131.999C249.182 130.121 250.094 127.9 250.122 125.349C250.099 122.789 249.186 120.568 247.37 118.699C245.621 117.007 243.57 116.104 241.229 115.968L241.229 108.055C242.368 107.937 243.375 107.459 244.234 106.615C245.187 105.626 245.666 104.452 245.675 103.107C245.657 101.753 245.174 100.588 244.216 99.5994C243.226 98.6514 242.052 98.1683 240.696 98.1593C239.35 98.1774 238.175 98.6649 237.194 99.6265C236.236 100.615 235.762 101.789 235.753 103.134C235.771 104.488 236.259 105.653 237.212 106.633C238.071 107.459 239.069 107.933 240.204 108.05L240.204 115.964C237.858 116.099 235.812 117.002 234.058 118.686C232.242 120.559 231.329 122.776 231.302 125.335C231.329 127.895 232.242 130.116 234.058 131.985C235.798 133.678 237.854 134.581 240.199 134.716C240.145 137.515 239.765 139.93 239.051 141.975C238.374 143.925 237.402 145.573 236.114 146.932C234.908 148.209 233.43 149.216 231.686 149.961C229.35 150.959 226.44 151.478 222.984 151.5C222.966 151.5 222.952 151.491 222.929 151.487L187.333 151.487C187.333 151.487 187.328 151.487 187.324 151.487L170.05 151.487L170.05 143.632L205.122 143.632C208.439 143.623 210.874 142.756 212.437 141.009C213.296 140.048 213.906 138.806 214.236 137.285C214.403 136.495 214.498 135.637 214.521 134.716C216.87 134.581 218.922 133.678 220.675 131.994C222.491 130.116 223.404 127.904 223.431 125.344C223.404 122.785 222.496 120.564 220.675 118.695C218.926 117.002 216.879 116.099 214.534 115.964L214.534 108.055C216.879 107.915 218.926 107.012 220.675 105.324C222.369 103.586 223.264 101.531 223.404 99.1931C223.521 99.1931 223.648 99.1841 223.788 99.175L223.797 99.175C229.784 99.0261 234.221 97.3422 237.122 94.1145C238.658 92.4126 239.774 90.2503 240.452 87.659C240.886 85.9752 241.139 84.0927 241.207 81.9891L241.225 80.9598C241.225 78.0075 241.591 75.4388 242.345 73.2449C243 71.3263 243.945 69.6876 245.196 68.3243C247.989 65.2636 252.372 63.6971 258.354 63.6114C258.395 63.6249 258.431 63.6384 258.481 63.6475L275.786 63.6475L275.786 115.973C273.441 116.108 271.395 117.011 269.646 118.695C267.829 120.568 266.917 122.785 266.89 125.344C266.917 127.904 267.829 130.121 269.646 131.994C271.386 133.687 273.441 134.59 275.786 134.725L275.786 152.038C275.786 152.038 275.786 152.051 275.791 152.06C275.768 155.044 275.389 157.617 274.639 159.771L274.643 159.761ZM246.633 119.408C248.26 121.083 249.073 123.056 249.1 125.331C249.082 127.606 248.264 129.583 246.651 131.258C244.98 132.874 243.01 133.696 240.732 133.714L240.714 133.714C238.437 133.696 236.458 132.879 234.79 131.267C233.173 129.601 232.359 127.62 232.332 125.349C232.35 123.074 233.168 121.096 234.781 119.426C236.449 117.81 238.432 116.988 240.71 116.97C242.982 116.988 244.966 117.806 246.633 119.408ZM237.944 105.91C237.185 105.129 236.797 104.208 236.779 103.143C236.779 102.082 237.163 101.157 237.908 100.367C238.681 99.6039 239.612 99.2157 240.696 99.1976C241.758 99.1976 242.689 99.5723 243.475 100.326C244.238 101.098 244.632 102.028 244.645 103.112C244.636 104.168 244.266 105.098 243.507 105.888C242.725 106.651 241.803 107.034 240.737 107.052L240.719 107.052C239.661 107.052 238.73 106.669 237.94 105.915L237.944 105.91ZM309.074 68.8886C307.447 70.5453 305.495 71.4166 303.218 71.4933L303.2 71.4933C300.914 71.5294 298.926 70.7665 297.213 69.1865C295.555 67.5659 294.683 65.6112 294.606 63.336C294.57 61.0517 295.347 59.0655 296.915 57.3545C298.542 55.6978 300.494 54.831 302.771 54.7498C305.053 54.7137 307.045 55.4811 308.753 57.0521C310.412 58.6772 311.284 60.6274 311.369 62.9026C311.406 65.1868 310.642 67.1822 309.07 68.8931L309.074 68.8886ZM297.023 21.687C298.682 20.0664 300.647 19.2312 302.934 19.1951C305.211 19.1951 307.19 19.9942 308.875 21.6012C310.502 23.258 311.333 25.2217 311.379 27.5014C311.379 29.7766 310.57 31.7539 308.97 33.4377C307.312 35.0719 305.346 35.9026 303.06 35.9387L303.01 35.9387C300.724 35.9206 298.754 35.1171 297.109 33.528C295.478 31.8803 294.642 29.9076 294.606 27.6324C294.615 25.3481 295.415 23.3709 297.023 21.687ZM276.812 45.3239L276.812 28.0838L285.194 28.0838C285.221 28.0838 285.239 28.0748 285.253 28.0748L293.607 28.0838C293.747 30.4673 294.669 32.5259 296.377 34.2548C298.261 36.0606 300.489 36.9634 303.051 36.9724C305.613 36.9273 307.832 35.9928 309.689 34.1691C311.351 32.4311 312.237 30.3996 312.373 28.0838C315.676 28.156 318.454 28.6661 320.687 29.6322C322.435 30.3816 323.899 31.3973 325.101 32.6613C326.362 33.9975 327.333 35.6407 328.02 37.5909C328.775 39.7442 329.154 42.3264 329.172 45.3149C329.172 45.3239 329.172 45.3284 329.168 45.342L329.168 62.6092L312.377 62.6092C312.228 60.1715 311.27 58.0768 309.481 56.3162C307.56 54.5557 305.328 53.6889 302.757 53.7295C300.2 53.8198 298.004 54.7904 296.178 56.6368C294.579 58.3657 293.729 60.3565 293.603 62.6092L276.812 62.6092L276.812 45.3691C276.812 45.3691 276.812 45.3555 276.812 45.3465C276.812 45.3375 276.812 45.3329 276.812 45.3239ZM276.293 116.966C278.57 116.984 280.549 117.801 282.216 119.404C283.843 121.078 284.656 123.051 284.683 125.326C284.665 127.602 283.847 129.579 282.234 131.254C280.567 132.87 278.592 133.691 276.32 133.709L276.302 133.709C274.029 133.691 272.045 132.874 270.378 131.263C268.76 129.597 267.947 127.615 267.92 125.344C267.938 123.069 268.756 121.092 270.369 119.422C272.036 117.806 274.02 116.984 276.293 116.966ZM275.786 45.3329L275.786 62.6047L259.018 62.6047L259.018 36.4443C259.018 36.4443 259.009 36.4172 259.005 36.4036C259.036 34.8868 259.231 33.6048 259.615 32.58C259.918 31.7359 260.347 31.0181 260.894 30.4087C261.598 29.6186 262.502 29.0408 263.596 28.6481C264.106 28.4675 264.68 28.3276 265.308 28.2328C265.923 28.1334 266.605 28.0838 267.36 28.0793C267.369 28.0793 267.378 28.0838 267.387 28.0838L275.786 28.0838L275.786 45.3329ZM225.875 3.8826C227.543 2.25746 229.517 1.44488 231.795 1.4178C234.081 1.42682 236.051 2.24391 237.727 3.84649C239.354 5.51227 240.176 7.48502 240.204 9.75571C240.185 12.04 239.377 14.0172 237.768 15.692C236.101 17.3081 234.126 18.1297 231.844 18.1568L231.835 18.1568C229.549 18.1388 227.579 17.3307 225.903 15.7191C224.285 14.0533 223.463 12.0806 223.435 9.80988C223.454 7.52565 224.271 5.55741 225.875 3.8826ZM161.157 18.676L161.157 11.6923C163.412 10.7985 166.182 10.329 169.476 10.2974C169.476 10.2974 169.485 10.2974 169.489 10.2974C169.521 10.3065 169.548 10.3065 169.566 10.3065L222.432 10.3065C222.572 12.6674 223.485 14.726 225.193 16.4775C227.046 18.2561 229.26 19.1635 231.831 19.1951C234.429 19.1545 236.652 18.2245 238.505 16.4008C240.176 14.6582 241.062 12.6268 241.198 10.3065L258.503 10.3065C258.503 10.3065 258.539 10.2974 258.558 10.2929C262.019 10.32 264.92 10.8391 267.269 11.8368C269.004 12.5726 270.491 13.5884 271.72 14.893C272.981 16.2202 273.952 17.8634 274.639 19.8136C275.348 21.8495 275.728 24.2647 275.782 27.0545L267.409 27.0545C264.097 27.0545 261.657 27.9213 260.094 29.6683C259.226 30.6389 258.625 31.8713 258.296 33.3745C258.088 34.3045 257.993 35.3383 257.993 36.4623L257.993 62.6182C251.906 62.6995 247.374 64.3472 244.388 67.5839C242.815 69.3129 241.677 71.4662 240.999 74.0529C240.556 75.7277 240.294 77.5786 240.217 79.61C240.208 80.0299 240.204 80.4452 240.204 80.8786C240.204 80.9192 240.204 80.9553 240.204 80.9824C240.181 83.8625 239.819 86.3634 239.11 88.4806C238.477 90.3812 237.547 92.0108 236.34 93.3651C233.607 96.4439 229.291 98.051 223.404 98.1999C223.273 95.8435 222.374 93.7804 220.675 92.0334C218.926 90.3451 216.879 89.4377 214.534 89.3023L214.534 81.3887C215.704 81.2668 216.721 80.7657 217.593 79.899C218.542 78.8923 219.007 77.696 218.98 76.3056C218.922 74.9242 218.384 73.755 217.385 72.807C216.35 71.8861 215.144 71.4527 213.752 71.5069C212.415 71.5926 211.285 72.1298 210.364 73.1049C209.469 74.1026 209.035 75.2673 209.062 76.6125C209.121 77.9488 209.627 79.0864 210.58 80.0299C211.43 80.8199 212.401 81.2713 213.508 81.3887L213.508 89.3023C211.163 89.4377 209.116 90.3451 207.368 92.0244C205.673 93.7714 204.779 95.8164 204.639 98.1593L170.05 98.1593L170.05 80.9372C170.05 80.9372 170.05 80.9147 170.045 80.9011C170.063 77.8946 170.443 75.3079 171.197 73.1456C171.875 71.1999 172.856 69.5522 174.143 68.1889C175.345 66.9203 176.818 65.9136 178.567 65.1688C180.817 64.2118 183.578 63.7016 186.849 63.6339C186.985 65.9904 187.893 68.0444 189.601 69.7959C191.476 71.6017 193.704 72.5136 196.257 72.5271L196.266 72.5271C198.828 72.491 201.046 71.5655 202.913 69.7508C204.584 67.9992 205.479 65.9633 205.615 63.6339C211.624 63.5527 216.129 61.9501 219.116 58.8081C220.715 57.1153 221.877 54.9619 222.6 52.3527C223.042 50.723 223.313 48.8902 223.408 46.8407C223.431 46.15 223.44 45.667 223.431 45.3961C223.44 45.1975 223.431 44.6964 223.408 43.9019C223.313 41.8524 223.051 40.0196 222.6 38.3899C221.886 35.7671 220.733 33.6138 219.134 31.9255C216.111 28.7068 211.462 27.0816 205.199 27.0636C205.181 27.0636 205.172 27.0681 205.158 27.0681C205.14 27.0681 205.122 27.0636 205.109 27.0636L187.36 27.0635C187.36 27.0635 187.337 27.0635 187.324 27.0635C187.324 27.0635 187.324 27.0635 187.319 27.0635L169.535 27.0635C169.535 27.0635 169.517 27.0681 169.507 27.0726C168.757 27.0635 168.062 27.0094 167.438 26.9191C166.814 26.8243 166.25 26.6753 165.726 26.4947C164.632 26.111 163.728 25.5242 163.023 24.7432C162.486 24.1247 162.061 23.407 161.754 22.5628C161.365 21.5155 161.171 20.2289 161.148 18.7076C161.148 18.7031 161.148 18.6985 161.148 18.6895L161.157 18.676ZM83.5751 39.3966C85.2244 37.8076 87.1899 36.9995 89.4853 36.977C91.7942 37.004 93.7779 37.8392 95.4271 39.4508C97.0402 41.1346 97.849 43.1074 97.8581 45.3871C97.8264 47.6623 96.9995 49.6305 95.3729 51.2963C93.6965 52.9034 91.7129 53.7115 89.4402 53.716L89.4221 53.716C87.1493 53.6844 85.1747 52.8583 83.5164 51.2331C81.9079 49.5493 81.099 47.5765 81.09 45.2968C81.1216 43.0216 81.9485 41.0534 83.5751 39.3921L83.5751 39.3966ZM98.5358 116.966C100.822 117.038 102.77 117.887 104.383 119.503C105.955 121.16 106.746 123.137 106.755 125.421C106.705 127.705 105.869 129.665 104.27 131.29C102.621 132.879 100.655 133.687 98.3596 133.714L98.3505 133.714C96.0326 133.678 94.0489 132.847 92.3997 131.222C90.8047 129.556 89.9959 127.565 89.9868 125.25C90.0456 122.934 90.8906 120.961 92.5308 119.331C94.2162 117.742 96.2179 116.952 98.5358 116.97L98.5358 116.966ZM45.0054 115.937L44.9874 115.937C42.7101 115.919 40.731 115.106 39.0637 113.49C37.4461 111.824 36.6327 109.847 36.6056 107.572C36.6192 105.296 37.437 103.319 39.0546 101.649C40.7219 100.037 42.701 99.2111 44.9783 99.1931C47.2556 99.2111 49.2347 100.024 50.9021 101.631C52.5287 103.297 53.3465 105.274 53.3691 107.549C53.351 109.824 52.5332 111.802 50.9202 113.476C49.2528 115.092 47.2782 115.914 45.0009 115.932L45.0054 115.937ZM96.1546 151.487L62.7766 151.487C62.7766 151.487 62.745 151.496 62.7224 151.5C59.2703 151.473 56.3604 150.954 54.0289 149.961C52.2757 149.216 50.7981 148.209 49.6007 146.941C48.313 145.587 47.3325 143.93 46.6547 141.984C45.9001 139.826 45.5206 137.249 45.5025 134.242C45.5025 134.229 45.507 134.22 45.5115 134.206L45.5115 116.939C47.8566 116.799 49.9035 115.896 51.6521 114.212C53.4686 112.339 54.3813 110.122 54.4039 107.563C54.3768 105.003 53.4686 102.782 51.6521 100.913C49.9035 99.2202 47.8566 98.3173 45.5115 98.1819C45.5657 95.3875 45.9408 92.9588 46.6547 90.9184C47.3415 88.9637 48.313 87.325 49.5736 85.9978C50.7755 84.7202 52.2395 83.709 53.9882 82.9596C56.2158 81.9981 58.9856 81.4835 62.2796 81.4112C62.2796 81.6686 62.2931 81.9936 62.3022 82.3863C62.3925 84.3817 62.6591 86.2145 63.111 87.8983C63.8339 90.5121 64.9952 92.6654 66.5947 94.3583C69.6627 97.586 74.3258 99.1931 80.5839 99.1931C80.6065 99.1931 80.6246 99.1841 80.6472 99.1795C84.1038 99.2066 87.0046 99.7258 89.3497 100.723C91.0848 101.459 92.5714 102.475 93.8095 103.78C95.0611 105.107 96.0326 106.75 96.7194 108.7C97.4333 110.745 97.8083 113.169 97.8626 115.968C95.5311 116.104 93.4887 116.997 91.74 118.681C89.9236 120.546 89.0018 122.762 88.9702 125.313C88.9883 127.881 89.8965 130.093 91.7039 131.971C93.4525 133.678 95.5084 134.581 97.8626 134.721L97.8626 151.491L96.1591 151.491L96.1546 151.487ZM30.1668 163.86C31.8431 162.244 33.8177 161.432 36.095 161.414C38.3904 161.441 40.3514 162.244 41.9961 163.833C43.6183 165.499 44.4452 167.472 44.4813 169.747C44.4723 172.031 43.6635 174.009 42.0504 175.683C40.3921 177.309 38.4175 178.13 36.1402 178.157L36.1222 178.157C33.8042 178.139 31.8205 177.313 30.1623 175.697C28.5446 174.031 27.7313 172.054 27.7133 169.779C27.7404 167.494 28.5582 165.526 30.1713 163.86L30.1668 163.86ZM2.1477 167.025C2.92037 166.262 3.85119 165.869 4.93563 165.851C5.99746 165.851 6.92376 166.226 7.7145 166.98C8.47811 167.761 8.86669 168.682 8.88476 169.747C8.88476 170.808 8.51427 171.733 7.76418 172.523C6.99154 173.286 6.06069 173.688 4.97176 173.706L4.95367 173.706C3.89632 173.706 2.96557 173.322 2.17486 172.569C1.42025 171.788 1.02712 170.867 1.00906 169.801C1.00906 168.745 1.39312 167.815 2.13866 167.025L2.1477 167.025Z" fill="white"/>
<path d="M807.982 18.1589C806.635 18.177 805.465 18.6645 804.48 19.6261C803.653 20.4838 803.183 21.4769 803.07 22.601L786.239 22.601C786.094 20.2265 785.19 18.177 783.5 16.448C781.616 14.6423 779.398 13.7304 776.836 13.7123C774.26 13.753 772.055 14.6739 770.216 16.4615C768.522 18.2041 767.618 20.2536 767.482 22.5965L732.383 22.5965C732.383 22.5965 732.369 22.5965 732.365 22.601C732.333 22.601 732.306 22.592 732.27 22.5965C726.039 22.6145 721.412 24.2352 718.367 27.4584C716.767 29.1513 715.619 31.3136 714.91 33.9319C714.458 35.6067 714.187 37.4485 714.101 39.4439C714.079 40.1436 714.07 40.6176 714.079 40.8659C714.079 40.8659 714.079 40.8749 714.079 40.8794L714.079 58.1782C711.743 58.3137 709.696 59.2075 707.956 60.8913C706.14 62.7557 705.213 64.9723 705.182 67.5319C705.2 70.0915 706.113 72.308 707.92 74.1814C709.669 75.8878 711.725 76.7952 714.079 76.9306C714.079 77.1925 714.092 77.522 714.106 77.9283C714.192 79.9281 714.463 81.7655 714.919 83.4403C715.633 86.0631 716.799 88.2164 718.403 89.8957C721.435 93.1099 726.084 94.7215 732.347 94.7305C732.378 94.7305 732.406 94.7215 732.433 94.717C735.894 94.7441 738.799 95.2632 741.149 96.2609C742.897 97.0057 744.37 98.0124 745.572 99.281C746.86 100.644 747.841 102.292 748.518 104.238C749.228 106.274 749.607 108.693 749.662 111.479L732.383 111.479C732.383 111.479 732.36 111.488 732.347 111.488L714.598 111.479L714.589 111.479C714.589 111.479 714.567 111.488 714.553 111.488L697.283 111.479C697.148 109.14 696.249 107.086 694.559 105.353C692.693 103.538 690.465 102.617 687.903 102.59C685.337 102.617 683.123 103.538 681.247 105.353C679.553 107.091 678.654 109.149 678.518 111.488C672.509 111.569 667.999 113.171 665.013 116.313C663.417 118.006 662.252 120.16 661.529 122.773C661.077 124.439 660.806 126.29 660.72 128.321C660.706 128.714 660.702 129.035 660.697 129.288C659.559 129.409 658.565 129.883 657.697 130.719C656.739 131.698 656.251 132.872 656.247 134.217C656.256 135.571 656.739 136.741 657.697 137.725C658.687 138.677 659.852 139.165 661.208 139.183C662.554 139.165 663.729 138.677 664.719 137.725C665.677 136.741 666.16 135.571 666.169 134.226C666.16 132.872 665.677 131.703 664.719 130.719C663.856 129.888 662.862 129.409 661.723 129.292C661.777 126.498 662.152 124.069 662.871 122.024C663.549 120.078 664.529 118.431 665.812 117.067C667.014 115.799 668.487 114.792 670.236 114.047C672.482 113.09 675.247 112.58 678.518 112.517C678.654 114.86 679.553 116.909 681.247 118.647C683.123 120.462 685.337 121.383 687.903 121.41C690.465 121.383 692.679 120.462 694.559 118.647C696.244 116.909 697.148 114.864 697.288 112.517L732.369 112.517C732.369 112.517 732.378 112.517 732.387 112.517C732.387 112.517 732.392 112.517 732.401 112.517L749.671 112.517L749.671 129.766C749.671 129.766 749.675 129.784 749.675 129.798C749.657 132.8 749.278 135.377 748.523 137.535C747.845 139.481 746.865 141.129 745.586 142.483C744.352 143.787 742.866 144.79 741.122 145.521C738.867 146.478 736.115 146.979 732.875 147.047C732.744 144.726 731.854 142.691 730.192 140.948C728.321 139.124 726.116 138.194 723.554 138.154C720.992 138.163 718.769 139.075 716.88 140.871C715.168 142.614 714.246 144.677 714.11 147.042L679.011 147.042C679.011 147.042 678.997 147.047 678.988 147.051C678.975 147.051 678.966 147.047 678.952 147.042C672.685 147.06 668.04 148.676 665.013 151.895C663.408 153.597 662.252 155.741 661.547 158.328C661.095 159.962 660.824 161.791 660.738 163.795C660.702 164.644 660.697 165.163 660.711 165.375C660.688 168.368 660.309 170.941 659.559 173.09C658.881 175.035 657.896 176.683 656.622 178.037C655.551 179.166 654.29 180.073 652.835 180.773L652.835 174.191C652.835 174.191 652.835 174.191 652.835 174.187C652.835 173.094 652.736 172.088 652.542 171.18C652.212 169.672 651.611 168.418 650.734 167.438C649.171 165.695 646.735 164.82 643.437 164.82L625.634 164.82C625.634 164.82 625.634 164.82 625.625 164.82C625.62 164.82 625.611 164.82 625.607 164.82L607.84 164.82C607.84 164.82 607.804 164.829 607.786 164.833C604.289 164.802 601.37 164.282 599.043 163.276C597.294 162.526 595.826 161.511 594.628 160.247C593.368 158.91 592.396 157.267 591.705 155.317C590.95 153.155 590.571 150.563 590.553 147.561C590.566 144.559 590.95 141.968 591.705 139.806C592.383 137.86 593.368 136.212 594.651 134.849C595.848 133.581 597.326 132.574 599.07 131.829C601.32 130.872 604.085 130.362 607.352 130.299C607.492 132.655 608.396 134.709 610.104 136.456C611.979 138.262 614.207 139.174 616.769 139.192C619.331 139.156 621.549 138.226 623.415 136.411C625.092 134.669 625.982 132.628 626.113 130.294C632.163 130.204 636.664 128.597 639.61 125.468C641.218 123.776 642.379 121.622 643.093 119.008C643.545 117.383 643.816 115.546 643.902 113.496C643.929 112.779 643.943 112.291 643.934 112.02C643.934 112.02 643.934 112.016 643.934 112.011L643.934 94.7486L661.199 94.7486L661.208 94.7486C661.208 94.7486 661.208 94.7486 661.212 94.7486C667.466 94.7486 672.134 93.1415 675.202 89.9138C676.801 88.2209 677.962 86.0676 678.685 83.4448C679.137 81.788 679.408 79.9417 679.494 77.8967C679.512 77.2015 679.526 76.732 679.517 76.4792C679.517 76.4792 679.517 76.4792 679.517 76.4747L679.517 59.1623C681.862 59.0269 683.909 58.124 685.662 56.4402C687.478 54.5668 688.391 52.3503 688.414 49.7906C688.387 47.231 687.474 45.0055 685.662 43.1411C683.922 41.4482 681.866 40.5453 679.517 40.4099L679.517 23.1111C679.517 23.1111 679.512 23.0931 679.512 23.0885C679.53 20.1001 679.914 17.5224 680.665 15.3691C681.347 13.4234 682.327 11.7757 683.611 10.4124C684.812 9.14837 686.286 8.13716 688.034 7.3923C690.379 6.39464 693.28 5.88001 696.737 5.85293C696.75 5.85293 696.759 5.86196 696.777 5.86647L731.904 5.86647C732.017 7.00408 732.496 8.00174 733.327 8.85494C734.317 9.81197 735.492 10.295 736.838 10.3131C738.194 10.295 739.355 9.81197 740.349 8.85494C741.307 7.87534 741.79 6.70162 741.799 5.35636C741.79 4.00206 741.307 2.82835 740.349 1.84874C739.355 0.89171 738.194 0.408679 736.838 0.390622C735.492 0.408679 734.321 0.891709 733.327 1.84874C732.496 2.70194 732.017 3.70412 731.904 4.83721L696.8 4.83721C690.546 4.82818 685.883 6.4443 682.815 9.67203C681.735 10.8141 680.859 12.173 680.177 13.7349C680.158 13.7349 680.145 13.7259 680.127 13.7259L679.006 13.7259L678.961 13.7349L670.123 13.7259L670.105 13.7259C666.784 13.7349 664.353 14.6016 662.789 16.3442C661.926 17.3057 661.33 18.5562 660.991 20.0685C660.792 21.0029 660.697 22.0232 660.697 23.1427L660.697 32.0494C660.697 32.0494 660.706 32.072 660.706 32.081C660.675 33.5933 660.48 34.8664 660.101 35.8911C659.798 36.7353 659.369 37.453 658.822 38.0715C658.113 38.8525 657.218 39.4348 656.12 39.8231C655.592 40.0036 655.036 40.1436 654.426 40.2384C653.816 40.3332 653.12 40.3783 652.352 40.3919C652.334 40.3919 652.32 40.3873 652.307 40.3873L643.929 40.3964C643.929 40.1391 643.916 39.814 643.898 39.4168C643.821 37.4214 643.55 35.5886 643.089 33.9048C642.375 31.291 641.214 29.1422 639.614 27.4494C636.627 24.3029 632.118 22.7048 626.108 22.619C625.973 20.2761 625.078 18.2311 623.384 16.4841C621.518 14.6694 619.29 13.753 616.728 13.7259C614.166 13.753 611.952 14.6739 610.072 16.4751C608.378 18.2221 607.483 20.2716 607.343 22.61L554.45 22.61C548.196 22.601 543.529 24.2171 540.461 27.4448C538.866 29.1377 537.7 31.291 536.977 33.9003C536.534 35.5345 536.263 37.3628 536.168 39.4122C536.146 40.121 536.137 40.6085 536.146 40.8749C536.146 40.8749 536.146 40.8839 536.146 40.8884L536.146 58.1872C533.801 58.3227 531.754 59.2255 530.005 60.9094C528.189 62.7873 527.276 64.9993 527.249 67.5589C527.267 70.1185 528.189 72.3396 530.005 74.2085C531.754 75.9014 533.801 76.8042 536.146 76.9397L536.146 129.265L519.355 129.265C519.21 126.832 518.248 124.733 516.459 122.972C514.538 121.211 512.306 120.34 509.744 120.385L509.735 120.385C507.182 120.471 504.986 121.446 503.147 123.302C501.557 125.022 500.712 127.012 500.581 129.265L483.79 129.265L483.79 94.243C483.79 94.243 483.786 94.2249 483.786 94.2114C483.804 91.241 484.183 88.6859 484.92 86.5416C485.57 84.623 486.524 82.9843 487.775 81.63C490.59 78.5783 494.96 77.0119 500.893 76.9306C501.042 76.9803 501.245 76.9893 501.507 76.9577C507.607 76.89 512.157 75.2468 515.148 72.0191C516.739 70.2991 517.868 68.1458 518.56 65.5591C518.994 63.9294 519.256 62.0966 519.341 60.0471L519.35 58.8057C519.35 58.8057 519.36 58.7922 519.364 58.7831C519.382 58.4716 519.373 57.8803 519.328 57.0045C519.233 55.0543 518.962 53.2621 518.524 51.6415C517.819 49.0638 516.653 46.9195 515.049 45.2176C512.062 42.0757 507.566 40.4641 501.552 40.3919C501.408 38.0173 500.504 35.9633 498.8 34.2298C496.925 32.4241 494.702 31.5122 492.136 31.4942C489.574 31.5303 487.355 32.4557 485.489 34.2705C483.813 36.0175 482.923 38.0534 482.792 40.3828L465.486 40.3828C459.232 40.3828 454.565 41.9899 451.497 45.2176C449.897 46.9105 448.736 49.0638 448.022 51.6731C447.561 53.3389 447.29 55.1897 447.204 57.2257C447.181 57.9344 447.172 58.4084 447.181 58.6567L447.181 58.6658L447.181 75.9285L429.898 75.9285C429.898 75.9285 429.88 75.933 429.871 75.933C429.849 75.933 429.835 75.9285 429.812 75.9285C423.541 75.9555 418.9 77.5762 415.877 80.8084C414.278 82.5013 413.135 84.6546 412.421 87.2774C411.969 88.9342 411.698 90.794 411.621 92.8661C411.594 93.5478 411.589 93.9902 411.598 94.2023C411.598 94.2023 411.598 94.2069 411.598 94.2114L411.598 129.292C409.163 129.432 407.057 130.394 405.3 132.177C403.537 134.086 402.665 136.325 402.702 138.885C402.787 141.445 403.754 143.634 405.611 145.462C407.347 147.065 409.339 147.918 411.598 148.04L411.598 155.954C410.464 156.071 409.461 156.54 408.598 157.38C407.645 158.36 407.157 159.533 407.148 160.879C407.157 162.233 407.645 163.407 408.598 164.386C409.588 165.343 410.753 165.826 412.109 165.844C413.456 165.826 414.63 165.343 415.62 164.386C416.578 163.407 417.061 162.233 417.07 160.888C417.061 159.533 416.573 158.36 415.62 157.38C414.757 156.549 413.763 156.071 412.624 155.954L412.624 148.035C415.06 147.895 417.161 146.934 418.914 145.151C420.685 143.241 421.557 141.002 421.521 138.443C421.435 135.892 420.468 133.693 418.611 131.865C416.885 130.263 414.883 129.418 412.624 129.292L412.624 112.02L412.624 94.243C412.624 94.243 412.62 94.2204 412.62 94.2114C412.638 91.2365 413.017 88.6723 413.754 86.528C414.422 84.5824 415.398 82.9256 416.673 81.5623C417.875 80.2847 419.339 79.269 421.087 78.5242C423.396 77.513 426.306 76.9983 429.812 76.9532C429.826 76.9532 429.83 76.9622 429.844 76.9667C429.88 76.9758 429.907 76.9758 429.925 76.9758L447.19 76.9758L447.19 93.7464C444.845 93.8818 442.798 94.7892 441.045 96.4776C439.229 98.342 438.316 100.568 438.294 103.118C438.321 105.678 439.233 107.899 441.045 109.768C442.794 111.461 444.845 112.363 447.19 112.499L447.19 120.412C446.056 120.53 445.062 121.004 444.204 121.83C443.246 122.814 442.762 123.974 442.744 125.328C442.753 126.674 443.232 127.847 444.186 128.836C445.171 129.798 446.341 130.285 447.687 130.303C449.043 130.294 450.218 129.811 451.207 128.863C452.165 127.875 452.649 126.71 452.667 125.356C452.658 124.01 452.179 122.837 451.225 121.848C450.367 121.004 449.359 120.525 448.221 120.408L448.221 112.494C450.566 112.359 452.613 111.456 454.361 109.772C456.169 107.894 457.09 105.682 457.113 103.123C457.086 100.563 456.173 98.351 454.361 96.4731C452.617 94.7802 450.566 93.8773 448.221 93.7419L448.221 76.9713L465.472 76.9713C465.472 76.9713 465.495 76.9713 465.504 76.9667C465.662 76.9713 465.901 76.9667 466.236 76.9532C469.304 76.8313 471.554 75.8878 472.995 74.1318C473.804 73.1522 474.351 71.9107 474.654 70.3984C474.83 69.5227 474.907 68.5611 474.907 67.5273L474.907 41.4211L482.805 41.4211C482.945 43.7731 483.849 45.8316 485.557 47.5741C487.396 49.3618 489.605 50.2737 492.176 50.3053C494.738 50.2782 496.961 49.3708 498.832 47.5561C500.527 45.809 501.43 43.7595 501.566 41.4166C504.837 41.4798 507.602 41.9944 509.848 42.947C511.592 43.6918 513.07 44.6985 514.272 45.967C515.541 47.3033 516.513 48.9329 517.2 50.8876C517.963 53.0409 518.356 55.6412 518.37 58.6793C518.352 61.6587 517.972 64.2184 517.236 66.3672C516.572 68.3038 515.627 69.9244 514.403 71.2562C511.601 74.3259 507.218 75.8923 501.249 75.9781C501.114 75.9239 500.938 75.9149 500.716 75.951C494.54 76.0187 489.967 77.6619 486.998 80.8806C485.417 82.5961 484.278 84.7539 483.587 87.3361C483.144 89.0199 482.882 90.8618 482.805 92.8571L482.796 94.1437C482.796 94.1708 482.782 94.1888 482.778 94.2159L482.778 129.265L465.499 129.265C465.499 129.265 465.486 129.269 465.477 129.274C465.454 129.274 465.436 129.265 465.409 129.265C459.182 129.283 454.542 130.899 451.501 134.118C449.897 135.82 448.74 137.964 448.035 140.542C447.584 142.189 447.312 144.004 447.227 145.977C447.199 146.744 447.186 147.259 447.199 147.53C447.199 147.539 447.199 147.548 447.195 147.557L447.195 165.334C447.195 165.334 447.195 165.352 447.199 165.361C447.181 168.354 446.802 170.936 446.047 173.094C445.369 175.04 444.389 176.688 443.11 178.051C441.904 179.32 440.426 180.326 438.678 181.071C436.432 182.028 433.667 182.538 430.4 182.601C430.26 180.236 429.352 178.177 427.639 176.435C425.755 174.629 423.536 173.726 420.974 173.708L420.965 173.708C418.403 173.749 416.198 174.679 414.328 176.503C412.665 178.236 411.77 180.272 411.635 182.597L385.906 182.597C385.775 181.365 385.242 180.304 384.307 179.428C383.263 178.525 382.075 178.11 380.728 178.159C379.373 178.245 378.234 178.787 377.299 179.794C376.395 180.827 375.97 182.015 376.029 183.369C376.106 184.714 376.657 185.861 377.656 186.8C378.681 187.694 379.861 188.109 381.216 188.068C382.59 187.982 383.737 187.441 384.664 186.434C385.391 185.603 385.802 184.669 385.906 183.631L411.635 183.631C411.77 185.992 412.683 188.05 414.395 189.793C416.248 191.58 418.453 192.483 421.024 192.519C423.622 192.474 425.854 191.549 427.702 189.734C429.37 187.987 430.264 185.951 430.395 183.626C436.396 183.549 440.901 181.942 443.887 178.8C445.496 177.117 446.662 174.963 447.371 172.34C447.832 170.666 448.103 168.824 448.189 166.828C448.212 166.12 448.221 165.637 448.212 165.366C448.212 165.366 448.212 165.361 448.212 165.357L448.212 147.589C448.212 147.589 448.203 147.566 448.203 147.552C448.221 144.546 448.609 141.959 449.364 139.797C450.051 137.842 451.022 136.203 452.283 134.876C453.48 133.599 454.958 132.592 456.706 131.847C459.015 130.859 461.912 130.335 465.373 130.29C465.4 130.299 465.432 130.308 465.463 130.308L482.769 130.308L482.769 147.548C482.769 147.548 482.769 147.561 482.769 147.57C482.76 147.837 482.769 148.311 482.787 149.02C482.873 151.019 483.135 152.848 483.587 154.532C484.31 157.145 485.462 159.308 487.061 160.996C490.017 164.142 494.521 165.763 500.581 165.849C500.721 168.219 501.634 170.282 503.351 172.038C505.199 173.817 507.417 174.719 509.988 174.747C512.55 174.71 514.764 173.794 516.635 171.97C518.311 170.228 519.21 168.192 519.341 165.858L536.137 165.858C536.137 166.115 536.15 166.44 536.159 166.833C536.245 168.828 536.516 170.67 536.977 172.345C537.686 174.968 538.852 177.117 540.456 178.805C543.488 182.015 548.138 183.631 554.4 183.64C554.409 183.64 554.418 183.64 554.427 183.64C554.432 183.64 554.436 183.64 554.445 183.64L571.747 183.64C571.882 186.001 572.795 188.064 574.507 189.811C576.392 191.607 578.615 192.51 581.177 192.528C583.739 192.483 585.948 191.558 587.814 189.734C589.486 188.001 590.376 185.96 590.507 183.64L625.598 183.64C625.598 183.64 625.602 183.64 625.607 183.64C625.611 183.64 625.616 183.64 625.62 183.64L643.369 183.64C643.369 183.64 643.374 183.64 643.383 183.64C643.383 183.64 643.383 183.64 643.387 183.64C649.641 183.649 654.308 182.033 657.376 178.805C658.985 177.121 660.151 174.968 660.86 172.345C661.321 170.67 661.592 168.828 661.669 166.833C661.7 166.052 661.714 165.542 661.7 165.294C661.723 162.278 662.112 159.7 662.862 157.57C663.549 155.615 664.52 153.976 665.781 152.649C666.987 151.371 668.456 150.369 670.209 149.62C672.527 148.618 675.428 148.103 678.902 148.063C678.938 148.067 678.97 148.081 679.011 148.081L714.083 148.081C714.219 150.401 715.104 152.432 716.776 154.175C718.633 155.999 720.852 156.929 723.405 156.969C725.967 156.96 728.19 156.048 730.074 154.252C731.791 152.505 732.713 150.442 732.844 148.072C738.849 147.995 743.354 146.388 746.336 143.246C747.945 141.562 749.11 139.409 749.82 136.79C750.281 135.111 750.547 133.274 750.629 131.278C750.66 130.601 750.665 130.127 750.66 129.829C750.66 129.825 750.66 129.82 750.66 129.816L750.66 112.526C756.697 112.436 761.202 110.82 764.152 107.673C765.747 105.98 766.904 103.827 767.618 101.209C768.07 99.5338 768.341 97.6919 768.427 95.6966C768.44 95.2993 768.445 94.9833 768.449 94.7305C770.795 94.5951 772.841 93.6877 774.595 91.9994C776.411 90.135 777.324 87.9185 777.346 85.3588C777.324 82.7992 776.406 80.5737 774.595 78.7093C772.85 77.0164 770.795 76.1136 768.449 75.9781L768.449 58.6703C768.449 58.6703 768.449 58.6658 768.449 58.6613C768.458 58.413 768.449 57.948 768.427 57.2483C768.341 55.2168 768.07 53.3615 767.618 51.7002C766.9 49.0819 765.734 46.9241 764.134 45.2357C761.071 42.008 756.403 40.4009 750.154 40.4009L715.073 40.4009C715.131 37.6517 715.506 35.2501 716.207 33.1961C716.876 31.2504 717.847 29.5937 719.135 28.2303C720.337 26.9528 721.801 25.9461 723.549 25.2012C725.89 24.1945 728.804 23.6799 732.306 23.6438C732.329 23.6438 732.347 23.6573 732.369 23.6573L767.451 23.6573C767.582 25.9912 768.486 28.0407 770.171 29.7878C772.046 31.6025 774.26 32.5189 776.827 32.546C779.389 32.5189 781.607 31.607 783.482 29.7923C785.177 28.0498 786.081 25.9958 786.216 23.6573L803.07 23.6573C803.187 24.7995 803.666 25.7971 804.498 26.6594C805.492 27.6074 806.662 28.0904 808.018 28.0994C809.364 28.0814 810.53 27.5983 811.52 26.6323C812.473 25.6256 812.952 24.4564 812.961 23.1066C812.943 21.7523 812.459 20.5876 811.501 19.608C810.512 18.651 809.337 18.168 807.982 18.1589ZM663.987 131.441C664.741 132.226 665.125 133.143 665.144 134.213C665.13 135.296 664.741 136.226 663.987 137.007C663.205 137.761 662.283 138.145 661.217 138.154C660.146 138.154 659.229 137.77 658.438 137.016C657.67 136.235 657.29 135.314 657.272 134.249C657.272 133.183 657.656 132.262 658.402 131.472C659.175 130.71 660.105 130.321 661.19 130.299L661.208 130.299C662.279 130.308 663.201 130.691 663.987 131.445L663.987 131.441ZM693.831 117.921C692.16 119.537 690.18 120.358 687.908 120.376C685.63 120.358 683.651 119.541 681.979 117.939C680.353 116.273 679.539 114.291 679.512 112.02C679.53 109.745 680.348 107.768 681.961 106.093C683.629 104.477 685.603 103.664 687.881 103.637L687.899 103.637C690.176 103.655 692.155 104.472 693.822 106.084C695.44 107.75 696.253 109.732 696.285 112.002C696.267 114.277 695.449 116.255 693.836 117.921L693.831 117.921ZM734.023 2.58909C734.796 1.82617 735.727 1.43343 736.811 1.41537L736.829 1.41537C737.914 1.4244 738.844 1.81263 739.617 2.57103C740.372 3.36103 740.756 4.28195 740.765 5.34733C740.756 6.41722 740.372 7.33362 739.617 8.11459C738.826 8.88203 737.905 9.26123 736.838 9.27026C735.776 9.27026 734.85 8.89105 734.059 8.13265C733.305 7.35168 732.912 6.43076 732.894 5.36538C732.903 4.30452 733.278 3.37909 734.023 2.58909ZM684.925 43.8634C686.543 45.5291 687.361 47.5064 687.383 49.7816C687.365 52.0568 686.548 54.0341 684.934 55.6999C683.267 57.316 681.288 58.1376 679.011 58.1556C676.733 58.1376 674.75 57.3205 673.083 55.7179C671.46 54.0431 670.643 52.0749 670.615 49.7997C670.634 47.5245 671.451 45.5472 673.064 43.8724C674.732 42.2563 676.706 41.4302 678.979 41.4166L678.997 41.4166C681.275 41.4347 683.254 42.2518 684.921 43.8634L684.925 43.8634ZM643.925 41.4166L652.334 41.4166C655.632 41.4076 658.054 40.5318 659.608 38.8073C660.476 37.8368 661.077 36.5908 661.407 35.1011C661.615 34.1666 661.71 33.1374 661.71 32.0133L661.71 23.1066C661.71 23.1066 661.7 23.084 661.696 23.0705C661.728 21.5537 661.922 20.2852 662.306 19.2514C662.609 18.4162 663.033 17.6894 663.585 17.08C664.29 16.299 665.184 15.7077 666.278 15.3284C666.802 15.1388 667.371 14.9989 667.99 14.9041C668.623 14.8048 669.314 14.7596 670.073 14.7506C670.082 14.7506 670.091 14.7551 670.1 14.7551L679.752 14.7551C679.594 15.1975 679.44 15.6535 679.314 16.1275C678.862 17.8113 678.591 19.6441 678.505 21.6394C678.482 22.3482 678.473 22.8357 678.482 23.1066C678.482 23.1066 678.482 23.1111 678.482 23.1156L678.482 40.4144C676.137 40.5499 674.09 41.4572 672.341 43.1456C670.647 44.8836 669.752 46.9376 669.612 49.2715L643.92 49.2715L643.92 41.4166L643.925 41.4166ZM643.92 58.6883C643.92 58.6883 643.92 58.6793 643.92 58.6748L643.92 50.2962L669.612 50.2962C669.748 52.6392 670.647 54.6887 672.341 56.4267C674.09 58.1195 676.137 59.0224 678.482 59.1578L678.482 76.425C678.482 76.425 678.487 76.4431 678.491 76.4566C678.473 79.4632 678.094 82.0499 677.33 84.2077C676.661 86.1443 675.676 87.8011 674.393 89.1554C673.186 90.4329 671.718 91.4396 669.969 92.1754C667.62 93.1731 664.714 93.6877 661.271 93.7148C661.262 93.7148 661.258 93.7148 661.253 93.7103L661.199 93.7013L643.92 93.7013L643.92 76.4882C643.92 76.4882 643.92 76.4792 643.92 76.4702L643.92 76.4612L643.92 58.6929C643.92 58.6929 643.92 58.6838 643.92 58.6793L643.92 58.6883ZM414.883 158.111C415.642 158.892 416.022 159.813 416.04 160.879C416.031 161.948 415.656 162.865 414.901 163.655C414.129 164.418 413.198 164.811 412.114 164.82C411.043 164.82 410.125 164.436 409.335 163.682C408.58 162.901 408.187 161.98 408.173 160.915C408.173 159.845 408.553 158.928 409.303 158.138C410.076 157.376 411.006 156.983 412.091 156.969L412.109 156.969C413.18 156.978 414.097 157.357 414.888 158.116L414.883 158.111ZM417.888 132.606C419.542 134.24 420.409 136.19 420.477 138.465C420.509 140.749 419.745 142.745 418.164 144.447C416.546 146.103 414.585 146.966 412.267 147.042C409.981 147.06 408.002 146.288 406.325 144.735C404.667 143.11 403.8 141.16 403.718 138.885C403.682 136.601 404.455 134.605 406.027 132.903C407.658 131.247 409.606 130.375 411.892 130.299L411.901 130.299C414.187 130.263 416.176 131.039 417.888 132.606ZM450.462 122.548C451.212 123.315 451.6 124.222 451.628 125.301C451.628 126.371 451.253 127.288 450.525 128.069C449.752 128.841 448.831 129.238 447.773 129.265C446.689 129.274 445.749 128.908 444.958 128.163C444.177 127.382 443.774 126.453 443.761 125.369C443.77 124.286 444.145 123.356 444.9 122.575C445.672 121.812 446.603 121.428 447.687 121.41L447.706 121.41C448.776 121.428 449.694 121.798 450.466 122.548L450.462 122.548ZM453.616 97.1953C455.233 98.8611 456.047 100.843 456.074 103.114C456.056 105.389 455.238 107.366 453.625 109.032C451.948 110.648 449.974 111.47 447.696 111.488C445.424 111.47 443.44 110.652 441.773 109.05C440.146 107.375 439.333 105.402 439.306 103.132C439.324 100.847 440.142 98.8792 441.755 97.2044C443.427 95.5882 445.397 94.7666 447.674 94.7486L447.692 94.7486C449.969 94.7666 451.948 95.5792 453.616 97.1953ZM473.316 71.3013C473.041 72.1094 472.657 72.8091 472.16 73.4095C471.455 74.2582 470.551 74.8947 469.421 75.319C468.902 75.5086 468.319 75.6666 467.686 75.7705C467.036 75.8833 466.281 75.933 465.422 75.942L448.203 75.933L448.203 58.6703C448.203 58.6703 448.198 58.6522 448.194 58.6432C448.212 55.6547 448.591 53.077 449.346 50.9192C450.024 48.9735 451.004 47.3258 452.292 45.9625C453.489 44.694 454.967 43.6873 456.715 42.9424C459.06 41.9448 461.966 41.4256 465.427 41.4031C465.45 41.4031 465.468 41.4166 465.49 41.4166L473.868 41.4166L473.868 67.5499C473.868 67.5499 473.877 67.586 473.881 67.6041C473.854 69.0803 473.664 70.3127 473.321 71.3013L473.316 71.3013ZM498.123 46.7977C496.455 48.4228 494.481 49.2444 492.208 49.2715C489.931 49.2625 487.952 48.4544 486.275 46.8473C484.649 45.1815 483.826 43.2088 483.79 40.9336C483.799 38.6584 484.608 36.6811 486.212 35.0063C487.879 33.3811 489.854 32.5505 492.127 32.5234L492.145 32.5234C494.422 32.5325 496.401 33.3405 498.077 34.9521C499.704 36.6179 500.517 38.5816 500.554 40.8613C500.536 43.1365 499.727 45.1138 498.123 46.7886L498.123 46.7977ZM383.9 185.73C383.173 186.529 382.26 186.962 381.18 187.039C380.109 187.084 379.165 186.755 378.338 186.041C377.538 185.301 377.104 184.398 377.037 183.342C376.982 182.272 377.312 181.328 378.017 180.502C378.749 179.703 379.657 179.261 380.737 179.184L380.764 179.184C381.826 179.139 382.771 179.469 383.597 180.191C384.397 180.931 384.822 181.829 384.894 182.89C384.944 183.96 384.614 184.904 383.905 185.73L383.9 185.73ZM426.961 189.003C425.312 190.628 423.328 191.449 421.019 191.486C418.724 191.459 416.763 190.659 415.109 189.075C413.483 187.418 412.651 185.445 412.615 183.17C412.624 180.886 413.433 178.909 415.032 177.234C416.691 175.609 418.665 174.778 420.943 174.742L420.961 174.742C423.238 174.751 425.217 175.559 426.902 177.162C428.529 178.818 429.352 180.791 429.388 183.066C429.379 185.351 428.57 187.319 426.966 189.003L426.961 189.003ZM622.652 135.707C620.98 137.323 619.01 138.136 616.724 138.154C614.442 138.127 612.467 137.323 610.827 135.734C609.2 134.068 608.378 132.104 608.342 129.82C608.351 127.545 609.155 125.568 610.764 123.893C612.431 122.268 614.406 121.437 616.683 121.41L616.701 121.41C618.978 121.419 620.957 122.227 622.634 123.839C624.251 125.486 625.083 127.468 625.11 129.784C625.092 132.059 624.265 134.028 622.652 135.702L622.652 135.707ZM642.904 76.4566C642.904 76.4566 642.904 76.4612 642.904 76.4657L642.904 93.7193L608.315 93.7103C608.175 91.3719 607.28 89.3269 605.586 87.5799C603.846 85.887 601.79 84.9842 599.445 84.8487L599.445 76.9397C601.79 76.8042 603.837 75.8969 605.586 74.2085C607.402 72.3441 608.315 70.1276 608.342 67.568C608.315 65.0084 607.402 62.7873 605.586 60.9184C603.846 59.23 601.795 58.3227 599.454 58.1872C599.513 56.86 599.698 55.7315 600.046 54.797C600.349 53.9664 600.778 53.2351 601.325 52.6256C602.03 51.8446 602.924 51.2533 604.018 50.8741C604.542 50.6845 605.111 50.5445 605.73 50.4497C606.363 50.3459 607.059 50.3053 607.813 50.2962C607.822 50.2962 607.831 50.2962 607.84 50.3008L642.908 50.3008L642.908 58.6522L642.908 58.6612C642.908 58.6612 642.908 58.6658 642.908 58.6703L642.908 76.4476C642.908 76.4476 642.908 76.4521 642.908 76.4566L642.904 76.4566ZM593.006 100.161C591.393 98.4864 590.575 96.5137 590.548 94.243C590.566 91.9588 591.384 89.9905 592.997 88.3157C594.664 86.7041 596.639 85.878 598.912 85.8599L598.93 85.8599C601.207 85.878 603.186 86.6951 604.854 88.3067C606.471 89.9725 607.284 91.9542 607.312 94.2249C607.294 96.5001 606.471 98.4774 604.863 100.148C603.186 101.759 601.216 102.585 598.939 102.603C596.653 102.585 594.678 101.768 593.006 100.166L593.006 100.161ZM601.704 113.659C602.459 114.44 602.852 115.361 602.87 116.431C602.87 117.487 602.49 118.417 601.74 119.207C600.968 119.97 600.037 120.363 598.952 120.381C597.891 120.381 596.964 120.006 596.174 119.252C595.41 118.471 595.017 117.55 594.999 116.485C594.999 115.424 595.374 114.499 596.128 113.709C596.892 112.946 597.823 112.548 598.912 112.526L598.93 112.526C599.987 112.526 600.918 112.91 601.709 113.664L601.704 113.659ZM593.015 73.4952C591.393 71.8204 590.575 69.8477 590.548 67.5725C590.566 65.2928 591.384 63.32 592.997 61.6452C594.664 60.0291 596.639 59.2075 598.912 59.1894L598.93 59.1894C601.207 59.2075 603.186 60.0246 604.854 61.6362C606.471 63.3019 607.284 65.2837 607.312 67.5544C607.294 69.8296 606.476 71.8069 604.863 73.4772C603.186 75.0933 601.216 75.9149 598.939 75.933C596.662 75.9149 594.678 75.0978 593.011 73.4952L593.015 73.4952ZM610.791 17.2064C612.458 15.5903 614.428 14.7642 616.706 14.7461L616.724 14.7461C619.001 14.7642 620.98 15.5812 622.652 17.1929C624.265 18.8586 625.083 20.8404 625.11 23.1111C625.092 25.3863 624.274 27.3681 622.661 29.0339C620.985 30.6455 619.014 31.4716 616.737 31.4897C614.451 31.4716 612.481 30.659 610.809 29.0519C609.182 27.3771 608.369 25.4044 608.342 23.1337C608.36 20.8494 609.173 18.8812 610.791 17.2064ZM538.315 33.1419C538.992 31.1962 539.973 29.5485 541.261 28.1852C542.458 26.9167 543.936 25.91 545.684 25.1651C548.029 24.1674 550.935 23.6483 554.4 23.6212C554.418 23.6212 554.436 23.6348 554.459 23.6348L572.253 23.6348C572.253 23.6348 572.253 23.6348 572.257 23.6348L607.339 23.6348C607.474 25.9732 608.378 28.0182 610.068 29.7652C611.934 31.5799 614.162 32.4963 616.724 32.5234C619.286 32.4963 621.504 31.5799 623.379 29.7697C625.065 28.0227 625.968 25.9732 626.104 23.6303C629.375 23.6935 632.136 24.2081 634.386 25.1606C636.135 25.9055 637.608 26.9122 638.81 28.1807C640.093 29.544 641.078 31.1917 641.756 33.1374C642.465 35.1733 642.845 37.593 642.899 40.3783L590.028 40.3783C583.779 40.3693 579.125 41.9854 576.057 45.2131C574.449 46.897 573.288 49.0503 572.574 51.6686C572.113 53.3434 571.846 55.1852 571.756 57.1806C571.742 57.5868 571.738 57.9209 571.733 58.1827C569.388 58.3182 567.341 59.221 565.593 60.9049C563.776 62.7828 562.863 65.0038 562.836 67.5544C562.859 70.114 563.772 72.3351 565.588 74.204C567.337 75.8969 569.388 76.7997 571.729 76.9351L571.729 84.8487C570.59 84.9661 569.582 85.4446 568.724 86.2888C567.77 87.2774 567.292 88.4511 567.282 89.7964C567.301 91.1507 567.784 92.3154 568.742 93.304C569.731 94.252 570.906 94.7351 572.262 94.7441C573.608 94.726 574.783 94.2385 575.764 93.2769C576.722 92.2883 577.196 91.1146 577.205 89.7693C577.187 88.415 576.699 87.2503 575.746 86.2707C574.887 85.4446 573.888 84.9706 572.754 84.8532L572.754 76.9397C575.099 76.8042 577.146 75.9014 578.899 74.2175C580.716 72.3441 581.629 70.1276 581.656 67.568C581.629 65.0084 580.716 62.7873 578.899 60.9184C577.16 59.2255 575.104 58.3227 572.759 58.1872C572.813 55.3884 573.193 52.9732 573.907 50.9282C574.584 48.9781 575.556 47.3303 576.844 45.9715C578.05 44.694 579.528 43.6873 581.272 42.9424C583.608 41.9448 586.518 41.4256 589.974 41.4031C589.992 41.4031 590.006 41.4121 590.028 41.4166L625.625 41.4166C625.625 41.4166 625.629 41.4166 625.634 41.4166L642.908 41.4166L642.908 49.2715L607.836 49.2715C604.519 49.2805 602.084 50.1473 600.52 51.8943C599.662 52.8558 599.052 54.0973 598.722 55.6186C598.555 56.4086 598.46 57.2663 598.437 58.1872C596.088 58.3227 594.036 59.2255 592.283 60.9094C590.467 62.7873 589.554 64.9993 589.527 67.5589C589.554 70.1186 590.462 72.3396 592.283 74.2085C594.032 75.9014 596.079 76.8042 598.424 76.9397L598.424 84.8487C596.079 84.9887 594.032 85.8915 592.283 87.5799C590.589 89.3179 589.694 91.3719 589.554 93.7103C589.437 93.7103 589.31 93.7193 589.17 93.7284L589.161 93.7284C583.174 93.8773 578.737 95.5612 575.836 98.7889C574.3 100.491 573.184 102.653 572.506 105.244C572.072 106.928 571.819 108.811 571.751 110.914L571.733 111.944C571.733 114.896 571.367 117.465 570.613 119.659C569.957 121.577 569.013 123.216 567.761 124.579C564.969 127.64 560.586 129.206 554.604 129.292C554.563 129.278 554.527 129.265 554.477 129.256L537.171 129.256L537.171 76.9306C539.516 76.7952 541.563 75.8923 543.312 74.2085C545.128 72.3351 546.041 70.1185 546.068 67.5589C546.041 64.9993 545.128 62.7828 543.312 60.9094C541.572 59.2165 539.516 58.3136 537.171 58.1782L537.171 40.8659C537.171 40.8659 537.171 40.8523 537.167 40.8433C537.189 37.8593 537.569 35.2862 538.319 33.1329L538.315 33.1419ZM566.325 73.4952C564.698 71.8204 563.885 69.8477 563.857 67.5725C563.876 65.2973 564.693 63.32 566.306 61.6452C567.978 60.0291 569.948 59.2075 572.226 59.1894L572.244 59.1894C574.521 59.2075 576.5 60.0246 578.167 61.6362C579.785 63.3019 580.598 65.2837 580.626 67.5544C580.607 69.8296 579.79 71.8069 578.176 73.4772C576.509 75.0933 574.526 75.9149 572.248 75.933C569.975 75.9149 567.992 75.0978 566.325 73.4952ZM575.009 86.993C575.768 87.774 576.157 88.6949 576.175 89.7603C576.175 90.8211 575.791 91.7466 575.045 92.5366C574.273 93.2995 573.342 93.6877 572.257 93.7058C571.195 93.7058 570.265 93.3311 569.478 92.5772C568.715 91.8053 568.322 90.8753 568.308 89.7919C568.317 88.7355 568.688 87.8056 569.447 87.0156C570.228 86.2527 571.15 85.8689 572.217 85.8509L572.235 85.8509C573.292 85.8509 574.223 86.2346 575.014 86.9885L575.009 86.993ZM503.884 124.015C505.51 122.358 507.462 121.487 509.74 121.41L509.758 121.41C512.044 121.374 514.032 122.137 515.745 123.717C517.403 125.338 518.275 127.292 518.352 129.567C518.388 131.852 517.611 133.838 516.043 135.549C514.416 137.206 512.464 138.072 510.187 138.154C507.905 138.19 505.913 137.422 504.205 135.851C502.546 134.226 501.674 132.276 501.588 130.001C501.552 127.717 502.316 125.721 503.888 124.01L503.884 124.015ZM515.935 171.216C514.276 172.837 512.311 173.672 510.024 173.708C507.747 173.708 505.768 172.909 504.083 171.302C502.456 169.645 501.625 167.682 501.579 165.402C501.579 163.127 502.388 161.149 503.988 159.466C505.646 157.831 507.611 157.001 509.898 156.965L509.948 156.965C512.234 156.983 514.204 157.786 515.849 159.375C517.48 161.023 518.316 162.996 518.352 165.271C518.343 167.555 517.543 169.533 515.935 171.216ZM536.141 147.579L536.141 164.82L527.759 164.82C527.732 164.82 527.714 164.829 527.701 164.829L519.346 164.82C519.206 162.436 518.284 160.378 516.576 158.649C514.692 156.843 512.464 155.94 509.902 155.931C507.34 155.976 505.122 156.911 503.265 158.734C501.602 160.472 500.716 162.504 500.581 164.82C497.278 164.747 494.499 164.237 492.267 163.271C490.518 162.522 489.054 161.506 487.852 160.242C486.592 158.906 485.62 157.263 484.933 155.312C484.179 153.159 483.799 150.577 483.781 147.589C483.781 147.579 483.781 147.575 483.786 147.561L483.786 130.294L500.576 130.294C500.725 132.732 501.683 134.827 503.473 136.587C505.393 138.348 507.625 139.214 510.196 139.174C512.754 139.084 514.949 138.113 516.775 136.267C518.374 134.538 519.224 132.547 519.35 130.294L536.141 130.294L536.141 147.534C536.141 147.534 536.141 147.548 536.141 147.557C536.141 147.566 536.141 147.57 536.141 147.579ZM536.661 75.9375C534.383 75.9194 532.404 75.1023 530.737 73.4998C529.11 71.825 528.297 69.8522 528.27 67.577C528.288 65.3018 529.106 63.3245 530.719 61.6497C532.386 60.0336 534.361 59.212 536.634 59.1939L536.652 59.1939C538.924 59.212 540.908 60.0291 542.575 61.6407C544.193 63.3065 545.006 65.2882 545.034 67.5589C545.015 69.8341 544.198 71.8114 542.584 73.4817C540.917 75.0978 538.934 75.9194 536.661 75.9375ZM537.167 147.57L537.167 130.299L553.935 130.299L553.935 156.459C553.935 156.459 553.944 156.486 553.948 156.5C553.917 158.017 553.723 159.299 553.338 160.323C553.036 161.168 552.606 161.885 552.06 162.495C551.355 163.285 550.451 163.863 549.358 164.255C548.847 164.436 548.273 164.576 547.645 164.671C547.031 164.77 546.348 164.82 545.594 164.824C545.585 164.824 545.576 164.82 545.567 164.82L537.167 164.82L537.167 147.57ZM587.082 189.021C585.415 190.646 583.441 191.459 581.163 191.486C578.877 191.477 576.907 190.659 575.23 189.057C573.604 187.391 572.781 185.418 572.754 183.148C572.772 180.863 573.581 178.886 575.19 177.211C576.857 175.595 578.832 174.774 581.114 174.747L581.123 174.747C583.409 174.765 585.379 175.573 587.055 177.184C588.673 178.85 589.495 180.823 589.522 183.094C589.504 185.378 588.686 187.346 587.082 189.021ZM651.796 174.227L651.796 181.211C649.541 182.105 646.771 182.574 643.477 182.606C643.477 182.606 643.468 182.606 643.464 182.606C643.432 182.597 643.405 182.597 643.387 182.597L590.521 182.597C590.381 180.236 589.468 178.177 587.76 176.426C585.908 174.647 583.694 173.74 581.123 173.708C578.524 173.749 576.301 174.679 574.449 176.503C572.777 178.245 571.891 180.277 571.756 182.597L554.45 182.597C554.45 182.597 554.414 182.606 554.396 182.61C550.935 182.583 548.034 182.064 545.684 181.067C543.949 180.331 542.462 179.315 541.233 178.01C539.973 176.683 539.001 175.04 538.315 173.09C537.605 171.054 537.226 168.639 537.171 165.849L545.544 165.849C548.856 165.849 551.296 164.982 552.859 163.235C553.727 162.265 554.328 161.032 554.658 159.529C554.866 158.599 554.961 157.565 554.961 156.441L554.961 130.285C561.047 130.204 565.579 128.556 568.566 125.319C570.138 123.59 571.277 121.437 571.955 118.85C572.397 117.176 572.659 115.325 572.736 113.293C572.745 112.874 572.75 112.458 572.75 112.025C572.75 111.984 572.75 111.948 572.75 111.921C572.772 109.041 573.134 106.54 573.843 104.423C574.476 102.522 575.407 100.893 576.613 99.5383C579.347 96.4595 583.662 94.8524 589.549 94.7034C589.681 97.0599 590.58 99.1229 592.279 100.87C594.027 102.558 596.074 103.466 598.419 103.601L598.419 111.515C597.249 111.637 596.232 112.138 595.36 113.004C594.411 114.011 593.946 115.207 593.973 116.598C594.032 117.979 594.569 119.148 595.568 120.096C596.603 121.017 597.809 121.451 599.201 121.397C600.538 121.311 601.668 120.774 602.59 119.798C603.484 118.801 603.918 117.636 603.891 116.291C603.832 114.955 603.326 113.817 602.373 112.874C601.523 112.084 600.552 111.632 599.445 111.515L599.445 103.601C601.79 103.466 603.837 102.558 605.586 100.879C607.28 99.132 608.175 97.087 608.315 94.7441L642.904 94.7441L642.904 111.966C642.904 111.966 642.904 111.989 642.908 112.002C642.89 115.009 642.511 117.595 641.756 119.758C641.078 121.703 640.098 123.351 638.81 124.715C637.608 125.983 636.135 126.99 634.386 127.735C632.136 128.692 629.375 129.202 626.104 129.269C625.968 126.913 625.06 124.859 623.352 123.107C621.477 121.302 619.249 120.39 616.696 120.376L616.687 120.376C614.125 120.412 611.907 121.338 610.041 123.153C608.369 124.904 607.474 126.94 607.339 129.269C601.329 129.351 596.824 130.953 593.838 134.095C592.238 135.788 591.077 137.941 590.354 140.551C589.911 142.18 589.64 144.013 589.545 146.063C589.522 146.753 589.513 147.236 589.522 147.507C589.513 147.706 589.522 148.207 589.545 149.001C589.64 151.051 589.902 152.884 590.354 154.513C591.068 157.136 592.22 159.29 593.819 160.978C596.842 164.197 601.492 165.822 607.754 165.84C607.772 165.84 607.782 165.835 607.795 165.835C607.813 165.835 607.831 165.84 607.845 165.84L625.593 165.84C625.593 165.84 625.616 165.84 625.629 165.84C625.629 165.84 625.629 165.84 625.634 165.84L643.419 165.84C643.419 165.84 643.437 165.835 643.446 165.831C644.196 165.84 644.892 165.894 645.515 165.984C646.139 166.079 646.704 166.228 647.228 166.409C648.321 166.792 649.225 167.379 649.93 168.16C650.468 168.779 650.892 169.496 651.2 170.341C651.588 171.388 651.782 172.675 651.805 174.196C651.805 174.2 651.805 174.205 651.805 174.214L651.796 174.227ZM729.383 153.507C727.733 155.096 725.768 155.904 723.473 155.926C721.164 155.899 719.18 155.064 717.531 153.453C715.918 151.769 715.109 149.796 715.1 147.516C715.131 145.241 715.958 143.273 717.585 141.607C719.261 140 721.245 139.192 723.518 139.187L723.536 139.187C725.809 139.219 727.783 140.045 729.441 141.67C731.05 143.354 731.859 145.327 731.868 147.607C731.836 149.882 731.009 151.85 729.383 153.511L729.383 153.507ZM714.422 75.9375C712.136 75.8653 710.188 75.0166 708.575 73.4005C707.003 71.7437 706.212 69.7664 706.203 67.4822C706.253 65.198 707.089 63.2388 708.688 61.6136C710.337 60.0246 712.303 59.2165 714.598 59.1894L714.607 59.1894C716.925 59.2255 718.909 60.0562 720.558 61.6813C722.153 63.3471 722.962 65.3379 722.971 67.6537C722.912 69.9696 722.067 71.9423 720.427 73.572C718.742 75.161 716.74 75.951 714.422 75.933L714.422 75.9375ZM767.948 76.9668L767.966 76.9668C770.243 76.9848 772.222 77.7974 773.89 79.4135C775.507 81.0793 776.321 83.0565 776.348 85.3318C776.334 87.607 775.516 89.5842 773.899 91.2545C772.231 92.8661 770.252 93.6923 767.975 93.7103C765.698 93.6923 763.719 92.8797 762.051 91.2726C760.425 89.6068 759.607 87.6295 759.584 85.3543C759.602 83.0791 760.42 81.1019 762.033 79.4271C763.701 77.8109 765.675 76.9893 767.952 76.9713L767.948 76.9668ZM716.799 41.4166L750.177 41.4166C750.177 41.4166 750.208 41.4076 750.231 41.4031C753.683 41.4302 756.593 41.9493 758.925 42.9424C760.678 43.6873 762.155 44.694 763.353 45.9625C764.64 47.3168 765.621 48.9736 766.299 50.9192C767.053 53.0771 767.433 55.6547 767.451 58.6613C767.451 58.6748 767.446 58.6838 767.442 58.6974L767.442 75.9646C765.097 76.1045 763.05 77.0074 761.301 78.6912C759.485 80.5647 758.572 82.7812 758.549 85.3408C758.577 87.9004 759.485 90.1214 761.301 91.9904C763.05 93.6832 765.097 94.5861 767.442 94.7215C767.388 97.5159 767.013 99.9446 766.299 101.985C765.612 103.94 764.64 105.578 763.38 106.906C762.178 108.183 760.714 109.194 758.965 109.944C756.738 110.905 753.968 111.42 750.674 111.492C750.674 111.235 750.66 110.91 750.651 110.517C750.561 108.522 750.294 106.689 749.842 105.005C749.119 102.391 747.958 100.238 746.359 98.5451C743.291 95.3174 738.628 93.7103 732.369 93.7103C732.347 93.7103 732.329 93.7193 732.306 93.7238C728.85 93.6968 725.949 93.1776 723.604 92.18C721.868 91.4441 720.382 90.4284 719.144 89.1238C717.892 87.7966 716.921 86.1534 716.234 84.2032C715.52 82.1582 715.145 79.734 715.091 76.9352C717.422 76.7997 719.465 75.9059 721.213 74.2221C723.03 72.3576 723.952 70.1411 723.983 67.5905C723.965 65.0219 723.057 62.8099 721.249 60.9319C719.501 59.2255 717.445 58.3227 715.091 58.1827L715.091 41.4121L716.794 41.4121L716.799 41.4166ZM782.787 29.0474C781.11 30.6635 779.136 31.4761 776.858 31.4942C774.563 31.4671 772.602 30.6635 770.957 29.0745C769.335 27.4087 768.508 25.436 768.472 23.1608C768.481 20.8765 769.29 18.8993 770.903 17.2245C772.561 15.5993 774.536 14.7777 776.813 14.7506L776.831 14.7506C779.149 14.7687 781.133 15.5948 782.791 17.2109C784.409 18.8767 785.222 20.854 785.24 23.1292C785.213 25.4134 784.395 27.3816 782.782 29.0474L782.787 29.0474ZM810.806 25.8784C810.033 26.6413 809.102 27.034 808.018 27.0521C806.956 27.0521 806.03 26.6774 805.239 25.9235C804.475 25.1426 804.087 24.2216 804.069 23.1563C804.069 22.0954 804.439 21.17 805.189 20.38C805.962 19.617 806.893 19.2153 807.982 19.1972L808 19.1972C809.057 19.1972 809.988 19.5809 810.779 20.3348C811.533 21.1158 811.926 22.0367 811.944 23.1021C811.944 24.1584 811.56 25.0884 810.815 25.8784L810.806 25.8784Z" fill="white"/>
<path d="M376.944 186.811C375.94 185.772 375.434 184.553 375.412 183.14C375.425 181.705 375.945 180.472 376.944 179.439C377.978 178.441 379.198 177.935 380.613 177.922C382.027 177.922 383.247 178.427 384.295 179.43C385.307 180.463 385.813 181.682 385.836 183.1C385.836 184.513 385.33 185.732 384.34 186.779C383.315 187.79 382.086 188.309 380.644 188.332L380.622 188.332C379.203 188.318 377.987 187.813 376.939 186.815L376.944 186.811Z" fill="#0059FE"/>
<path d="M361.701 71.4512C360.698 70.4129 360.192 69.194 360.17 67.781C360.183 66.3455 360.703 65.1131 361.701 64.0793C362.736 63.0816 363.956 62.576 365.37 62.5625C366.785 62.5625 368.005 63.0681 369.053 64.0703C370.065 65.1041 370.571 66.3229 370.594 67.7404C370.594 69.1534 370.088 70.3722 369.098 71.4196C368.072 72.4308 366.843 72.9499 365.402 72.9725L365.379 72.9725C363.961 72.9589 362.745 72.4533 361.697 71.4557L361.701 71.4512Z" fill="#0059FE"/>
<path d="M210.49 80.3652C209.487 79.3269 208.981 78.1081 208.959 76.6951C208.972 75.2595 209.492 74.0271 210.49 72.9934C211.525 71.9957 212.745 71.4901 214.159 71.4766C215.574 71.4766 216.794 71.9822 217.842 72.9843C218.854 74.0181 219.36 75.237 219.383 76.6545C219.383 78.0674 218.877 79.2863 217.887 80.3336C216.862 81.3448 215.632 81.864 214.191 81.8865L214.168 81.8865C212.75 81.873 211.534 81.3674 210.486 80.3697L210.49 80.3652Z" fill="#0059FE"/>
<path d="M72.5999 191.482C71.5968 190.444 71.0907 189.225 71.0681 187.812C71.0816 186.377 71.6013 185.144 72.5999 184.111C73.6346 183.113 74.8546 182.607 76.2689 182.594C77.6831 182.594 78.9031 183.099 79.9514 184.102C80.9636 185.135 81.4696 186.354 81.4922 187.772C81.4922 189.185 80.9861 190.403 79.9966 191.451C78.9709 192.462 77.7419 192.981 76.3005 193.004L76.2779 193.004C74.8591 192.99 73.6436 192.485 72.5953 191.487L72.5999 191.482Z" fill="#0059FE"/>
<path d="M397.28 35.8965C396.276 34.8582 395.77 33.6393 395.748 32.2263C395.761 30.7908 396.281 29.5584 397.28 28.5246C398.314 27.527 399.534 27.0214 400.949 27.0078C402.363 27.0078 403.583 27.5134 404.631 28.5156C405.643 29.5494 406.149 30.7682 406.172 32.1857C406.172 33.5987 405.666 34.8176 404.676 35.8649C403.651 36.8761 402.422 37.3952 400.98 37.4178L400.958 37.4178C399.539 37.4043 398.323 36.8986 397.275 35.901L397.28 35.8965Z" fill="#0059FE"/>
<path d="M408.217 164.443C407.214 163.405 406.708 162.186 406.685 160.773C406.699 159.338 407.218 158.105 408.217 157.072C409.252 156.074 410.472 155.568 411.886 155.555C413.3 155.555 414.52 156.06 415.569 157.062C416.581 158.096 417.087 159.315 417.109 160.733C417.109 162.146 416.603 163.364 415.614 164.412C414.588 165.423 413.359 165.942 411.918 165.965L411.895 165.965C410.476 165.951 409.261 165.446 408.212 164.448L408.217 164.443Z" fill="#0059FE"/>
<path d="M443.811 128.881C442.808 127.843 442.302 126.624 442.279 125.211C442.293 123.775 442.812 122.543 443.811 121.509C444.846 120.511 446.065 120.006 447.48 119.992C448.894 119.992 450.114 120.498 451.162 121.5C452.174 122.534 452.681 123.753 452.703 125.17C452.703 126.583 452.197 127.802 451.208 128.849C450.182 129.86 448.953 130.38 447.511 130.402L447.489 130.402C446.07 130.389 444.855 129.883 443.806 128.885L443.811 128.881Z" fill="#0059FE"/>
<path d="M568.342 93.3027C567.339 92.2644 566.833 91.0456 566.81 89.6326C566.824 88.197 567.343 86.9646 568.342 85.9309C569.377 84.9332 570.597 84.4276 572.011 84.4141C573.425 84.4141 574.645 84.9197 575.694 85.9218C576.706 86.9556 577.212 88.1745 577.234 89.592C577.234 91.0049 576.728 92.2238 575.739 93.2711C574.713 94.2823 573.484 94.8015 572.043 94.824L572.02 94.824C570.601 94.8105 569.386 94.3049 568.337 93.3072L568.342 93.3027Z" fill="#0059FE"/>
<path d="M732.92 8.88866C731.917 7.85037 731.411 6.63151 731.388 5.21853C731.402 3.78299 731.922 2.55058 732.92 1.51681C733.955 0.519145 735.175 0.0135426 736.589 -2.2832e-07C738.003 -1.665e-07 739.223 0.505602 740.272 1.50778C741.284 2.54155 741.79 3.76042 741.812 5.17791C741.812 6.59088 741.306 7.80975 740.317 8.85706C739.291 9.86827 738.062 10.3874 736.621 10.41L736.598 10.41C735.179 10.3964 733.964 9.89084 732.916 8.89318L732.92 8.88866Z" fill="#0059FE"/>
<path d="M804.1 26.6777C803.097 25.6394 802.591 24.4206 802.568 23.0076C802.582 21.572 803.101 20.3396 804.1 19.3059C805.135 18.3082 806.355 17.8026 807.769 17.7891C809.183 17.7891 810.403 18.2947 811.451 19.2968C812.464 20.3306 812.97 21.5495 812.992 22.967C812.992 24.3799 812.486 25.5988 811.497 26.6461C810.471 27.6573 809.242 28.1765 807.8 28.199L807.778 28.199C806.359 28.1855 805.144 27.6799 804.095 26.6822L804.1 26.6777Z" fill="#0059FE"/>
</g>
<defs>
<clipPath id="clip0_10098_137521">
<rect width="193" height="813" fill="white" transform="translate(813) rotate(90)"/>
</clipPath>
</defs>
</svg>
