<svg width="19" height="19" viewBox="0 0 19 19" fill="none" xmlns="http://www.w3.org/2000/svg">
<path d="M9.38077 18.767C9.11267 18.7536 8.89819 18.6553 8.76414 18.5302L0.274285 10.4872C-0.0965873 10.1163 -0.0831825 9.56225 0.238538 9.22266C0.560258 8.88306 1.16349 8.86519 1.50308 9.18691L8.48263 15.7911L8.48263 0.893669C8.48263 0.402152 8.88478 8.63128e-07 9.3763 8.20158e-07C9.86782 7.77188e-07 10.27 0.402152 10.27 0.893669L10.27 15.7911L17.254 9.18691C17.5936 8.86519 18.1834 8.892 18.5185 9.22266C18.8626 9.56225 18.8224 10.1655 18.4828 10.4872L9.99293 18.5302C9.77398 18.7402 9.59078 18.7536 9.3763 18.767L9.38077 18.767Z" fill="white"/>
</svg>
