<svg width="19" height="19" viewBox="0 0 19 19" fill="none" xmlns="http://www.w3.org/2000/svg">
<path d="M9.38077 -0.00141226C9.11267 0.0119926 8.89819 0.110295 8.76414 0.23541L0.274285 8.27842C-0.0965873 8.6493 -0.0831825 9.20337 0.238538 9.54297C0.560258 9.88256 1.16349 9.90043 1.50308 9.57871L8.48263 2.9745L8.48263 17.872C8.48263 18.3635 8.88478 18.7656 9.3763 18.7656C9.86782 18.7656 10.27 18.3635 10.27 17.872L10.27 2.9745L17.254 9.57871C17.5936 9.90043 18.1834 9.87362 18.5185 9.54297C18.8626 9.20337 18.8224 8.60015 18.4828 8.27843L9.99293 0.23541C9.77398 0.0253975 9.59078 0.0119926 9.3763 -0.00141226L9.38077 -0.00141226Z" fill="black"/>
</svg>
