<svg width="172" height="197" viewBox="0 0 172 197" fill="none" xmlns="http://www.w3.org/2000/svg">
<path d="M125.891 171.567C125.775 171.567 125.658 171.537 125.554 171.477L84.4248 147.695C84.2163 147.575 84.0876 147.351 84.0876 147.111L84.0859 99.6518C84.0859 99.4107 84.2146 99.1882 84.4237 99.0668L125.554 75.2855C125.763 75.1652 126.021 75.1652 126.23 75.2855L167.359 99.0668C167.568 99.1876 167.696 99.4107 167.696 99.6518L167.698 147.111C167.698 147.351 167.568 147.575 167.36 147.695L126.23 171.477C126.126 171.537 126.01 171.567 125.893 171.567H125.891ZM85.438 146.722L125.891 170.112L166.345 146.722L166.344 100.041L125.891 76.6505L85.4363 100.041L85.438 146.722Z" fill="#E8E8E8"/>
<path d="M43.6331 171.575C43.5184 171.575 43.4027 171.545 43.2959 171.485L2.16754 147.703C1.95849 147.582 1.82981 147.359 1.82981 147.119L1.82812 99.6593C1.82812 99.2861 2.13045 98.9844 2.50301 98.9844C2.87558 98.9844 3.17903 99.2861 3.17903 99.6593L3.18071 146.729L43.9708 170.314C44.2939 170.501 44.4046 170.915 44.2175 171.238C44.0927 171.454 43.8651 171.575 43.6319 171.575L43.6331 171.575Z" fill="#E8E8E8"/>
<path d="M84.7586 147.786C84.3855 147.786 84.0832 147.484 84.0832 147.112L84.082 100.042L43.2908 76.4558C42.9677 76.2687 42.857 75.8556 43.0441 75.5331C43.2302 75.2105 43.6437 75.0993 43.9663 75.2858L85.0952 99.0671C85.3048 99.1879 85.4329 99.411 85.4329 99.6521V147.112C85.4329 147.484 85.1317 147.786 84.7586 147.786Z" fill="#E8E8E8"/>
<path d="M84.7575 147.791C84.6429 147.791 84.5265 147.761 84.4203 147.701L43.2914 123.971C42.9683 123.785 42.857 123.372 43.0436 123.05C43.2296 122.726 43.6443 122.615 43.9658 122.802L85.0958 146.53C85.4189 146.717 85.5296 147.131 85.3431 147.453C85.2183 147.67 84.9913 147.791 84.7575 147.791Z" fill="#E8E8E8"/>
<path d="M2.5047 147.791C2.27093 147.791 2.04447 147.67 1.91859 147.453C1.73203 147.131 1.84329 146.717 2.16697 146.53L43.2948 122.802C43.6173 122.615 44.0303 122.726 44.2169 123.05C44.4035 123.372 44.2922 123.785 43.9691 123.971L2.8413 147.701C2.73509 147.761 2.61933 147.791 2.5047 147.791Z" fill="#E8E8E8"/>
<path d="M43.6317 123.612C43.5536 123.612 43.4783 123.572 43.4361 123.5C43.3743 123.392 43.4114 123.254 43.5193 123.193L84.6645 99.4364C84.7719 99.374 84.9107 99.4117 84.9719 99.5196C85.0343 99.6263 84.9972 99.7651 84.8887 99.8269L43.7441 123.583C43.7087 123.603 43.6699 123.612 43.6317 123.612Z" fill="#E8E8E8"/>
<path d="M44.8038 124.283C44.7262 124.283 44.6498 124.241 44.6088 124.168C44.5458 124.061 44.5829 123.923 44.6914 123.861L84.6661 100.781C84.7729 100.718 84.9117 100.755 84.9735 100.862C85.0358 100.971 84.9993 101.108 84.8909 101.17L44.9162 124.251C44.8813 124.271 44.842 124.283 44.8038 124.283Z" fill="#E8E8E8"/>
<path d="M45.9671 124.957C45.8889 124.957 45.8136 124.917 45.7726 124.845C45.7102 124.738 45.7468 124.6 45.8547 124.539L84.6577 102.132C84.765 102.069 84.9027 102.107 84.9651 102.214C85.0275 102.322 84.9909 102.46 84.8825 102.522L46.08 124.927C46.0446 124.948 46.0053 124.957 45.9671 124.957V124.957Z" fill="#E8E8E8"/>
<path d="M47.1399 125.641C47.0618 125.641 46.9865 125.599 46.9443 125.528C46.882 125.42 46.9191 125.282 47.027 125.221L84.6612 103.492C84.7685 103.429 84.9062 103.466 84.9686 103.574C85.0309 103.682 84.9944 103.819 84.8859 103.881L47.2517 125.61C47.2163 125.631 47.1776 125.642 47.1399 125.642V125.641Z" fill="#E8E8E8"/>
<path d="M48.3114 126.317C48.2332 126.317 48.1574 126.277 48.1164 126.205C48.054 126.098 48.0905 125.96 48.1984 125.899L84.6632 104.843C84.7706 104.78 84.9088 104.817 84.9712 104.925C85.0335 105.033 84.9959 105.171 84.888 105.232L48.4232 126.287C48.3878 126.308 48.349 126.317 48.3114 126.317Z" fill="#E8E8E8"/>
<path d="M49.4756 126.993C49.3975 126.993 49.3222 126.953 49.28 126.882C49.2182 126.773 49.2548 126.635 49.3626 126.574L84.6575 106.195C84.7648 106.131 84.9025 106.169 84.9649 106.277C85.0273 106.385 84.9902 106.523 84.8823 106.584L49.5874 126.963C49.552 126.984 49.5138 126.992 49.4756 126.992V126.993Z" fill="#E8E8E8"/>
<path d="M50.6472 127.669C50.569 127.669 50.4932 127.628 50.4522 127.555C50.3898 127.448 50.4269 127.31 50.5348 127.248L84.6586 107.546C84.7653 107.484 84.9036 107.521 84.9659 107.629C85.0277 107.735 84.9912 107.874 84.8833 107.936L50.7595 127.638C50.7241 127.658 50.6854 127.67 50.6472 127.67V127.669Z" fill="#E8E8E8"/>
<path d="M51.8191 128.344C51.7409 128.344 51.6656 128.302 51.6241 128.231C51.5617 128.122 51.5988 127.986 51.7061 127.923L84.6599 108.898C84.7667 108.835 84.9049 108.873 84.9673 108.98C85.0291 109.088 84.992 109.226 84.8841 109.288L51.9309 128.313C51.896 128.334 51.8567 128.344 51.8185 128.344H51.8191Z" fill="#E8E8E8"/>
<path d="M52.9444 129.042C52.8663 129.042 52.7904 129.002 52.7494 128.93C52.6865 128.821 52.7236 128.685 52.832 128.622L84.6563 110.249C84.7631 110.187 84.9013 110.223 84.9637 110.331C85.0255 110.438 84.9884 110.576 84.8806 110.638L53.0568 129.011C53.0214 129.033 52.9832 129.042 52.9444 129.042Z" fill="#E8E8E8"/>
<path d="M54.1546 129.689C54.077 129.689 54.0011 129.649 53.9601 129.578C53.8977 129.47 53.9343 129.333 54.0422 129.271L84.6566 111.593C84.7634 111.53 84.9011 111.567 84.964 111.677C85.0258 111.784 84.9893 111.922 84.8814 111.984L54.2675 129.659C54.2321 129.68 54.1928 129.689 54.1546 129.689Z" fill="#E8E8E8"/>
<path d="M55.3186 130.364C55.2411 130.364 55.1658 130.324 55.1242 130.253C55.0618 130.144 55.0983 130.006 55.2062 129.944L84.649 112.945C84.7558 112.882 84.8941 112.919 84.9564 113.027C85.0182 113.134 84.9812 113.273 84.8738 113.334L55.4316 130.334C55.3962 130.355 55.3568 130.363 55.3186 130.363V130.364Z" fill="#E8E8E8"/>
<path d="M56.4602 131.057C56.3821 131.057 56.3063 131.017 56.2647 130.945C56.2023 130.838 56.2394 130.7 56.3467 130.638L84.6527 114.296C84.7595 114.234 84.8978 114.27 84.9601 114.379C85.0219 114.486 84.9849 114.623 84.8775 114.685L56.5715 131.027C56.5367 131.048 56.4979 131.058 56.4602 131.058V131.057Z" fill="#E8E8E8"/>
<path d="M57.6868 131.703C57.6087 131.703 57.5334 131.662 57.4912 131.59C57.4288 131.483 57.4659 131.345 57.5738 131.283L84.6548 115.648C84.7627 115.585 84.9004 115.622 84.9633 115.732C85.0251 115.838 84.9875 115.976 84.8802 116.039L57.7992 131.672C57.7643 131.693 57.725 131.703 57.6873 131.703H57.6868Z" fill="#E8E8E8"/>
<path d="M58.8274 132.391C58.7493 132.391 58.6734 132.35 58.6318 132.279C58.5695 132.17 58.6066 132.033 58.7145 131.971L84.6485 116.999C84.7564 116.936 84.8947 116.974 84.957 117.082C85.0188 117.189 84.9818 117.327 84.8744 117.389L58.9398 132.361C58.9044 132.381 58.8656 132.391 58.828 132.391H58.8274Z" fill="#E8E8E8"/>
<path d="M60.069 133.029C59.9909 133.029 59.9156 132.988 59.874 132.917C59.8117 132.808 59.8487 132.671 59.9566 132.608L84.6511 118.351C84.759 118.288 84.8966 118.326 84.959 118.433C85.0214 118.542 84.9843 118.679 84.877 118.741L60.1814 132.998C60.146 133.019 60.1072 133.029 60.069 133.029Z" fill="#E8E8E8"/>
<path d="M61.2094 133.721C61.1318 133.721 61.0565 133.681 61.0149 133.608C60.952 133.501 60.9896 133.363 61.097 133.301L84.649 119.703C84.7569 119.639 84.8951 119.677 84.9569 119.784C85.0193 119.893 84.9817 120.031 84.8743 120.092L61.3223 133.691C61.2869 133.711 61.2476 133.721 61.2094 133.721Z" fill="#E8E8E8"/>
<path d="M62.3425 134.42C62.2644 134.42 62.1891 134.379 62.1475 134.307C62.0851 134.198 62.1222 134.061 62.2295 134L84.6532 121.054C84.7611 120.991 84.8993 121.028 84.9611 121.136C85.0235 121.243 84.9858 121.381 84.8785 121.443L62.4543 134.388C62.4195 134.409 62.3801 134.42 62.3425 134.42Z" fill="#E8E8E8"/>
<path d="M63.5061 135.099C63.4285 135.099 63.3532 135.059 63.3117 134.985C63.2493 134.878 63.2858 134.741 63.3943 134.678L84.7592 122.343C84.8665 122.28 85.0042 122.318 85.0671 122.425C85.1295 122.534 85.0919 122.67 84.984 122.733L63.619 135.068C63.5836 135.089 63.5449 135.098 63.5061 135.098V135.099Z" fill="#E8E8E8"/>
<path d="M64.6786 135.778C64.6005 135.778 64.5246 135.735 64.4836 135.664C64.4212 135.555 64.4577 135.418 64.5651 135.356L84.7516 123.703C84.8589 123.639 84.9972 123.677 85.059 123.785C85.1214 123.894 85.0848 124.03 84.9764 124.093L64.7904 135.746C64.7556 135.766 64.7162 135.778 64.6786 135.778Z" fill="#E8E8E8"/>
<path d="M65.8662 136.434C65.7881 136.434 65.7128 136.395 65.6707 136.321C65.6088 136.215 65.6454 136.078 65.7533 136.015L84.6434 125.109C84.7502 125.046 84.8884 125.083 84.9508 125.191C85.0132 125.299 84.9761 125.437 84.8682 125.498L65.9786 136.403C65.9426 136.424 65.9039 136.434 65.8662 136.434V136.434Z" fill="#E8E8E8"/>
<path d="M66.9365 137.166C66.8584 137.166 66.7831 137.125 66.741 137.053C66.6792 136.946 66.7157 136.808 66.8236 136.746L84.7742 126.382C84.8809 126.319 85.0197 126.357 85.0821 126.465C85.1434 126.572 85.1068 126.711 84.999 126.772L67.0484 137.136C67.0135 137.155 66.9742 137.166 66.9365 137.166Z" fill="#E8E8E8"/>
<path d="M68.2879 137.741C68.2104 137.741 68.1345 137.701 68.0924 137.629C68.0306 137.522 68.0677 137.384 68.1756 137.322L84.6466 127.812C84.7539 127.749 84.8916 127.786 84.954 127.894C85.0163 128.002 84.9798 128.14 84.8714 128.201L68.3998 137.712C68.3644 137.732 68.3262 137.741 68.2879 137.741Z" fill="#E8E8E8"/>
<path d="M69.4123 138.44C69.3348 138.44 69.2589 138.4 69.2179 138.328C69.1555 138.219 69.1921 138.082 69.3005 138.021L84.6404 129.164C84.7477 129.1 84.8854 129.137 84.9477 129.245C85.0101 129.353 84.9736 129.49 84.8651 129.552L69.5253 138.41C69.4899 138.432 69.4506 138.44 69.4123 138.44V138.44Z" fill="#E8E8E8"/>
<path d="M70.5217 139.151C70.4442 139.151 70.3683 139.11 70.3273 139.039C70.2649 138.93 70.3015 138.792 70.4094 138.731L84.641 130.515C84.7484 130.452 84.8855 130.49 84.9484 130.598C85.0108 130.706 84.9731 130.843 84.8658 130.905L70.6341 139.121C70.5993 139.141 70.5594 139.151 70.5217 139.151Z" fill="#E8E8E8"/>
<path d="M71.6938 139.828C71.6157 139.828 71.5409 139.787 71.4988 139.715C71.437 139.608 71.4735 139.47 71.5814 139.408L84.6431 131.866C84.7505 131.804 84.8876 131.841 84.9505 131.948C85.0129 132.057 84.9752 132.195 84.8679 132.255L71.8062 139.797C71.7708 139.817 71.732 139.827 71.6938 139.827V139.828Z" fill="#E8E8E8"/>
<path d="M72.8665 140.495C72.7889 140.495 72.7125 140.454 72.6709 140.383C72.6085 140.275 72.6456 140.137 72.7535 140.076L84.5379 133.273C84.6458 133.21 84.7835 133.248 84.8459 133.355C84.9077 133.463 84.8712 133.601 84.7633 133.663L72.9783 140.465C72.9429 140.486 72.9047 140.495 72.8665 140.495Z" fill="#E8E8E8"/>
<path d="M73.9757 141.214C73.8976 141.214 73.8223 141.175 73.7801 141.102C73.7178 140.995 73.7554 140.857 73.8633 140.794L84.6441 134.57C84.7509 134.507 84.8891 134.544 84.9515 134.653C85.0133 134.76 84.9768 134.898 84.8689 134.96L74.0881 141.184C74.0527 141.205 74.0139 141.214 73.9757 141.214Z" fill="#E8E8E8"/>
<path d="M75.202 141.855C75.1239 141.855 75.0486 141.815 75.0065 141.743C74.9447 141.636 74.9818 141.498 75.0891 141.435L84.6409 135.922C84.7477 135.858 84.8859 135.895 84.9483 136.003C85.0101 136.111 84.973 136.248 84.8657 136.311L75.3139 141.825C75.279 141.846 75.2402 141.855 75.202 141.855Z" fill="#E8E8E8"/>
<path d="M76.3035 142.564C76.226 142.564 76.1507 142.524 76.1085 142.451C76.0462 142.344 76.0827 142.206 76.1911 142.144L84.6416 137.265C84.7484 137.202 84.8866 137.239 84.949 137.347C85.0108 137.455 84.9737 137.593 84.8664 137.654L76.4159 142.533C76.3811 142.553 76.3423 142.563 76.3035 142.563V142.564Z" fill="#E8E8E8"/>
<path d="M77.5376 143.202C77.4601 143.202 77.3842 143.161 77.3432 143.088C77.2802 142.98 77.3173 142.843 77.4252 142.781L84.6372 138.617C84.7434 138.553 84.8822 138.591 84.9445 138.699C85.0064 138.808 84.9693 138.944 84.8619 139.007L77.6506 143.17C77.6157 143.19 77.5758 143.201 77.5376 143.201V143.202Z" fill="#E8E8E8"/>
<path d="M78.7097 143.881C78.6321 143.881 78.5574 143.839 78.5147 143.768C78.4523 143.659 78.4894 143.522 78.5973 143.46L84.8089 139.875C84.9163 139.811 85.0545 139.849 85.1163 139.956C85.1781 140.065 85.1416 140.203 85.0337 140.264L78.822 143.85C78.7866 143.87 78.7484 143.881 78.7097 143.881Z" fill="#E8E8E8"/>
<path d="M79.8269 144.579C79.7499 144.579 79.674 144.54 79.6318 144.468C79.5695 144.36 79.6066 144.222 79.7145 144.161L84.5662 141.359C84.6741 141.296 84.8118 141.333 84.8736 141.44C84.936 141.548 84.8995 141.685 84.7916 141.748L79.9392 144.55C79.9044 144.57 79.8651 144.579 79.8269 144.579V144.579Z" fill="#E8E8E8"/>
<path d="M81.1475 145.168C81.0699 145.168 80.9946 145.128 80.9519 145.056C80.8901 144.948 80.9266 144.811 81.0345 144.749L84.486 142.757C84.5933 142.695 84.7304 142.732 84.7933 142.838C84.8551 142.947 84.8186 143.085 84.7107 143.146L81.2593 145.138C81.2245 145.159 81.1862 145.168 81.1475 145.168V145.168Z" fill="#E8E8E8"/>
<path d="M82.2173 145.908C82.1404 145.908 82.0645 145.867 82.0224 145.796C81.96 145.687 81.9976 145.549 82.105 145.489L84.7657 143.953C84.8731 143.889 85.0108 143.927 85.0737 144.035C85.1361 144.143 85.0984 144.28 84.9905 144.343L82.3303 145.878C82.2949 145.899 82.2567 145.908 82.2173 145.908V145.908Z" fill="#E8E8E8"/>
<path d="M43.6317 122.258C43.5536 122.258 43.4783 122.218 43.4361 122.146C43.3743 122.038 43.4114 121.9 43.5193 121.838L83.4929 98.7573C83.6002 98.6943 83.7379 98.7314 83.8003 98.8387C83.8626 98.9472 83.8255 99.0849 83.7182 99.1467L43.7441 122.228C43.7087 122.249 43.6699 122.257 43.6317 122.257V122.258Z" fill="#E8E8E8"/>
<path d="M43.6317 120.91C43.5536 120.91 43.4783 120.869 43.4361 120.797C43.3743 120.688 43.4114 120.551 43.5193 120.489L82.3224 98.0854C82.4291 98.0224 82.5679 98.0595 82.6297 98.1674C82.6916 98.2753 82.655 98.4124 82.5471 98.4748L43.7441 120.879C43.7087 120.899 43.6699 120.91 43.6317 120.91Z" fill="#E8E8E8"/>
<path d="M43.6313 119.564C43.5532 119.564 43.4784 119.524 43.4363 119.452C43.3745 119.343 43.411 119.205 43.5189 119.144L81.1531 97.413C81.2599 97.3506 81.3975 97.3883 81.4605 97.4956C81.5229 97.6035 81.4863 97.7417 81.3779 97.803L43.7437 119.533C43.7083 119.554 43.6695 119.564 43.6313 119.564Z" fill="#E8E8E8"/>
<path d="M43.6321 118.209C43.554 118.209 43.4787 118.169 43.4365 118.096C43.3742 117.988 43.4112 117.851 43.5191 117.788L79.9834 96.7341C80.0913 96.6706 80.2295 96.7082 80.2913 96.8161C80.3537 96.924 80.3166 97.0617 80.2082 97.1241L43.7439 118.177C43.7085 118.199 43.6697 118.209 43.6321 118.209Z" fill="#E8E8E8"/>
<path d="M43.6321 116.86C43.554 116.86 43.4787 116.819 43.4365 116.747C43.3742 116.64 43.4112 116.502 43.5191 116.441L78.8129 96.0619C78.9197 95.999 79.0573 96.0361 79.1203 96.144C79.1821 96.2519 79.1456 96.3896 79.0377 96.4514L43.7439 116.83C43.7085 116.849 43.6697 116.86 43.6321 116.86V116.86Z" fill="#E8E8E8"/>
<path d="M43.6322 115.513C43.5541 115.513 43.4777 115.472 43.4367 115.4C43.3737 115.291 43.4119 115.153 43.5193 115.092L77.643 95.3903C77.7498 95.3268 77.8886 95.3645 77.9504 95.4723C78.0128 95.5802 77.9757 95.7179 77.8678 95.7797L43.744 115.481C43.7092 115.502 43.6704 115.513 43.6322 115.513Z" fill="#E8E8E8"/>
<path d="M43.6322 114.158C43.5541 114.158 43.4777 114.117 43.4367 114.045C43.3737 113.938 43.4119 113.8 43.5193 113.738L76.4731 94.7105C76.5799 94.647 76.7181 94.6852 76.7805 94.7925C76.8429 94.9004 76.8063 95.0381 76.6979 95.0999L43.744 114.126C43.7092 114.147 43.6704 114.158 43.6322 114.158V114.158Z" fill="#E8E8E8"/>
<path d="M43.5848 112.832C43.5072 112.832 43.4314 112.791 43.3898 112.719C43.3274 112.612 43.3639 112.474 43.4724 112.413L75.2956 94.0382C75.4035 93.9759 75.5417 94.0124 75.6041 94.1203C75.6659 94.2282 75.6288 94.3659 75.5209 94.4271L43.6972 112.801C43.6618 112.822 43.6224 112.832 43.5848 112.832V112.832Z" fill="#E8E8E8"/>
<path d="M43.6236 111.463C43.546 111.463 43.4696 111.422 43.4286 111.35C43.3662 111.241 43.4039 111.105 43.5112 111.042L74.1257 93.3666C74.2324 93.3037 74.3707 93.3408 74.4331 93.4487C74.4949 93.5566 74.4578 93.6948 74.3505 93.7566L43.7365 111.431C43.7011 111.453 43.6618 111.463 43.6236 111.463Z" fill="#E8E8E8"/>
<path d="M43.6235 110.109C43.546 110.109 43.4701 110.068 43.4291 109.994C43.3662 109.888 43.4033 109.75 43.5112 109.687L72.9557 92.6869C73.063 92.624 73.2007 92.6611 73.263 92.769C73.3254 92.8769 73.2889 93.014 73.1804 93.0764L43.7365 110.078C43.7011 110.099 43.6618 110.109 43.6235 110.109Z" fill="#E8E8E8"/>
<path d="M43.5933 108.78C43.5152 108.78 43.4388 108.737 43.3977 108.666C43.3348 108.558 43.3725 108.42 43.4798 108.359L71.7864 92.0153C71.8937 91.9518 72.0314 91.9895 72.0938 92.0973C72.1567 92.2052 72.1196 92.3429 72.0123 92.4047L43.7057 108.749C43.6703 108.769 43.6315 108.78 43.5939 108.78L43.5933 108.78Z" fill="#E8E8E8"/>
<path d="M43.6473 107.398C43.5692 107.398 43.4939 107.358 43.4518 107.287C43.39 107.178 43.427 107.04 43.5349 106.979L70.6154 91.3432C70.7221 91.2802 70.8604 91.3173 70.9227 91.4252C70.9846 91.5331 70.9475 91.6713 70.8401 91.7326L43.7597 107.368C43.7243 107.388 43.6855 107.398 43.6473 107.398V107.398Z" fill="#E8E8E8"/>
<path d="M43.6239 106.055C43.5458 106.055 43.4699 106.015 43.4289 105.943C43.3665 105.835 43.403 105.698 43.5109 105.636L69.4439 90.6635C69.5506 90.6006 69.6883 90.6376 69.7512 90.7455C69.8136 90.854 69.7771 90.9911 69.6692 91.0529L43.7363 106.025C43.7014 106.045 43.6626 106.055 43.6244 106.055H43.6239Z" fill="#E8E8E8"/>
<path d="M43.6936 104.67C43.616 104.67 43.5407 104.629 43.4992 104.557C43.4368 104.449 43.4733 104.311 43.5818 104.249L68.2773 89.9919C68.3852 89.9284 68.5229 89.966 68.5847 90.0739C68.6471 90.1818 68.6106 90.3195 68.5021 90.3813L43.8065 104.639C43.7711 104.659 43.7324 104.669 43.6936 104.669V104.67Z" fill="#E8E8E8"/>
<path d="M43.6625 103.33C43.585 103.33 43.5091 103.29 43.4675 103.217C43.4057 103.109 43.4422 102.973 43.5501 102.91L67.1016 89.3122C67.2089 89.2487 67.3472 89.2863 67.409 89.3942C67.4719 89.5021 67.4348 89.6398 67.3275 89.701L43.7755 103.299C43.7401 103.32 43.7013 103.33 43.6631 103.33L43.6625 103.33Z" fill="#E8E8E8"/>
<path d="M43.6238 102.005C43.5463 102.005 43.4699 101.966 43.4288 101.893C43.3665 101.786 43.403 101.648 43.5115 101.585L65.9345 88.6403C66.0418 88.5768 66.1795 88.6145 66.2419 88.7218C66.3037 88.8303 66.2672 88.9674 66.1593 89.0292L43.7362 101.976C43.7014 101.996 43.6615 102.005 43.6238 102.005Z" fill="#E8E8E8"/>
<path d="M43.6238 100.653C43.5463 100.653 43.4699 100.613 43.4288 100.541C43.3665 100.433 43.403 100.296 43.5115 100.234L64.877 87.8981C64.9837 87.8346 65.1214 87.8723 65.1843 87.9802C65.2462 88.0881 65.2096 88.2257 65.1017 88.2876L43.7362 100.623C43.7014 100.643 43.6615 100.653 43.6238 100.653Z" fill="#E8E8E8"/>
<path d="M43.6235 99.2998C43.546 99.2998 43.4701 99.2594 43.4291 99.188C43.3662 99.0801 43.4033 98.9424 43.5112 98.8806L63.6971 87.226C63.8045 87.163 63.9427 87.2001 64.0045 87.3086C64.0675 87.4159 64.0304 87.5541 63.923 87.616L43.7365 99.27C43.7017 99.2903 43.6618 99.2998 43.6241 99.2998H43.6235Z" fill="#E8E8E8"/>
<path d="M43.647 97.9431C43.5695 97.9431 43.4936 97.902 43.452 97.8307C43.3896 97.7228 43.4273 97.5851 43.5352 97.5233L62.4259 86.6166C62.5327 86.5537 62.6704 86.5907 62.7333 86.6992C62.7951 86.8065 62.7586 86.9442 62.6507 87.006L43.76 97.9127C43.7246 97.9329 43.6858 97.9431 43.647 97.9431Z" fill="#E8E8E8"/>
<path d="M43.5463 96.6436C43.4682 96.6436 43.3923 96.6026 43.3507 96.5306C43.2878 96.4233 43.326 96.2856 43.4333 96.2232L61.3839 85.8588C61.4913 85.7959 61.6289 85.833 61.6913 85.9403C61.7537 86.0488 61.716 86.1864 61.6093 86.2483L43.6581 96.6127C43.6233 96.6329 43.5839 96.643 43.5463 96.643V96.6436Z" fill="#E8E8E8"/>
<path d="M43.7254 95.1954C43.6473 95.1954 43.5715 95.1549 43.5305 95.083C43.4681 94.9745 43.5046 94.8374 43.6119 94.7756L60.0841 85.2653C60.1914 85.2018 60.3291 85.2395 60.3914 85.3468C60.4544 85.4553 60.4173 85.5924 60.3094 85.6542L43.8384 95.165C43.803 95.1858 43.7637 95.1954 43.726 95.1954H43.7254Z" fill="#E8E8E8"/>
<path d="M43.687 93.8688C43.6089 93.8688 43.533 93.8283 43.4909 93.757C43.429 93.6485 43.4661 93.5108 43.5735 93.4496L58.9133 84.5934C59.0201 84.5299 59.1583 84.5676 59.2207 84.676C59.2825 84.7833 59.246 84.921 59.1381 84.9834L43.7982 93.8396C43.7634 93.8598 43.7246 93.8693 43.687 93.8693V93.8688Z" fill="#E8E8E8"/>
<path d="M43.6165 92.5499C43.5384 92.5499 43.4625 92.51 43.4209 92.4381C43.3586 92.3297 43.3956 92.1925 43.503 92.1307L57.7352 83.9135C57.842 83.8506 57.9802 83.8876 58.0426 83.9955C58.105 84.1034 58.0684 84.2417 57.9606 84.3029L43.7289 92.5196C43.694 92.5409 43.6547 92.5499 43.617 92.5499H43.6165Z" fill="#E8E8E8"/>
<path d="M43.6165 91.2026C43.5384 91.2026 43.4625 91.1622 43.4209 91.0897C43.3586 90.9823 43.3956 90.8447 43.503 90.7823L56.5647 83.2416C56.672 83.1787 56.8103 83.2158 56.8721 83.3237C56.9345 83.4316 56.8979 83.5687 56.7895 83.631L43.7277 91.1723C43.6929 91.1925 43.6536 91.2026 43.6159 91.2026H43.6165Z" fill="#E8E8E8"/>
<path d="M43.616 89.8551C43.5385 89.8551 43.4621 89.8141 43.4211 89.7421C43.3587 89.6343 43.3952 89.4966 43.5031 89.4348L55.2864 82.6325C55.3937 82.569 55.5314 82.6066 55.5938 82.7145C55.6562 82.8224 55.6196 82.9601 55.5112 83.0219L43.7284 89.8248C43.693 89.845 43.6537 89.8551 43.616 89.8551Z" fill="#E8E8E8"/>
<path d="M43.5612 88.5333C43.4831 88.5333 43.4078 88.4929 43.3662 88.4209C43.3039 88.3136 43.341 88.1754 43.4483 88.1136L54.2291 81.8901C54.3359 81.8271 54.4741 81.8642 54.5365 81.9716C54.5983 82.08 54.5618 82.2171 54.4539 82.2789L43.6731 88.5035C43.6382 88.5238 43.5989 88.5333 43.5612 88.5333Z" fill="#E8E8E8"/>
<path d="M43.616 87.1528C43.5379 87.1528 43.4626 87.1129 43.4211 87.041C43.3587 86.9325 43.3952 86.7948 43.5031 86.7336L53.0544 81.2182C53.1612 81.1552 53.2994 81.1923 53.3618 81.3008C53.4241 81.4081 53.3876 81.5458 53.2797 81.6081L43.729 87.123C43.693 87.1444 43.6543 87.1534 43.6166 87.1534L43.616 87.1528Z" fill="#E8E8E8"/>
<path d="M43.553 85.8363C43.4749 85.8363 43.3996 85.7959 43.3586 85.7239C43.2962 85.6161 43.3327 85.4778 43.4406 85.4166L51.8899 80.5384C51.9978 80.4754 52.1355 80.5131 52.1973 80.6204C52.2597 80.7283 52.2232 80.8665 52.1153 80.9278L43.6659 85.8066C43.63 85.8268 43.5912 85.8363 43.553 85.8363Z" fill="#E8E8E8"/>
<path d="M43.6168 84.4502C43.5387 84.4502 43.4628 84.4092 43.4207 84.3372C43.3588 84.2299 43.3954 84.0922 43.5033 84.0299L50.7152 79.867C50.822 79.8035 50.9608 79.8406 51.0226 79.9485C51.085 80.0569 51.0479 80.1941 50.94 80.2559L43.7286 84.4193C43.6926 84.4395 43.6544 84.4496 43.6168 84.4496V84.4502Z" fill="#E8E8E8"/>
<path d="M43.6161 83.0986C43.538 83.0986 43.4627 83.0575 43.4205 82.9862C43.3587 82.8777 43.3958 82.74 43.5031 82.6788L49.7154 79.0931C49.8222 79.0301 49.9604 79.0678 50.0228 79.1751C50.0851 79.283 50.0475 79.4212 49.9402 79.483L43.7279 83.0682C43.6931 83.089 43.6543 83.0986 43.6161 83.0986Z" fill="#E8E8E8"/>
<path d="M43.5692 81.7821C43.4911 81.7821 43.4158 81.7416 43.3737 81.6697C43.3119 81.5618 43.3489 81.4241 43.4563 81.3623L48.3075 78.5622C48.4143 78.4987 48.5525 78.5363 48.6149 78.6442C48.6773 78.7521 48.6407 78.8892 48.5323 78.9516L43.681 81.7523C43.6462 81.7725 43.6074 81.7827 43.5692 81.7827V81.7821Z" fill="#E8E8E8"/>
<path d="M43.7178 80.3412C43.6397 80.3412 43.5644 80.3002 43.5222 80.2283C43.4604 80.1204 43.4969 79.9827 43.6048 79.9209L47.0563 77.9294C47.1625 77.8659 47.3013 77.9035 47.3636 78.0114C47.4255 78.1193 47.3884 78.257 47.281 78.3188L43.8296 80.3103C43.7948 80.3305 43.7554 80.3412 43.7178 80.3412Z" fill="#E8E8E8"/>
<path d="M43.6159 79.0487C43.5384 79.0487 43.4625 79.0083 43.4209 78.9363C43.3585 78.829 43.3956 78.6913 43.5035 78.6295L46.1637 77.0932C46.2711 77.0302 46.4093 77.0673 46.4711 77.1758C46.5335 77.2837 46.497 77.4208 46.3891 77.4831L43.7283 79.0195C43.6929 79.0403 43.6541 79.0498 43.6159 79.0498V79.0487Z" fill="#E8E8E8"/>
<path d="M125.886 29.0934C125.771 29.0934 125.656 29.0642 125.55 29.0024L84.7575 5.41552L43.9669 29.0024C43.6443 29.1895 43.2307 29.0788 43.0442 28.7562C42.857 28.4331 42.9677 28.0201 43.2903 27.8335L84.4192 4.05113C84.6283 3.93087 84.8856 3.93087 85.0952 4.05113L126.224 27.8335C126.548 28.0201 126.657 28.4331 126.471 28.7562C126.346 28.972 126.119 29.094 125.885 29.094L125.886 29.0934Z" fill="#E8E8E8"/>
<path d="M84.7564 100.334C84.6395 100.334 84.5226 100.304 84.4186 100.243L43.2908 76.4632C42.9677 76.276 42.857 75.863 43.0441 75.5405C43.2302 75.2179 43.6437 75.1072 43.9663 75.2938L84.7564 98.8795L125.549 75.2938C125.871 75.1072 126.284 75.2179 126.47 75.5405C126.656 75.863 126.546 76.276 126.224 76.4632L85.0946 100.243C84.9901 100.304 84.8738 100.334 84.7569 100.334H84.7564Z" fill="#E8E8E8"/>
<path d="M125.889 76.5484C125.775 76.5484 125.66 76.5192 125.553 76.4579L84.4239 52.7289C84.1013 52.5429 83.9901 52.1299 84.1761 51.8068C84.3626 51.4842 84.7768 51.3724 85.0993 51.5595L126.228 75.2885C126.551 75.474 126.661 75.8876 126.475 76.2101C126.351 76.4276 126.123 76.5484 125.889 76.5484Z" fill="#E8E8E8"/>
<path d="M84.7614 52.8221C84.3888 52.8221 84.0859 52.5204 84.0859 52.1467V4.63639C84.0859 4.26326 84.3888 3.96094 84.7614 3.96094C85.134 3.96094 85.4368 4.26326 85.4368 4.63639V52.1467C85.4368 52.5204 85.1345 52.8221 84.7614 52.8221Z" fill="#E8E8E8"/>
<path d="M84.7567 52.3694C84.6786 52.3694 84.6039 52.3295 84.5611 52.257C84.4993 52.1497 84.5364 52.012 84.6443 51.9496L125.79 28.1947C125.896 28.1318 126.035 28.1689 126.097 28.2768C126.158 28.3841 126.122 28.5218 126.014 28.5842L84.8691 52.339C84.8342 52.3593 84.7955 52.3688 84.7567 52.3688V52.3694Z" fill="#E8E8E8"/>
<path d="M85.9287 53.0451C85.8511 53.0451 85.7752 53.0046 85.7337 52.9332C85.6707 52.8253 85.7084 52.6871 85.8163 52.6259L125.792 29.5464C125.898 29.4829 126.037 29.5211 126.099 29.6285C126.16 29.7364 126.124 29.874 126.015 29.9359L86.041 53.0153C86.0062 53.0355 85.9674 53.0451 85.9287 53.0451Z" fill="#E8E8E8"/>
<path d="M87.1003 53.7215C87.0228 53.7215 86.9469 53.6816 86.9053 53.6097C86.8429 53.5012 86.88 53.3635 86.9873 53.3017L125.792 30.8977C125.899 30.8348 126.037 30.8725 126.099 30.9798C126.161 31.0882 126.124 31.2259 126.015 31.2872L87.2127 53.6911C87.1778 53.7125 87.1391 53.7215 87.1003 53.7215Z" fill="#E8E8E8"/>
<path d="M88.2644 54.398C88.1868 54.398 88.1109 54.3564 88.0693 54.285C88.007 54.1771 88.0441 54.0394 88.152 53.9776L125.786 32.2497C125.894 32.1862 126.032 32.2238 126.095 32.3317C126.155 32.4396 126.118 32.5773 126.011 32.6391L88.3779 54.3676C88.3419 54.3878 88.3031 54.398 88.2644 54.398Z" fill="#E8E8E8"/>
<path d="M89.4367 55.0731C89.3585 55.0731 89.2827 55.0327 89.2411 54.9608C89.1793 54.8529 89.2152 54.7152 89.3237 54.6534L125.79 33.6009C125.898 33.5379 126.036 33.5756 126.099 33.6829C126.159 33.7908 126.122 33.9285 126.015 33.9903L89.5485 55.0428C89.5136 55.0636 89.4754 55.0731 89.4367 55.0731Z" fill="#E8E8E8"/>
<path d="M90.6082 55.7497C90.5313 55.7497 90.4554 55.7092 90.4127 55.6373C90.3509 55.5294 90.388 55.3917 90.4964 55.3299L125.79 34.9523C125.899 34.8899 126.037 34.9265 126.1 35.0344C126.16 35.1428 126.123 35.2799 126.016 35.3417L90.7212 55.7199C90.6864 55.7407 90.6481 55.7502 90.6082 55.7502V55.7497Z" fill="#E8E8E8"/>
<path d="M91.779 56.4255C91.702 56.4255 91.6261 56.3844 91.5851 56.3131C91.5227 56.2052 91.5592 56.0675 91.6677 56.0057L125.79 36.3041C125.898 36.2412 126.036 36.2782 126.098 36.3867C126.16 36.494 126.123 36.6317 126.016 36.6941L91.8925 56.3957C91.8576 56.4159 91.8177 56.426 91.7784 56.426L91.779 56.4255Z" fill="#E8E8E8"/>
<path d="M92.944 57.1017C92.8659 57.1017 92.7912 57.0618 92.7496 56.9893C92.6866 56.882 92.7232 56.7437 92.8311 56.6819L125.785 37.6558C125.893 37.5923 126.032 37.6305 126.092 37.7384C126.155 37.8457 126.118 37.9834 126.011 38.0458L93.0564 57.0719C93.0216 57.0927 92.9833 57.1017 92.9446 57.1017H92.944Z" fill="#E8E8E8"/>
<path d="M94.0686 57.8001C93.9916 57.8001 93.9157 57.7602 93.8742 57.6882C93.8118 57.5798 93.8483 57.4421 93.9568 57.3809L125.781 39.0071C125.888 38.9442 126.026 38.9818 126.087 39.0892C126.15 39.1971 126.114 39.3353 126.006 39.3965L94.1821 57.7703C94.1473 57.7911 94.1079 57.8001 94.0692 57.8001H94.0686Z" fill="#E8E8E8"/>
<path d="M95.2796 58.4544C95.2026 58.4544 95.1268 58.4134 95.0841 58.3415C95.0234 58.2336 95.0593 58.0964 95.1678 58.0341L125.782 40.3588C125.89 40.2959 126.027 40.333 126.089 40.4403C126.152 40.5488 126.115 40.6864 126.008 40.7477L95.3926 58.4229C95.3572 58.4437 95.3184 58.4538 95.2807 58.4538L95.2796 58.4544Z" fill="#E8E8E8"/>
<path d="M96.4528 59.1282C96.3741 59.1282 96.2988 59.0878 96.2573 59.0164C96.1943 58.908 96.2314 58.7703 96.3387 58.709L125.783 41.7104C125.89 41.6474 126.029 41.6845 126.09 41.7924C126.153 41.9003 126.116 42.0374 126.007 42.0998L96.5635 59.099C96.5292 59.1193 96.4905 59.1288 96.4523 59.1288L96.4528 59.1282Z" fill="#E8E8E8"/>
<path d="M97.5932 59.8238C97.5156 59.8238 97.4392 59.7833 97.3976 59.7114C97.3352 59.6029 97.3717 59.4658 97.4802 59.404L125.785 43.0617C125.892 42.9993 126.03 43.0358 126.092 43.1437C126.155 43.2516 126.118 43.3893 126.01 43.4511L97.705 59.7929C97.6701 59.8142 97.6319 59.8238 97.5932 59.8238Z" fill="#E8E8E8"/>
<path d="M98.8107 60.4676C98.7349 60.4676 98.6579 60.4271 98.6163 60.3546C98.5539 60.2467 98.5905 60.109 98.7 60.0472L125.779 44.4135C125.886 44.3506 126.024 44.3877 126.086 44.495C126.149 44.6029 126.112 44.7406 126.005 44.8024L98.9237 60.4378C98.8877 60.458 98.8495 60.4681 98.8107 60.4681V60.4676Z" fill="#E8E8E8"/>
<path d="M99.959 61.1581C99.882 61.1581 99.8061 61.1171 99.7645 61.0457C99.7022 60.9373 99.7398 60.7996 99.8471 60.7383L125.781 45.7649C125.889 45.702 126.026 45.7396 126.089 45.8481C126.151 45.9554 126.114 46.0931 126.007 46.1554L100.073 61.1278C100.037 61.148 99.9983 61.1581 99.959 61.1581Z" fill="#E8E8E8"/>
<path d="M101.195 61.7946C101.116 61.7946 101.041 61.7536 100.999 61.6817C100.937 61.5743 100.973 61.4361 101.081 61.3743L125.777 47.1167C125.884 47.0532 126.022 47.0915 126.084 47.1988C126.147 47.3067 126.11 47.4444 126.003 47.5062L101.307 61.7643C101.271 61.7845 101.234 61.7946 101.195 61.7946Z" fill="#E8E8E8"/>
<path d="M102.342 62.4855C102.264 62.4855 102.189 62.4456 102.148 62.3737C102.085 62.2652 102.122 62.1281 102.229 62.0663L125.782 48.4679C125.888 48.4056 126.026 48.4421 126.089 48.55C126.151 48.6584 126.115 48.7961 126.008 48.8574L102.456 62.4557C102.42 62.4771 102.381 62.4861 102.343 62.4861L102.342 62.4855Z" fill="#E8E8E8"/>
<path d="M103.467 63.1844C103.39 63.1844 103.314 63.1445 103.272 63.0725C103.21 62.9641 103.247 62.8264 103.355 62.7651L125.778 49.8197C125.883 49.7568 126.022 49.7939 126.085 49.9018C126.147 50.0097 126.111 50.1474 126.003 50.2092L103.581 63.1546C103.546 63.1748 103.506 63.1844 103.467 63.1844Z" fill="#E8E8E8"/>
<path d="M104.64 63.8565C104.561 63.8565 104.486 63.816 104.445 63.7435C104.382 63.6362 104.419 63.4979 104.526 63.4361L125.893 51.101C126 51.0381 126.138 51.0751 126.201 51.183C126.262 51.2909 126.225 51.428 126.117 51.4904L104.752 63.8267C104.716 63.8469 104.679 63.857 104.64 63.857V63.8565Z" fill="#E8E8E8"/>
<path d="M105.804 64.5347C105.726 64.5347 105.652 64.4937 105.608 64.4218C105.546 64.3139 105.584 64.1762 105.691 64.1144L125.877 52.4603C125.984 52.3974 126.122 52.4345 126.184 52.543C126.247 52.6508 126.21 52.788 126.103 52.8503L105.916 64.5044C105.881 64.5246 105.843 64.5347 105.804 64.5347Z" fill="#E8E8E8"/>
<path d="M106.991 65.1933C106.914 65.1933 106.837 65.1523 106.796 65.0804C106.733 64.973 106.772 64.8348 106.878 64.773L125.77 53.8668C125.876 53.8033 126.015 53.841 126.077 53.9495C126.14 54.0568 126.102 54.1945 125.996 54.2568L107.104 65.1635C107.068 65.1837 107.03 65.1939 106.991 65.1939V65.1933Z" fill="#E8E8E8"/>
<path d="M108.068 65.9317C107.991 65.9317 107.917 65.8906 107.874 65.8187C107.812 65.7114 107.848 65.5737 107.957 65.5113L125.906 55.1475C126.013 55.0851 126.151 55.1222 126.213 55.2301C126.276 55.338 126.239 55.4756 126.132 55.5369L108.181 65.9007C108.146 65.921 108.108 65.9311 108.068 65.9311V65.9317Z" fill="#E8E8E8"/>
<path d="M109.414 66.4997C109.336 66.4997 109.26 66.4586 109.218 66.3867C109.155 66.2788 109.192 66.1411 109.301 66.0793L125.773 56.5696C125.882 56.5067 126.019 56.5443 126.082 56.6517C126.145 56.7596 126.107 56.8978 125.999 56.959L109.526 66.4687C109.491 66.4895 109.453 66.4991 109.414 66.4991L109.414 66.4997Z" fill="#E8E8E8"/>
<path d="M110.545 67.1961C110.468 67.1961 110.394 67.1562 110.35 67.0843C110.289 66.9764 110.325 66.8387 110.433 66.7769L125.772 57.9213C125.878 57.8584 126.017 57.8955 126.079 58.0028C126.142 58.1113 126.104 58.2489 125.997 58.3102L110.657 67.1664C110.622 67.1877 110.584 67.1967 110.545 67.1967V67.1961Z" fill="#E8E8E8"/>
<path d="M111.655 67.9099C111.578 67.9099 111.501 67.8688 111.46 67.7969C111.398 67.689 111.434 67.5519 111.542 67.4895L125.774 59.2728C125.881 59.2099 126.019 59.247 126.081 59.3555C126.144 59.4628 126.107 59.6005 125.998 59.6628L111.767 67.879C111.732 67.8997 111.693 67.9099 111.655 67.9099Z" fill="#E8E8E8"/>
<path d="M112.82 68.586C112.742 68.586 112.666 68.545 112.624 68.473C112.561 68.3657 112.599 68.2275 112.707 68.1657L125.768 60.6244C125.876 60.5615 126.013 60.5986 126.076 60.7065C126.137 60.8144 126.101 60.9515 125.993 61.0139L112.931 68.5556C112.896 68.5759 112.858 68.586 112.819 68.586H112.82Z" fill="#E8E8E8"/>
<path d="M113.991 69.2621C113.913 69.2621 113.838 69.2216 113.796 69.1503C113.734 69.0418 113.771 68.9042 113.878 68.8429L125.662 62.0384C125.768 61.9754 125.906 62.0131 125.969 62.1204C126.031 62.2283 125.995 62.366 125.886 62.4278L114.104 69.2318C114.069 69.2525 114.029 69.2621 113.991 69.2621Z" fill="#E8E8E8"/>
<path d="M115.1 69.9722C115.023 69.9722 114.947 69.9323 114.906 69.8598C114.843 69.7525 114.88 69.6142 114.989 69.5524L125.768 63.3278C125.876 63.2643 126.013 63.302 126.077 63.4098C126.139 63.5177 126.102 63.6554 125.994 63.7172L115.214 69.9424C115.179 69.9626 115.141 69.9722 115.101 69.9722H115.1Z" fill="#E8E8E8"/>
<path d="M116.328 70.6135C116.251 70.6135 116.174 70.5719 116.132 70.5005C116.069 70.3927 116.107 70.2544 116.215 70.1932L125.765 64.6789C125.874 64.6159 126.011 64.6541 126.074 64.7615C126.136 64.8694 126.099 65.007 125.99 65.0688L116.439 70.5832C116.404 70.6034 116.365 70.6135 116.328 70.6135Z" fill="#E8E8E8"/>
<path d="M117.428 71.3288C117.351 71.3288 117.276 71.2884 117.232 71.217C117.172 71.1091 117.209 70.9709 117.316 70.9096L125.765 66.0303C125.874 65.9679 126.011 66.005 126.074 66.1129C126.136 66.2208 126.099 66.359 125.99 66.4203L117.542 71.2996C117.506 71.3198 117.467 71.3294 117.428 71.3294V71.3288Z" fill="#E8E8E8"/>
<path d="M118.671 71.9654C118.593 71.9654 118.518 71.9244 118.475 71.8525C118.413 71.7451 118.451 71.6075 118.558 71.5451L125.769 67.3822C125.878 67.3193 126.015 67.3564 126.078 67.4643C126.14 67.5722 126.102 67.7093 125.994 67.7717L118.784 71.9351C118.749 71.9553 118.71 71.9654 118.671 71.9654Z" fill="#E8E8E8"/>
<path d="M119.835 72.6382C119.758 72.6382 119.681 72.5977 119.64 72.5263C119.577 72.4184 119.615 72.2802 119.723 72.219L125.935 68.6321C126.041 68.5692 126.179 68.6068 126.242 68.7147C126.305 68.822 126.268 68.9603 126.159 69.0221L119.949 72.6089C119.914 72.6292 119.875 72.6387 119.836 72.6387L119.835 72.6382Z" fill="#E8E8E8"/>
<path d="M120.952 73.3452C120.875 73.3452 120.798 73.3053 120.757 73.2328C120.695 73.1249 120.731 72.9878 120.839 72.9254L125.692 70.1247C125.798 70.0612 125.937 70.0988 125.999 70.2067C126.062 70.3146 126.024 70.4523 125.915 70.5141L121.064 73.3142C121.029 73.335 120.99 73.3446 120.952 73.3446V73.3452Z" fill="#E8E8E8"/>
<path d="M122.272 73.9355C122.195 73.9355 122.119 73.8956 122.077 73.8237C122.015 73.7152 122.052 73.5781 122.159 73.5163L125.61 71.5231C125.719 71.4596 125.856 71.4973 125.918 71.6052C125.981 71.7131 125.942 71.8502 125.835 71.9125L122.385 73.9057C122.35 73.9265 122.309 73.9355 122.272 73.9355H122.272Z" fill="#E8E8E8"/>
<path d="M123.343 74.6659C123.266 74.6659 123.189 74.6255 123.147 74.5535C123.085 74.4451 123.122 74.308 123.23 74.2461L125.891 72.7104C125.999 72.6474 126.136 72.6845 126.2 72.7924C126.26 72.9003 126.223 73.038 126.116 73.0998L123.456 74.6356C123.421 74.6558 123.381 74.6654 123.343 74.6654V74.6659Z" fill="#E8E8E8"/>
<path d="M84.7567 51.0219C84.6786 51.0219 84.6039 50.9809 84.5611 50.9095C84.4993 50.8017 84.5364 50.664 84.6443 50.6022L124.618 27.5227C124.726 27.4598 124.863 27.4975 124.926 27.6048C124.988 27.7127 124.952 27.8509 124.843 27.9122L84.8691 50.9916C84.8342 51.0118 84.7955 51.0219 84.7567 51.0219Z" fill="#E8E8E8"/>
<path d="M84.7567 49.6746C84.6786 49.6746 84.6039 49.6341 84.5611 49.5622C84.4993 49.4543 84.5364 49.316 84.6443 49.2548L123.449 26.8514C123.555 26.7879 123.694 26.825 123.756 26.9329C123.819 27.0413 123.781 27.1784 123.673 27.2403L84.8691 49.6448C84.8342 49.665 84.7955 49.6746 84.7567 49.6746Z" fill="#E8E8E8"/>
<path d="M84.7567 48.3191C84.6786 48.3191 84.6039 48.2792 84.5611 48.2067C84.4993 48.0989 84.5364 47.9612 84.6443 47.8994L122.279 26.1714C122.386 26.1079 122.524 26.1461 122.586 26.254C122.648 26.3613 122.611 26.499 122.503 26.5614L84.8691 48.2894C84.8342 48.3096 84.7955 48.3197 84.7567 48.3197V48.3191Z" fill="#E8E8E8"/>
<path d="M84.7563 46.9717C84.6787 46.9717 84.6034 46.9312 84.5613 46.8593C84.4995 46.7514 84.536 46.6143 84.6439 46.5525L121.107 25.4994C121.214 25.4365 121.353 25.4736 121.416 25.5815C121.477 25.6899 121.44 25.8276 121.333 25.8889L84.8687 46.9414C84.8338 46.9621 84.7945 46.9717 84.7563 46.9717Z" fill="#E8E8E8"/>
<path d="M84.7563 45.6244C84.6787 45.6244 84.6034 45.5839 84.5613 45.512C84.4995 45.4047 84.536 45.267 84.6439 45.2046L119.937 24.8276C120.045 24.7646 120.182 24.8017 120.245 24.9096C120.307 25.0175 120.27 25.1546 120.161 25.217L84.8687 45.594C84.8338 45.6143 84.7945 45.6238 84.7563 45.6238V45.6244Z" fill="#E8E8E8"/>
<path d="M84.7568 44.2683C84.6793 44.2683 84.6034 44.2278 84.5613 44.1565C84.4995 44.048 84.536 43.9103 84.6439 43.8491L118.767 24.1475C118.874 24.0851 119.013 24.1222 119.075 24.2295C119.137 24.3374 119.099 24.4751 118.993 24.5369L84.8687 44.2385C84.8333 44.2587 84.7945 44.2683 84.7568 44.2683Z" fill="#E8E8E8"/>
<path d="M84.7568 42.9233C84.6793 42.9233 84.6034 42.8823 84.5613 42.8104C84.4995 42.7025 84.536 42.5648 84.6439 42.503L117.598 23.4763C117.704 23.4128 117.842 23.4504 117.905 23.5577C117.967 23.6662 117.93 23.8033 117.823 23.8651L84.8692 42.8924C84.8338 42.9126 84.7951 42.9233 84.7574 42.9233H84.7568Z" fill="#E8E8E8"/>
<path d="M84.7175 41.5901C84.6405 41.5901 84.5641 41.5496 84.5225 41.4771C84.4601 41.3698 84.4972 41.2321 84.6051 41.1697L116.429 22.7966C116.536 22.7331 116.673 22.7707 116.737 22.8786C116.799 22.9859 116.762 23.1236 116.653 23.186L84.8304 41.5597C84.795 41.5805 84.7562 41.5901 84.7175 41.5901Z" fill="#E8E8E8"/>
<path d="M84.7569 40.2182C84.6788 40.2182 84.603 40.1783 84.5614 40.1064C84.499 39.9985 84.5367 39.8608 84.6446 39.799L115.258 22.1243C115.366 22.0614 115.505 22.099 115.566 22.2064C115.628 22.3148 115.592 22.4525 115.483 22.5137L84.8693 40.1884C84.8339 40.2092 84.7952 40.2182 84.7569 40.2182Z" fill="#E8E8E8"/>
<path d="M84.7569 38.8634C84.6788 38.8634 84.603 38.823 84.5614 38.751C84.499 38.6432 84.5367 38.5055 84.6446 38.4437L114.088 21.445C114.194 21.3815 114.332 21.4191 114.395 21.527C114.458 21.6349 114.421 21.772 114.313 21.8344L84.8699 38.8331C84.8345 38.8539 84.7957 38.8634 84.7575 38.8634H84.7569Z" fill="#E8E8E8"/>
<path d="M84.725 37.5348C84.6475 37.5348 84.5722 37.4944 84.53 37.4224C84.4682 37.3145 84.5047 37.1769 84.6126 37.115L112.918 20.7727C113.025 20.7098 113.163 20.7474 113.225 20.8553C113.288 20.9627 113.25 21.1003 113.143 21.1627L84.8374 37.5045C84.8026 37.5247 84.7632 37.5348 84.725 37.5348Z" fill="#E8E8E8"/>
<path d="M84.7803 36.1562C84.7022 36.1562 84.6274 36.1157 84.5847 36.0432C84.5229 35.9353 84.5594 35.7982 84.6673 35.7359L111.747 20.101C111.855 20.0381 111.994 20.0752 112.056 20.1825C112.118 20.2909 112.08 20.4286 111.973 20.4899L84.8921 36.1247C84.8573 36.1455 84.8191 36.1556 84.7803 36.1556V36.1562Z" fill="#E8E8E8"/>
<path d="M84.756 34.8131C84.679 34.8131 84.6031 34.7732 84.5615 34.7013C84.4992 34.5934 84.5362 34.4551 84.6441 34.3939L110.576 19.4216C110.684 19.3581 110.821 19.3957 110.884 19.5036C110.946 19.6115 110.909 19.7486 110.802 19.811L84.8695 34.7839C84.8341 34.8046 84.7953 34.8136 84.7565 34.8136L84.756 34.8131Z" fill="#E8E8E8"/>
<path d="M84.819 33.4271C84.7415 33.4271 84.6656 33.3867 84.624 33.3148C84.5616 33.2069 84.5987 33.0692 84.7072 33.0074L109.402 18.7493C109.508 18.6863 109.647 18.724 109.71 18.8319C109.771 18.9398 109.733 19.0775 109.627 19.1393L84.9314 33.3968C84.8966 33.417 84.8578 33.4271 84.819 33.4271Z" fill="#E8E8E8"/>
<path d="M84.7957 32.0954C84.7181 32.0954 84.6428 32.0549 84.6001 31.983C84.5383 31.8751 84.5759 31.7374 84.6827 31.6756L108.235 18.0778C108.343 18.0143 108.48 18.052 108.543 18.1598C108.605 18.2677 108.569 18.4054 108.461 18.4672L84.908 32.0656C84.8732 32.0864 84.835 32.0959 84.7962 32.0959L84.7957 32.0954Z" fill="#E8E8E8"/>
<path d="M84.7488 30.7636C84.6713 30.7636 84.5954 30.7226 84.5538 30.6512C84.4915 30.5433 84.528 30.4056 84.6365 30.3438L107.06 17.3979C107.166 17.3349 107.304 17.372 107.367 17.4799C107.429 17.5878 107.392 17.7249 107.285 17.7867L84.8612 30.7333C84.8264 30.7535 84.7876 30.7636 84.7488 30.7636Z" fill="#E8E8E8"/>
<path d="M84.7488 29.4188C84.6713 29.4188 84.5954 29.3784 84.5538 29.3064C84.4915 29.198 84.528 29.0609 84.6365 28.999L106.001 16.6633C106.109 16.6004 106.246 16.6381 106.31 16.746C106.372 16.8538 106.335 16.9915 106.227 17.0533L84.8612 29.3885C84.8264 29.4087 84.7876 29.4183 84.7488 29.4183V29.4188Z" fill="#E8E8E8"/>
<path d="M84.7487 28.0648C84.6711 28.0648 84.5953 28.0249 84.5537 27.9529C84.4913 27.8445 84.5284 27.7068 84.6369 27.645L104.822 15.9915C104.929 15.9286 105.067 15.9662 105.129 16.0735C105.191 16.182 105.156 16.3197 105.048 16.3809L84.8622 28.0344C84.8274 28.0558 84.788 28.0648 84.7493 28.0648H84.7487Z" fill="#E8E8E8"/>
<path d="M84.7727 26.6999C84.6946 26.6999 84.6193 26.6595 84.5772 26.5875C84.5148 26.4796 84.5519 26.3414 84.6598 26.2796L103.551 15.374C103.657 15.3117 103.796 15.3487 103.858 15.4566C103.921 15.564 103.884 15.7022 103.776 15.7635L84.8851 26.6696C84.8497 26.6904 84.8115 26.6999 84.7733 26.6999H84.7727Z" fill="#E8E8E8"/>
<path d="M84.6709 25.4082C84.5928 25.4082 84.5175 25.3678 84.4754 25.2958C84.4135 25.1879 84.4501 25.0503 84.558 24.9884L102.507 14.624C102.616 14.5617 102.754 14.5988 102.816 14.7066C102.878 14.814 102.841 14.9516 102.733 15.014L84.7827 25.3779C84.7479 25.3987 84.7091 25.4082 84.6709 25.4082Z" fill="#E8E8E8"/>
<path d="M84.8504 23.9594C84.7729 23.9594 84.697 23.9195 84.6554 23.8471C84.5931 23.7392 84.6296 23.6021 84.7375 23.5402L101.209 14.0305C101.317 13.9676 101.454 14.0052 101.518 14.1131C101.579 14.221 101.542 14.3581 101.435 14.42L84.9628 23.9291C84.9274 23.9499 84.8881 23.9594 84.8504 23.9594Z" fill="#E8E8E8"/>
<path d="M84.8114 22.6285C84.7339 22.6285 84.6586 22.588 84.6158 22.5155C84.554 22.4082 84.5911 22.27 84.6985 22.2087L100.038 13.3508C100.144 13.2879 100.283 13.3256 100.346 13.4335C100.408 13.5413 100.37 13.679 100.263 13.7408L84.9238 22.5987C84.8884 22.6189 84.8496 22.629 84.8114 22.629V22.6285Z" fill="#E8E8E8"/>
<path d="M84.7493 21.3161C84.6717 21.3161 84.5959 21.2757 84.5537 21.2032C84.4913 21.0958 84.5284 20.9582 84.6363 20.8958L98.8669 12.6791C98.9753 12.6162 99.1136 12.6533 99.1743 12.7612C99.2372 12.8691 99.2001 13.0067 99.0928 13.0685L84.8617 21.2858C84.8263 21.3066 84.7869 21.3161 84.7493 21.3161Z" fill="#E8E8E8"/>
<path d="M84.7493 19.9681C84.6717 19.9681 84.5959 19.9271 84.5537 19.8551C84.4913 19.7478 84.5284 19.6101 84.6363 19.5478L97.6975 12.0071C97.8048 11.9442 97.9425 11.9818 98.006 12.0897C98.0678 12.197 98.0307 12.3353 97.9234 12.3971L84.8622 19.9383C84.8268 19.9585 84.7875 19.9687 84.7498 19.9687L84.7493 19.9681Z" fill="#E8E8E8"/>
<path d="M84.749 18.6121C84.6714 18.6121 84.5956 18.5717 84.554 18.5003C84.4911 18.3919 84.5287 18.2542 84.636 18.1929L96.4199 11.3895C96.5272 11.3272 96.6649 11.3648 96.7284 11.4721C96.7891 11.5806 96.752 11.7183 96.6447 11.7795L84.8614 18.5818C84.826 18.6026 84.7866 18.6121 84.7484 18.6121H84.749Z" fill="#E8E8E8"/>
<path d="M84.6864 17.3001C84.6088 17.3001 84.533 17.2596 84.4908 17.1871C84.429 17.0792 84.4661 16.9421 84.574 16.8797L95.3543 10.6557C95.4593 10.5927 95.5993 10.6298 95.6611 10.7377C95.7234 10.8456 95.6869 10.9827 95.5796 11.0451L84.7993 17.2691C84.7645 17.2894 84.7252 17.3001 84.6869 17.3001H84.6864Z" fill="#E8E8E8"/>
<path d="M84.749 15.9112C84.6714 15.9112 84.5956 15.8702 84.554 15.7982C84.4911 15.6909 84.5287 15.5532 84.636 15.4908L94.1873 9.97597C94.2935 9.91303 94.4323 9.95012 94.4947 10.0586C94.5576 10.1665 94.5205 10.3041 94.4121 10.366L84.8619 15.8808C84.8265 15.9016 84.7872 15.9112 84.749 15.9112Z" fill="#E8E8E8"/>
<path d="M84.6784 14.6031C84.6003 14.6031 84.5256 14.562 84.4834 14.4907C84.4211 14.3828 84.4581 14.2451 84.5655 14.1833L93.0148 9.30397C93.1221 9.24104 93.2609 9.27869 93.3233 9.38658C93.3851 9.49447 93.3469 9.63215 93.2396 9.69396L84.7908 14.5722C84.756 14.5924 84.7172 14.6025 84.6784 14.6025V14.6031Z" fill="#E8E8E8"/>
<path d="M84.7482 13.2157C84.6712 13.2157 84.5959 13.1753 84.5537 13.1033C84.4914 12.9954 84.5285 12.8578 84.6358 12.7959L91.846 8.63197C91.9551 8.5696 92.0922 8.60612 92.1545 8.71458C92.2164 8.82247 92.1793 8.95958 92.0719 9.0214L84.8617 13.1848C84.8263 13.2056 84.7875 13.2152 84.7487 13.2152L84.7482 13.2157Z" fill="#E8E8E8"/>
<path d="M84.7487 11.8649C84.6712 11.8649 84.5959 11.8244 84.5537 11.7525C84.4914 11.6446 84.5285 11.5069 84.6358 11.4451L90.848 7.8588C90.9542 7.79587 91.093 7.83296 91.1554 7.94085C91.2172 8.04874 91.1813 8.18641 91.0728 8.24823L84.8611 11.8345C84.8263 11.8548 84.7869 11.8649 84.7487 11.8649Z" fill="#E8E8E8"/>
<path d="M84.6942 10.5415C84.6161 10.5415 84.5408 10.5005 84.4987 10.4286C84.4369 10.3207 84.4739 10.1824 84.5813 10.1212L89.4342 7.31935C89.5404 7.25697 89.6781 7.29406 89.741 7.40195C89.8028 7.51041 89.7657 7.64752 89.6584 7.70934L84.806 10.5112C84.7712 10.5314 84.7324 10.5415 84.6942 10.5415Z" fill="#E8E8E8"/>
<path d="M84.8509 9.09838C84.7728 9.09838 84.6975 9.05792 84.6548 8.98599C84.593 8.8781 84.6306 8.74042 84.7379 8.67861L88.1883 6.68654C88.2956 6.62416 88.4344 6.66125 88.4968 6.76914C88.5586 6.87703 88.5215 7.01527 88.413 7.07652L84.9627 9.06804C84.9279 9.08883 84.8891 9.09838 84.8509 9.09838Z" fill="#E8E8E8"/>
<path d="M84.7411 7.80642C84.663 7.80642 84.5882 7.76652 84.5455 7.69459C84.4837 7.5867 84.5208 7.44846 84.6281 7.38721L87.2878 5.85087C87.3957 5.78793 87.5339 5.82558 87.5963 5.93291C87.6576 6.04137 87.621 6.17904 87.5131 6.24029L84.8535 7.77664C84.8186 7.79743 84.7799 7.80642 84.7411 7.80642Z" fill="#E8E8E8"/>
<path d="M84.8408 194.88C84.8026 194.88 84.7627 194.871 84.7284 194.851L2.48014 147.295C2.41102 147.254 2.36831 147.179 2.36831 147.099L2.36719 52.1935C2.36719 52.0693 2.46721 51.9688 2.59196 51.9688C2.71671 51.9688 2.81674 52.0699 2.81674 52.1935L2.81786 146.969L84.8402 194.395L166.864 146.969V52.1935C166.864 52.0693 166.965 51.9688 167.09 51.9688C167.216 51.9688 167.315 52.0699 167.315 52.1935V147.099C167.315 147.179 167.271 147.254 167.202 147.295L84.9526 194.851C84.9178 194.871 84.879 194.88 84.8402 194.88H84.8408Z" fill="#E8E8E8"/>
<path d="M89.3964 4.63656C89.3964 7.19676 87.3212 9.27256 84.761 9.27256C82.2008 9.27256 80.125 7.1962 80.125 4.63656C80.125 2.07693 82.1997 0 84.761 0C87.3223 0 89.3964 2.0758 89.3964 4.63656Z" fill="#0059FE"/>
<path d="M130.524 28.4173C130.524 30.9774 128.447 33.0538 125.887 33.0538C123.326 33.0538 121.25 30.9769 121.25 28.4173C121.25 25.8576 123.326 23.7812 125.887 23.7812C128.447 23.7812 130.524 25.8571 130.524 28.4173Z" fill="#0059FE"/>
<path d="M89.3964 99.6516C89.3964 102.212 87.3212 104.288 84.761 104.288C82.2008 104.288 80.125 102.212 80.125 99.6516C80.125 97.0914 82.1997 95.0156 84.761 95.0156C87.3223 95.0156 89.3964 97.0914 89.3964 99.6516Z" fill="#0059FE"/>
<path d="M171.656 147.114C171.656 149.674 169.58 151.75 167.019 151.75C164.459 151.75 162.383 149.674 162.383 147.114C162.383 144.555 164.458 142.477 167.019 142.477C169.581 142.477 171.656 144.552 171.656 147.114Z" fill="#0059FE"/>
<path d="M46.1285 28.4164C46.1285 29.7971 45.0091 30.9176 43.6273 30.9176C42.2455 30.9176 41.125 29.7971 41.125 28.4164C41.125 27.0357 42.2455 25.9141 43.6273 25.9141C45.0091 25.9141 46.1285 27.0346 46.1285 28.4164Z" fill="#E8E8E8"/>
<path d="M5.00295 51.4398C5.00295 52.8199 3.88356 53.9416 2.50232 53.9416C1.12107 53.9416 0 52.8205 0 51.4398C0 50.0591 1.12051 48.9375 2.50232 48.9375C3.88412 48.9375 5.00295 50.058 5.00295 51.4398Z" fill="#E8E8E8"/>
<path d="M45.9488 75.1742C45.9488 76.5549 44.8294 77.6754 43.4476 77.6754C42.0658 77.6754 40.9453 76.5549 40.9453 75.1742C40.9453 73.7935 42.0658 72.6719 43.4476 72.6719C44.8294 72.6719 45.9488 73.7924 45.9488 75.1742Z" fill="#E8E8E8"/>
<path d="M87.0978 194.011C87.0978 195.391 85.9779 196.512 84.5961 196.512C83.2143 196.512 82.0938 195.391 82.0938 194.011C82.0938 192.632 83.2143 191.508 84.5961 191.508C85.9779 191.508 87.0978 192.629 87.0978 194.011Z" fill="#E8E8E8"/>
<path d="M87.0978 146.776C87.0978 148.156 85.9779 149.276 84.5961 149.276C83.2143 149.276 82.0938 148.156 82.0938 146.776C82.0938 145.396 83.2143 144.273 84.5961 144.273C85.9779 144.273 87.0978 145.394 87.0978 146.776Z" fill="#E8E8E8"/>
<path d="M5.00295 99.658C5.00295 101.039 3.88356 102.16 2.50232 102.16C1.12107 102.16 0 101.04 0 99.658C0 98.2762 1.12051 97.1562 2.50232 97.1562C3.88412 97.1562 5.00295 98.2773 5.00295 99.658Z" fill="#E8E8E8"/>
<path d="M5.00295 146.37C5.00295 147.75 3.88356 148.87 2.50232 148.87C1.12107 148.87 0 147.75 0 146.37C0 144.989 1.12051 143.867 2.50232 143.867C3.88412 143.867 5.00295 144.988 5.00295 146.37Z" fill="#0059FE"/>
<path d="M128.23 171.697C128.23 173.078 127.111 174.198 125.728 174.198C124.346 174.198 123.227 173.077 123.227 171.697C123.227 170.317 124.347 169.195 125.728 169.195C127.11 169.195 128.23 170.315 128.23 171.697Z" fill="#E8E8E8"/>
<path d="M169.175 51.7992C169.175 53.1793 168.056 54.3009 166.674 54.3009C165.291 54.3009 164.172 53.1799 164.172 51.7992C164.172 50.4185 165.293 49.2969 166.674 49.2969C168.054 49.2969 169.175 50.4179 169.175 51.7992Z" fill="#E8E8E8"/>
</svg>
