<svg width="7" height="7" viewBox="0 0 7 7" fill="none" xmlns="http://www.w3.org/2000/svg">
<path d="M6.44091 0.742889C6.35262 0.668738 6.25637 0.636981 6.17761 0.637173L1.15443 0.686854C0.929293 0.695168 0.771545 0.873473 0.773533 1.0744C0.77552 1.27533 0.960152 1.45729 1.16108 1.4553L5.28832 1.41697L0.933522 6.10573C0.789842 6.26043 0.798857 6.50455 0.953555 6.64823C1.10825 6.79191 1.35238 6.7829 1.49606 6.6282L5.85086 1.93945L6.11845 6.05958C6.13128 6.26011 6.32476 6.42409 6.52689 6.41798C6.73445 6.41167 6.89813 6.21006 6.88529 6.00953L6.56436 0.996372C6.55684 0.866271 6.50309 0.808499 6.43951 0.741583L6.44091 0.742889Z" fill="#0059FE"/>
</svg>
