<svg width="15" height="16" viewBox="0 0 15 16" fill="none" xmlns="http://www.w3.org/2000/svg">
<path d="M13.5629 0.753908C13.3527 0.586925 13.1267 0.519104 12.9434 0.524531L1.25669 0.957714C0.73327 0.991295 0.377434 1.41622 0.394761 1.88369C0.412089 2.35116 0.853266 2.76294 1.32074 2.74561L10.9232 2.3955L1.08517 13.5824C0.760577 13.9515 0.796991 14.5191 1.16609 14.8437C1.53518 15.1683 2.10274 15.1318 2.42733 14.7628L12.2654 3.57582L13.1485 13.1472C13.1911 13.6131 13.6517 13.9825 14.1217 13.9555C14.6044 13.9277 14.9725 13.4481 14.93 12.9823L13.8662 1.33601C13.8404 1.03371 13.7117 0.902663 13.5595 0.750957L13.5629 0.753908Z" fill="white"/>
</svg>
