<svg width="64" height="42" viewBox="0 0 64 42" fill="none" xmlns="http://www.w3.org/2000/svg">
<path d="M39.1996 15.4162C39.1996 19.3507 36.0069 22.5434 32.0725 22.5434C28.138 22.5434 24.9453 19.3507 24.9453 15.4162C24.9453 11.4817 28.138 8.28906 32.0725 8.28906C36.0069 8.28906 39.1996 11.4817 39.1996 15.4162Z" fill="white"/>
<path d="M31.9987 24.875C25.1624 24.875 19.5625 30.4749 19.5625 37.3112C19.5625 39.6384 21.4534 41.602 23.8533 41.602H40.144C42.4712 41.602 44.4348 39.7111 44.4348 37.3112C44.4348 30.4749 38.8349 24.875 32.0059 24.875H31.9987Z" fill="white"/>
<path d="M58.7699 7.12715C58.7699 11.0616 55.5773 14.2543 51.6428 14.2543C47.7083 14.2543 44.5156 11.0616 44.5156 7.12715C44.5156 3.19267 47.7083 0 51.6428 0C55.5773 0 58.7699 3.19267 58.7699 7.12715Z" fill="white"/>
<path d="M51.5634 16.6562C47.1272 16.6562 42.9818 19.0562 40.8 22.9107L40 24.2198L41.3818 24.8743C44.2181 26.2561 46.109 28.9469 46.5453 32.0742L46.6908 33.3105H59.636C61.9633 33.3105 63.9269 31.4196 63.9269 29.0197C63.9996 22.1834 58.3997 16.6562 51.5634 16.6562Z" fill="white"/>
<path d="M19.4965 7.12715C19.4965 11.0616 16.3038 14.2543 12.3693 14.2543C8.43486 14.2543 5.24219 11.0616 5.24219 7.12715C5.24219 3.19267 8.43486 0 12.3693 0C16.3038 0 19.4965 3.19267 19.4965 7.12715Z" fill="white"/>
<path d="M17.2361 33.3815L17.3815 32.1452C17.8179 29.018 19.7815 26.3271 22.5451 24.9453L23.9269 24.2908L23.1269 22.9817C20.9451 19.1272 16.7997 16.7273 12.3634 16.7273C5.5999 16.6545 0 22.1817 0 29.0907C0 31.4179 1.89088 33.3815 4.29084 33.3815H17.2361Z" fill="white"/>
</svg>
