<svg width="42" height="42" viewBox="0 0 42 42" fill="none" xmlns="http://www.w3.org/2000/svg">
<path d="M19.1237 4.97006V14.1336C19.1237 15.4563 18.5976 16.7188 17.6607 17.6557C16.7238 18.5876 15.4563 19.1087 14.1336 19.1037H4.97006C2.2245 19.1037 0 16.8792 0 14.1386V4.97507C0.0100203 2.23452 2.22951 0.0200407 4.97006 0.00501025H14.1336C16.8792 0.00501025 19.1087 2.2245 19.1237 4.97507V4.97006ZM36.7844 0H27.6209C24.8753 0 22.6559 2.2245 22.6559 4.97006V14.1336C22.6508 15.4513 23.1719 16.7188 24.1038 17.6507C25.0357 18.5826 26.3032 19.1037 27.6209 19.0987H36.7844C39.53 19.0987 41.7545 16.8741 41.7545 14.1336V4.97006C41.7445 2.22951 39.525 0.0150304 36.7844 0ZM14.1336 22.6508H4.97006C3.65239 22.6508 2.38984 23.1719 1.45795 24.1038C0.526065 25.0357 0 26.2982 0 27.6159V36.7794C0.0100203 39.52 2.22951 41.7345 4.97006 41.7495H14.1336C16.8792 41.7495 19.1087 39.53 19.1237 36.7794V27.6159C19.1237 26.2932 18.5976 25.0307 17.6607 24.0938C16.7238 23.1619 15.4563 22.6408 14.1336 22.6458V22.6508ZM40.7525 31.3134H33.1922V23.6328C33.122 23.1418 32.7012 22.7761 32.2002 22.7761C31.6992 22.7761 31.2783 23.1418 31.2082 23.6328V31.3134H23.6328C23.1418 31.3835 22.7761 31.8094 22.7761 32.3054C22.7761 32.8014 23.1418 33.2272 23.6328 33.2974H31.3134V40.8527C31.2733 41.1383 31.3585 41.4339 31.5488 41.6543C31.7392 41.8747 32.0148 42 32.3054 42C32.596 42 32.8715 41.8747 33.0619 41.6543C33.2523 41.4339 33.3375 41.1433 33.2974 40.8527V33.1922H40.8527C41.1383 33.2373 41.4339 33.1471 41.6543 32.9617C41.8747 32.7713 42 32.4958 42 32.2052C42 31.9146 41.8747 31.639 41.6543 31.4436C41.4339 31.2532 41.1433 31.1681 40.8527 31.2132L40.7475 31.3184L40.7525 31.3134Z" fill="white"/>
</svg>
