<svg width="40" height="45" viewBox="0 0 40 45" fill="none" xmlns="http://www.w3.org/2000/svg">
<path d="M37.7778 9.60943L22.2222 0.590286C20.8466 -0.196762 19.1534 -0.196762 17.7778 0.590286L2.22222 9.60943C0.846561 10.3965 0 11.8855 0 13.4809V31.5191C0 33.1145 0.846561 34.5822 2.22222 35.3906L17.7778 44.4097C19.1534 45.1968 20.8466 45.1968 22.2222 44.4097L37.7778 35.3906C39.1534 34.6035 40 33.1145 40 31.5191V13.4809C40 11.8855 39.1534 10.4178 37.7778 9.60943ZM20 31.0086C15.3227 31.0086 11.5344 27.201 11.5344 22.5C11.5344 17.799 15.3227 13.9914 20 13.9914C24.6772 13.9914 28.4656 17.799 28.4656 22.5C28.4656 27.201 24.6772 31.0086 20 31.0086Z" fill="white"/>
</svg>
