<svg width="44" height="45" viewBox="0 0 44 45" fill="none" xmlns="http://www.w3.org/2000/svg">
<path d="M22 0C21.345 0 20.6843 0.167764 20.0867 0.509079L1.1204 11.2287C0.522852 11.57 0 12.1774 0 12.9526C0 13.7278 0.522852 14.3352 1.1204 14.6707L6.09036 17.4822L20.0867 25.3961C21.2818 26.073 22.7125 26.073 23.9133 25.3961L37.9096 17.4822L42.8796 14.6707C43.4771 14.3294 44 13.722 44 12.9526C44 12.1832 43.4771 11.57 42.8796 11.2287L23.9133 0.509079C23.3158 0.167764 22.655 0 22 0ZM4.34369 18.9574L1.1204 20.7797C0.522852 21.121 0 21.7284 0 22.5036C0 23.2788 0.522852 23.8862 1.1204 24.2218L6.09036 27.0333L20.0867 34.9471C21.2818 35.624 22.7125 35.624 23.9133 34.9471L37.9096 27.0333L42.8796 24.2218C43.4771 23.8804 44 23.273 44 22.5036C44 21.7342 43.4771 21.121 42.8796 20.7797L39.6563 18.9574L38.9496 19.3566L24.9533 27.2704C22.9021 28.4332 21.0979 28.4332 19.0467 27.2704L5.05041 19.3566L4.34369 18.9574ZM4.34369 28.5027L1.1204 30.3249C0.522852 30.6662 0 31.2737 0 32.0489C0 32.824 0.522852 33.4315 1.1204 33.767L6.09036 36.5785L20.0867 44.4924C21.2818 45.1692 22.7125 45.1692 23.9133 44.4924L37.9096 36.5785L42.8796 33.767C43.4771 33.4257 44 32.8183 44 32.0489C44 31.2794 43.4771 30.6662 42.8796 30.3249L39.6563 28.5027L38.9496 28.9018L24.9533 36.8157C22.9021 37.9785 21.0979 37.9785 19.0467 36.8157L5.05041 28.9018L4.34369 28.5027Z" fill="white"/>
</svg>
