<svg width="36" height="35" viewBox="0 0 36 35" fill="none" xmlns="http://www.w3.org/2000/svg">
<path d="M17.6668 0.429688C7.96631 0.429688 0.109375 8.16826 0.109375 17.7125C0.109375 25.35 5.13957 31.8266 12.1142 34.1101C12.9921 34.2728 13.314 33.7378 13.314 33.2791C13.314 32.8687 13.2994 31.7812 13.2921 30.3405C8.40817 31.3825 7.37814 28.0218 7.37814 28.0218C6.57928 26.0271 5.42488 25.4936 5.42488 25.4936C3.83447 24.4222 5.54778 24.4442 5.54778 24.4442C7.31084 24.5644 8.23699 26.2249 8.23699 26.2249C9.80252 28.8675 12.3469 28.1039 13.3506 27.6627C13.5086 26.5445 13.9607 25.7838 14.4626 25.3514C10.5633 24.9191 6.46515 23.4329 6.46515 16.8111C6.46515 14.9249 7.1455 13.383 8.2721 12.1739C8.07458 11.7371 7.48202 9.9798 8.42573 7.5996C8.42573 7.5996 9.89616 7.13645 13.254 9.37155C14.6586 8.98756 16.151 8.79702 17.6434 8.78823C19.1357 8.79702 20.6281 8.98756 22.0327 9.37155C25.3686 7.13645 26.8391 7.5996 26.8391 7.5996C27.7828 9.9798 27.1902 11.7371 27.0146 12.1739C28.1339 13.383 28.8143 14.9249 28.8143 16.8111C28.8143 23.4505 24.7102 24.9117 20.8037 25.3368C21.4182 25.8556 21.9888 26.9153 21.9888 28.5348C21.9888 30.8476 21.9669 32.706 21.9669 33.2673C21.9669 33.7202 22.2741 34.261 23.1739 34.0881C30.1984 31.8193 35.2242 25.3382 35.2242 17.7125C35.2242 8.16826 27.3629 0.429688 17.6668 0.429688Z" fill="#1C1C1C"/>
</svg>
