<svg width="35" height="35" viewBox="0 0 35 35" fill="none" xmlns="http://www.w3.org/2000/svg">
<g clip-path="url(#clip0_10098_140112)">
<path d="M34.0697 10.6549C34.0697 10.6549 33.7405 8.33069 32.7266 7.31017C31.4427 5.96702 30.0074 5.96044 29.349 5.88143C24.6348 5.53906 17.557 5.53906 17.557 5.53906H17.5438C17.5438 5.53906 10.466 5.53906 5.75184 5.88143C5.09344 5.96044 3.65812 5.96702 2.37424 7.31017C1.3603 8.33069 1.03768 10.6549 1.03768 10.6549C1.03768 10.6549 0.695312 13.3872 0.695312 16.113V18.6676C0.695312 21.3934 1.0311 24.1258 1.0311 24.1258C1.0311 24.1258 1.3603 26.4499 2.36765 27.4705C3.65154 28.8136 5.33705 28.7675 6.08763 28.9124C8.78708 29.1691 17.5504 29.2481 17.5504 29.2481C17.5504 29.2481 24.6348 29.235 29.349 28.8992C30.0074 28.8202 31.4427 28.8136 32.7266 27.4705C33.7405 26.4499 34.0697 24.1258 34.0697 24.1258C34.0697 24.1258 34.4055 21.4 34.4055 18.6676V16.113C34.4055 13.3872 34.0697 10.6549 34.0697 10.6549ZM14.0675 21.7687V12.2943L23.1732 17.0479L14.0675 21.7687Z" fill="#1C1C1C"/>
</g>
<defs>
<clipPath id="clip0_10098_140112">
<rect width="33.7102" height="33.7102" fill="white" transform="translate(0.695312 0.539062)"/>
</clipPath>
</defs>
</svg>
