<svg width="36" height="36" viewBox="0 0 36 36" fill="none" xmlns="http://www.w3.org/2000/svg">
<path d="M16.0296 19.2684C16.0296 20.6785 15.0193 21.8259 13.7492 21.8259C12.4989 21.8259 11.4688 20.6785 11.4688 19.2684C11.4688 17.859 12.479 16.7109 13.7492 16.7109C15.0289 16.7109 16.0494 17.8693 16.0296 19.2684Z" fill="#1C1C1C"/>
<path d="M24.8811 19.2684C24.8811 20.6785 23.8812 21.8259 22.6007 21.8259C21.3504 21.8259 20.3203 20.6785 20.3203 19.2684C20.3203 17.859 21.3305 16.7109 22.6007 16.7109C23.8812 16.7109 24.901 17.8693 24.8811 19.2684Z" fill="#1C1C1C"/>
<path d="M17.9402 0.75C8.24386 0.75 0.382812 8.61105 0.382812 18.3074C0.382812 28.0038 8.24386 35.8648 17.9402 35.8648C27.6366 35.8648 35.4976 28.0038 35.4976 18.3074C35.4976 8.61105 27.6366 0.75 17.9402 0.75ZM30.4848 24.7714C28.3149 26.3653 26.2121 27.333 24.1388 27.9743C24.1059 27.9845 24.0702 27.9722 24.0496 27.9441C23.5709 27.2775 23.1361 26.5745 22.7548 25.8365C22.7328 25.7933 22.7527 25.7412 22.798 25.724C23.4886 25.4627 24.1457 25.1507 24.778 24.7817C24.8281 24.7522 24.8308 24.6809 24.7849 24.6466C24.6511 24.5471 24.5181 24.4422 24.3912 24.3373C24.3672 24.3181 24.3349 24.314 24.3082 24.327C20.2042 26.2233 15.7085 26.2233 11.5558 24.327C11.529 24.3153 11.4968 24.3194 11.4742 24.3386C11.3473 24.4429 11.2142 24.5471 11.0812 24.6466C11.0352 24.6809 11.0386 24.7522 11.0887 24.7817C11.7211 25.1438 12.3781 25.4627 13.068 25.7247C13.1133 25.7419 13.1346 25.7933 13.1119 25.8365C12.7395 26.5758 12.304 27.2781 11.8164 27.9448C11.7951 27.9722 11.7601 27.9845 11.7272 27.9743C9.66355 27.333 7.56146 26.3653 5.39079 24.7714C5.37295 24.757 5.35992 24.7351 5.35787 24.7117C4.91619 19.9774 5.81738 15.1841 9.10665 10.2694C9.11488 10.2564 9.12654 10.2461 9.14094 10.2406C10.7588 9.49715 12.4933 8.95054 14.3053 8.63849C14.3382 8.63368 14.3711 8.64877 14.3883 8.67758C14.6125 9.07468 14.8684 9.58288 15.0419 9.9985C16.9519 9.70702 18.8922 9.70702 20.8427 9.9985C21.0155 9.5918 21.2624 9.07468 21.4853 8.67758C21.5024 8.6474 21.5354 8.63231 21.5683 8.63849C23.3816 8.95123 25.1161 9.49852 26.7333 10.2406C26.7477 10.2461 26.7594 10.2564 26.7662 10.2708C29.6317 14.4852 31.0472 19.2395 30.5178 24.7131C30.5157 24.7364 30.504 24.757 30.4848 24.7714Z" fill="#1C1C1C"/>
</svg>
