<svg width="29" height="25" viewBox="0 0 29 25" fill="none" xmlns="http://www.w3.org/2000/svg">
<path d="M24.5659 2.25568C22.6885 1.32589 20.6813 0.650128 18.5828 0.265625C18.3251 0.758726 18.0239 1.4222 17.8165 1.95023C15.5857 1.59527 13.3755 1.59527 11.1856 1.95023C10.9779 1.42259 10.6702 0.759109 10.4102 0.265625C8.30955 0.650512 6.29985 1.32857 4.42282 2.26067C0.636135 8.31755 -0.390106 14.224 0.123196 20.0468C2.6346 22.0319 5.06843 23.238 7.46094 24.0273C8.05182 23.1666 8.57853 22.2518 9.03238 21.2874C8.16782 20.9398 7.33986 20.5108 6.55759 20.0123C6.7653 19.8496 6.9683 19.6792 7.16441 19.5042C11.936 21.8669 17.1209 21.8669 21.8356 19.5042C22.0338 19.6792 22.2368 19.8496 22.4424 20.0123C21.6576 20.5131 20.8274 20.9421 19.9629 21.2897C20.4167 22.2514 20.9413 23.1689 21.5343 24.0296C23.9294 23.2403 26.3654 22.0346 28.8768 20.0468C29.4789 13.2969 27.848 7.44456 24.5659 2.25568ZM9.68271 16.4658C8.2501 16.4658 7.0756 15.0502 7.0756 13.3265C7.0756 11.6027 8.22509 10.1844 9.68271 10.1844C11.1403 10.1844 12.3148 11.6 12.2898 13.3265C12.292 15.0502 11.1403 16.4658 9.68271 16.4658ZM19.3173 16.4658C17.8847 16.4658 16.7102 15.0502 16.7102 13.3265C16.7102 11.6027 17.8596 10.1844 19.3173 10.1844C20.7749 10.1844 21.9494 11.6 21.9244 13.3265C21.9244 15.0502 20.7749 16.4658 19.3173 16.4658Z" fill="white"/>
</svg>
