<svg width="61" height="61" viewBox="0 0 61 61" fill="none" xmlns="http://www.w3.org/2000/svg">
<path d="M41.192 46.5613C40.1953 50.6226 38.825 54.0423 37.2055 56.4965C35.3119 59.3618 33.0258 61 30.4969 61C26.7844 61 23.5516 57.3934 21.3341 51.5632C20.3063 48.8598 19.4717 45.6581 18.8986 42.1014C15.3419 41.5221 12.1402 40.6937 9.43684 39.6659C3.60656 37.4484 0 34.2156 0 30.5031C0 29.1639 0.460942 27.8932 1.32676 26.7035C1.95589 25.8376 2.80925 25.0154 3.85571 24.2493C3.74982 23.8132 3.68753 23.3523 3.68753 22.8851C3.68753 21.303 4.32911 19.8703 5.36312 18.8363C6.39712 17.8023 7.82978 17.1607 9.41193 17.1607C10.9941 17.1607 12.4205 17.8023 13.4607 18.8363C13.766 19.1415 14.04 19.4841 14.2705 19.8454C15.7405 19.4779 17.2915 19.1602 18.9048 18.8986C19.4841 15.3419 20.3126 12.1402 21.3403 9.43684C23.5578 3.60656 26.7907 0 30.5031 0C34.2156 0 37.4484 3.60656 39.6659 9.43684C40.6937 12.1402 41.5283 15.3419 42.1014 18.8986C45.6581 19.4779 48.866 20.3063 51.5632 21.3341C57.3934 23.5516 61 26.7844 61 30.4969C61 33.0258 59.3618 35.3119 56.4965 37.2055C54.0423 38.8312 50.6288 40.1953 46.5613 41.192C46.4741 42.6371 45.8575 43.9327 44.892 44.892C43.9327 45.8512 42.6371 46.4741 41.192 46.5613ZM5.21985 26.7782C4.56581 27.2952 4.03012 27.8247 3.63147 28.3728C3.12693 29.0705 2.85285 29.7806 2.85285 30.4969C2.85285 32.9013 5.75554 35.206 10.4459 36.9937C12.7569 37.872 15.4727 38.6007 18.4813 39.1364C18.1636 36.4019 17.9954 33.4992 17.9954 30.5031C17.9954 27.507 18.1636 24.6043 18.4813 21.8698C17.3102 22.0754 16.189 22.3121 15.1176 22.5737C15.1176 22.6796 15.1239 22.7792 15.1239 22.8851C15.1239 24.4673 14.4823 25.8937 13.4483 26.9339C12.4143 27.9679 10.9816 28.6095 9.39947 28.6095C7.81732 28.6095 6.38466 27.9679 5.35066 26.9339C5.30706 26.8841 5.25722 26.8405 5.20739 26.7907L5.21985 26.7782ZM11.4301 20.8545C10.9069 20.3313 10.1968 20.0136 9.4057 20.0136C8.61462 20.0136 7.89829 20.3313 7.38129 20.8545C6.85806 21.3715 6.54039 22.0878 6.54039 22.8789C6.54039 23.67 6.85806 24.3863 7.38129 24.9033C7.89829 25.4203 8.61462 25.7442 9.4057 25.7442C10.1968 25.7442 10.9131 25.4203 11.4301 24.9033C11.9471 24.3801 12.271 23.67 12.271 22.8789C12.271 22.0878 11.9471 21.3715 11.4301 20.8545ZM46.0194 38.3952C49.6945 37.4795 52.7529 36.2587 54.9206 34.826C56.9699 33.4681 58.1409 31.9856 58.1409 30.4969C58.1409 28.0925 55.2382 25.7878 50.5478 24.0001C48.2369 23.1218 45.5211 22.393 42.5125 21.8573C42.8302 24.5919 42.9984 27.4945 42.9984 30.4907C42.9984 31.4686 42.9734 32.5088 42.9298 33.6114C42.9049 34.2592 42.8738 34.8821 42.8364 35.4738C43.615 35.7603 44.3189 36.2213 44.892 36.7943C45.3529 37.2553 45.7329 37.7972 46.0194 38.389V38.3952ZM39.996 35.181C40.0334 34.608 40.0645 34.0474 40.0832 33.4992C40.1206 32.5836 40.1393 31.587 40.1393 30.4907C40.1393 27.3077 39.94 24.2617 39.5787 21.4089C36.7321 21.0476 33.6799 20.8483 30.4969 20.8483C27.3139 20.8483 24.486 21.0289 21.7265 21.3715L21.4151 21.4089C21.0538 24.2555 20.8545 27.3077 20.8545 30.4907C20.8545 33.6736 21.0538 36.7196 21.4151 39.5724C24.2617 39.9337 27.3139 40.1331 30.4969 40.1331C31.587 40.1331 32.5898 40.1144 33.5055 40.077C34.0536 40.0583 34.6142 40.0272 35.1873 39.9898C35.3741 38.7502 35.9534 37.6415 36.8006 36.7943C37.6477 35.9472 38.7565 35.3617 39.996 35.181ZM35.48 42.8302C34.8821 42.8676 34.2654 42.8987 33.6176 42.9236C32.5151 42.9672 31.4748 42.9921 30.4969 42.9921C27.4945 42.9921 24.5981 42.824 21.8636 42.5063C22.3993 45.5149 23.1218 48.2307 24.0063 50.5416C25.794 55.232 28.0987 58.1347 30.5031 58.1347C31.9918 58.1347 33.4805 56.9636 34.8322 54.9143C36.2649 52.7529 37.4858 49.6945 38.4014 46.0194C37.8034 45.7329 37.2677 45.3529 36.8068 44.892C36.2275 44.3127 35.7728 43.615 35.4863 42.8364L35.48 42.8302ZM42.8738 38.8187C42.3506 38.2955 41.6405 37.9778 40.8494 37.9778C40.0583 37.9778 39.342 38.3017 38.825 38.8187C38.3018 39.3358 37.9841 40.0521 37.9841 40.8432C37.9841 41.6342 38.308 42.3506 38.825 42.8676C39.342 43.3846 40.0583 43.7085 40.8494 43.7085C41.6405 43.7085 42.3568 43.3846 42.8738 42.8676C43.3908 42.3443 43.7147 41.6342 43.7147 40.8432C43.7147 40.0521 43.3908 39.3358 42.8738 38.8187ZM39.1302 18.4813C38.5945 15.4727 37.8719 12.7569 36.9874 10.4459C35.1997 5.75554 32.895 2.85285 30.4907 2.85285C28.0863 2.85285 25.7816 5.75554 23.9939 10.4459C23.1156 12.7569 22.3868 15.4727 21.8511 18.4813C24.5856 18.1636 27.4883 17.9954 30.4844 17.9954C33.4805 17.9954 36.3832 18.1636 39.1177 18.4813H39.1302Z" fill="white"/>
</svg>
