<svg width="34" height="35" viewBox="0 0 34 35" fill="none" xmlns="http://www.w3.org/2000/svg">
<g clip-path="url(#clip0_10098_140115)">
<path d="M31.293 0.734375H2.56689C1.19083 0.734375 0.078125 1.82074 0.078125 3.16388V32.0085C0.078125 33.3516 1.19083 34.4446 2.56689 34.4446H31.293C32.6691 34.4446 33.7883 33.3516 33.7883 32.0151V3.16388C33.7883 1.82074 32.6691 0.734375 31.293 0.734375ZM10.0793 29.4605H5.0754V13.3691H10.0793V29.4605ZM7.57733 11.1766C5.97083 11.1766 4.67378 9.87959 4.67378 8.27967C4.67378 6.67975 5.97083 5.3827 7.57733 5.3827C9.17725 5.3827 10.4743 6.67975 10.4743 8.27967C10.4743 9.873 9.17725 11.1766 7.57733 11.1766ZM28.8042 29.4605H23.807V21.6387C23.807 19.7754 23.774 17.3722 21.2063 17.3722C18.6056 17.3722 18.2105 19.4067 18.2105 21.507V29.4605H13.2198V13.3691H18.013V15.5682H18.0788C18.7438 14.3041 20.3767 12.9675 22.8062 12.9675C27.8693 12.9675 28.8042 16.299 28.8042 20.6313V29.4605Z" fill="#1C1C1C"/>
</g>
<defs>
<clipPath id="clip0_10098_140115">
<rect width="33.7102" height="33.7102" fill="white" transform="translate(0.078125 0.734375)"/>
</clipPath>
</defs>
</svg>
