<svg width="37" height="41" viewBox="0 0 37 41" fill="none" xmlns="http://www.w3.org/2000/svg">
<path d="M35.8467 25.2144L30.2702 21.855C29.1687 21.1912 29.1637 19.5235 30.262 18.853L35.8335 15.4512C36.6214 14.9703 36.8883 13.9096 36.4304 13.0819L33.3967 7.59744C32.9389 6.76984 31.9287 6.48896 31.1413 6.96989L25.5985 10.3535C24.5001 11.0236 23.1235 10.194 23.1199 8.86015L23.1016 2.12678C23.0989 1.16925 22.3584 0.395592 21.4473 0.398445L15.4066 0.416601C14.4955 0.419454 13.7586 1.19743 13.7613 2.15497L13.7804 8.92412C13.7841 10.258 12.4115 11.0961 11.31 10.4328L5.73355 7.07354C4.94293 6.59737 3.93501 6.88438 3.48176 7.71441L0.476675 13.219C0.0233394 14.0495 0.297031 15.1083 1.08723 15.5844L6.63411 18.9266C7.73615 19.5903 7.74067 21.2581 6.64231 21.9281L1.12949 25.2936C0.341628 25.775 0.0742959 26.8357 0.532066 27.6634L3.56769 33.1492C4.02588 33.9769 5.03564 34.2577 5.82349 33.7763L11.365 30.3922C12.4634 29.7217 13.8405 30.5513 13.8441 31.8856L13.8631 38.6199C13.8659 39.5774 14.6069 40.3512 15.518 40.3478L21.5569 40.3287C22.4679 40.3258 23.204 39.5478 23.2017 38.5907L23.1826 31.8923C23.1789 30.5584 24.5515 29.7203 25.6535 30.3836L31.2008 33.7257C31.9915 34.2019 32.9994 33.9143 33.4526 33.0843L36.4573 27.5802C36.9105 26.7497 36.6373 25.691 35.8472 25.2148L35.8467 25.2144ZM25.283 20.6525C25.2502 20.6587 25.2175 20.6654 25.1852 20.6716C24.741 20.7605 24.31 20.8875 23.895 21.0484C23.6473 21.1449 23.4049 21.2538 23.1685 21.3737C21.535 22.2065 20.212 23.5968 19.4191 25.3127C19.3042 25.5606 19.2009 25.8151 19.1095 26.0758C18.9563 26.5114 18.8359 26.9641 18.7508 27.4307C18.7445 27.4647 18.7386 27.4995 18.7327 27.5339C18.68 27.8458 18.254 27.8458 18.2012 27.5339C18.1953 27.4995 18.189 27.4647 18.183 27.4307C18.0984 26.9641 17.9775 26.5114 17.8243 26.0758C17.7325 25.8151 17.6289 25.5606 17.5148 25.3127C16.7214 23.5962 15.3984 22.2065 13.765 21.3737C13.529 21.2533 13.2867 21.1449 13.0385 21.0484C12.6239 20.8875 12.1929 20.7609 11.7487 20.6716C11.7159 20.6649 11.6832 20.6587 11.6505 20.6525C11.3536 20.5971 11.3536 20.1496 11.6505 20.0942C11.6832 20.088 11.7159 20.0818 11.7487 20.0751C12.1929 19.9858 12.6239 19.8588 13.0385 19.6983C13.2867 19.6018 13.529 19.4929 13.765 19.3731C15.3989 18.5402 16.7214 17.1499 17.5148 15.4344C17.6293 15.1866 17.7325 14.9316 17.8243 14.6713C17.9775 14.2353 18.098 13.783 18.183 13.3159C18.1894 13.2821 18.1953 13.2472 18.2012 13.2132C18.254 12.9014 18.68 12.9014 18.7327 13.2132C18.7386 13.2472 18.7445 13.2821 18.7508 13.3159C18.8359 13.7825 18.9568 14.2353 19.1095 14.6713C19.2014 14.9316 19.3046 15.1862 19.4191 15.4344C20.212 17.1504 21.5354 18.5402 23.1685 19.3731C23.4044 19.4934 23.6473 19.6023 23.895 19.6983C24.31 19.8592 24.7406 19.9858 25.1852 20.0751C25.2175 20.0818 25.2507 20.088 25.283 20.0942C25.5798 20.1496 25.5798 20.5971 25.283 20.6525Z" fill="#1C1C1C"/>
</svg>
