<svg width="36" height="36" viewBox="0 0 36 36" fill="none" xmlns="http://www.w3.org/2000/svg">
<path d="M22.6918 24.7357C21.7164 25.711 19.6265 26.0592 18.1373 26.0592C16.6437 26.0592 14.5581 25.711 13.5828 24.7357C13.3519 24.5048 12.9818 24.5048 12.7513 24.7357C12.5204 24.9665 12.5204 25.3366 12.7513 25.5672C14.297 27.1129 17.2666 27.2348 18.1373 27.2348C19.008 27.2348 21.9732 27.1129 23.5236 25.5672C23.7498 25.3363 23.7498 24.9662 23.5236 24.7357C23.2927 24.5048 22.9226 24.5048 22.6918 24.7357Z" fill="#1C1C1C"/>
<path d="M15.4122 19.5733C15.4122 18.3236 14.3933 17.3047 13.1436 17.3047C11.8942 17.3047 10.875 18.3236 10.875 19.5733C10.875 20.8227 11.8942 21.8419 13.1436 21.8419C14.3933 21.8419 15.4122 20.823 15.4122 19.5733Z" fill="#1C1C1C"/>
<path d="M18.1355 0.429688C8.44032 0.429688 0.578125 8.29189 0.578125 17.9871C0.578125 27.6823 8.44032 35.5445 18.1355 35.5445C27.8307 35.5445 35.6929 27.6823 35.6929 17.9871C35.6929 8.29189 27.8307 0.429688 18.1355 0.429688ZM28.3223 20.3291C28.3609 20.582 28.3821 20.8384 28.3821 21.0983C28.3821 25.0381 23.7961 28.2302 18.139 28.2302C12.4819 28.2302 7.89594 25.0381 7.89594 21.0983C7.89594 20.8349 7.91711 20.575 7.95568 20.3221C7.06383 19.9219 6.44229 19.0266 6.44229 17.9871C6.44229 16.5755 7.58705 15.4273 9.00212 15.4273C9.69037 15.4273 10.3119 15.6976 10.7719 16.1402C12.5486 14.8585 15.0069 14.04 17.7422 13.9699C17.7422 13.9348 19.0204 7.84583 19.0204 7.84583C19.0451 7.72661 19.1153 7.62454 19.2171 7.5581C19.3189 7.49139 19.4418 7.47022 19.5613 7.49487L23.8172 8.40066C24.1157 7.7968 24.73 7.37887 25.4499 7.37887C26.4612 7.37887 27.2794 8.19705 27.2794 9.20839C27.2794 10.2197 26.4612 11.0379 25.4499 11.0379C24.4701 11.0379 23.6766 10.2653 23.6311 9.29626L19.8209 8.48505L18.6553 13.9736C21.3415 14.0682 23.754 14.8829 25.5026 16.1471C25.9626 15.7013 26.5877 15.4273 27.2794 15.4273C28.6947 15.4273 29.8392 16.572 29.8392 17.9871C29.8392 19.0335 29.2107 19.9289 28.3223 20.3291Z" fill="#1C1C1C"/>
<path d="M23.128 17.3047C21.8782 17.3047 20.8594 18.3236 20.8594 19.5733C20.8594 20.8227 21.8782 21.8419 23.128 21.8419C24.3774 21.8419 25.3966 20.8227 25.3966 19.5733C25.3966 18.3236 24.3777 17.3047 23.128 17.3047Z" fill="#1C1C1C"/>
</svg>
