<svg width="38" height="38" viewBox="0 0 38 38" fill="none" xmlns="http://www.w3.org/2000/svg">
<path fill-rule="evenodd" clip-rule="evenodd" d="M18.9003 0.804688C8.8164 0.804688 0.640625 8.98047 0.640625 19.0644C0.640625 29.1483 8.8164 37.3241 18.9003 37.3241C28.9842 37.3241 37.16 29.1483 37.16 19.0644C37.16 8.98047 28.9842 0.804688 18.9003 0.804688ZM27.3637 13.2228C27.0898 16.1094 25.8999 23.1165 25.2958 26.35C25.0401 27.7195 24.535 28.1775 24.048 28.2216C22.9875 28.319 22.1825 27.5201 21.1554 26.8476C19.5485 25.7946 18.6401 25.1388 17.0804 24.1101C15.2773 22.9217 16.4459 22.269 17.473 21.2023C17.7424 20.9223 22.4138 16.6724 22.5051 16.2874C22.5157 16.2387 22.5279 16.0591 22.4199 15.9648C22.3118 15.8705 22.1551 15.9024 22.0425 15.9283C21.8812 15.9648 19.3142 17.6614 14.34 21.0182C13.6111 21.5188 12.9507 21.7623 12.3588 21.7501C11.7075 21.7364 10.4537 21.3818 9.52092 21.0775C8.37817 20.7062 7.46823 20.5084 7.54736 19.8785C7.58844 19.5498 8.04037 19.2135 8.90466 18.8696C14.2274 16.5506 17.7773 15.0214 19.5531 14.2819C24.6247 12.1729 25.6777 11.8062 26.3655 11.794C27.2267 11.7818 27.4337 12.4924 27.3637 13.2228Z" fill="#1C1C1C"/>
</svg>
