<?xml version="1.0" encoding="UTF-8"?>
<svg xmlns="http://www.w3.org/2000/svg" viewBox="0 0 683.04 399.05">
  <defs>
    <style>
      .cls-1 {
        fill: #53608c;
      }

      .cls-2 {
        mix-blend-mode: multiply;
        opacity: .5;
      }

      .cls-3 {
        fill: #aaadb2;
      }

      .cls-4 {
        fill: #000001;
      }

      .cls-5 {
        isolation: isolate;
      }

      .cls-6, .cls-7, .cls-8 {
        fill: #fff;
      }

      .cls-9 {
        fill: #95acd2;
      }

      .cls-7 {
        stroke-width: .25px;
      }

      .cls-7, .cls-8 {
        stroke: #000;
        stroke-miterlimit: 10;
      }

      .cls-8 {
        stroke-width: .5px;
      }

      .cls-10 {
        fill: #c3c7cd;
      }

      .cls-11 {
        fill: #36487c;
      }
    </style>
  </defs>
  <g class="cls-5">
    <g id="Layer_1" data-name="Layer 1">
      <g>
        <path class="cls-3" d="M683.04,190.08v16.88c0,1.52-.37,2.92-1.76,3.69l-330.35,185.68c-6.47,3.61-14.51,3.63-20.99.04L23.09,226.62l-21.33-11.98c-1.38-.77-1.76-2.17-1.76-3.69l.58-19.95c0-.14.2-.18.26-.05.24,1.2.08,2.71.87,4.37.72,1.51,1.53,2.73,2.25,3.65.74.41,1.48.82,2.23,1.22l331.95,183.6c1.43.79,3.2.78,4.61-.01l334.44-185.96c.95-.58,2.83-1.9,4.08-4.26.75-1.43,1.02-2.75,1.12-3.66.21.06.43.13.64.19Z"/>
        <path class="cls-8" d="M677.11,180.48c6.99,3.77,7.06,13.26.13,17.13l-.05.03-331.41,184.98c-3.29,1.84-7.38,1.84-10.67.02L6.2,200.7h0c-6.92-3.83-6.92-13.27,0-17.09L335.2,1.61c3.25-1.8,7.27-1.82,10.54-.05l331.37,178.92Z"/>
      </g>
      <path d="M348.7,295.7c-1.12,0-2.2-.22-3-.67l-73.8-39.81c-.8-.45-1.23-1.07-1.23-1.76,0-.82.63-1.64,1.72-2.25l65.1-35.11c2.04-1.14,5.13-1.26,6.89-.27l73.79,39.81c.79.44,1.23,1.06,1.23,1.75,0,.82-.62,1.64-1.71,2.26l-65.1,35.11c-1.11.62-2.53.94-3.89.94ZM341.37,215.41c-1.31,0-2.69.31-3.76.91l-65.1,35.11c-1.01.56-1.58,1.3-1.58,2.03,0,.59.39,1.14,1.1,1.54l73.8,39.81c1.69.95,4.67.83,6.63-.27l65.1-35.11c1-.56,1.58-1.31,1.58-2.04,0-.59-.39-1.14-1.1-1.53l-73.79-39.81c-.77-.43-1.8-.64-2.87-.64Z"/>
      <path d="M493.12,239.06c-1.12,0-2.2-.22-3-.67l-73.8-39.81c-.8-.45-1.23-1.07-1.23-1.76,0-.82.63-1.64,1.72-2.25l65.1-35.11c2.04-1.14,5.13-1.26,6.89-.27l73.79,39.81c.79.44,1.23,1.06,1.23,1.75,0,.82-.62,1.64-1.71,2.26l-65.1,35.11c-1.11.62-2.53.94-3.89.94ZM485.8,158.77c-1.31,0-2.69.31-3.76.91l-65.1,35.11c-1.01.56-1.58,1.3-1.58,2.03,0,.59.39,1.14,1.1,1.54l73.8,39.81c1.69.95,4.67.83,6.63-.27l65.1-35.11c1-.56,1.58-1.31,1.58-2.04,0-.59-.39-1.14-1.1-1.53l-73.79-39.81c-.77-.43-1.8-.64-2.87-.64Z"/>
      <path d="M204.26,214.82c-1.12,0-2.2-.22-3-.67l-73.8-39.81c-.8-.45-1.23-1.07-1.23-1.76,0-.82.63-1.64,1.72-2.25l65.1-35.11c2.04-1.14,5.13-1.26,6.89-.27l73.79,39.81c.79.44,1.23,1.06,1.23,1.75,0,.82-.62,1.64-1.71,2.26l-65.1,35.11c-1.11.62-2.53.94-3.89.94ZM196.93,134.53c-1.31,0-2.69.31-3.76.91l-65.1,35.11c-1.01.56-1.58,1.3-1.58,2.03,0,.59.39,1.14,1.1,1.54l73.8,39.81c1.69.95,4.67.83,6.63-.27l65.1-35.11c1-.56,1.58-1.31,1.58-2.04,0-.59-.39-1.14-1.1-1.53l-73.79-39.81c-.77-.43-1.8-.64-2.87-.64Z"/>
      <g>
        <g>
          <polygon class="cls-11" points="275.35 306.86 275.35 317.78 308.28 299.74 308.28 288.31 275.35 306.86"/>
          <polygon class="cls-1" points="242.08 288.31 242.08 299.61 275.35 317.78 275.35 306.86 242.08 288.31"/>
          <polygon class="cls-9" points="242.08 288.31 274.97 270 308.28 288.31 275.39 307.03 242.08 288.31"/>
          <g>
            <polygon class="cls-4" points="288.44 307.46 295.22 303.75 295.22 298.84 288.44 302.66 288.44 307.46"/>
            <polygon class="cls-4" points="298.66 301.86 305.41 298.16 305.41 293.1 298.66 296.9 298.66 301.86"/>
            <polygon class="cls-4" points="285 304.6 278.22 308.42 278.22 313.06 285 309.35 285 304.6"/>
          </g>
          <g>
            <polygon class="cls-11" points="261.96 307.46 255.18 303.75 255.18 298.84 261.96 302.66 261.96 307.46"/>
            <polygon class="cls-11" points="251.74 301.86 244.99 298.16 244.99 293.1 251.74 296.9 251.74 301.86"/>
            <polygon class="cls-11" points="265.4 304.6 272.18 308.42 272.18 313.06 265.4 309.35 265.4 304.6"/>
          </g>
        </g>
        <g>
          <polygon class="cls-11" points="275.35 285.41 275.35 296.33 308.28 278.29 308.28 266.86 275.35 285.41"/>
          <polygon class="cls-1" points="242.08 266.86 242.08 278.15 275.35 296.33 275.35 285.41 242.08 266.86"/>
          <polygon class="cls-7" points="242.08 266.86 274.97 248.55 308.28 266.86 275.39 285.58 242.08 266.86"/>
          <g>
            <polygon class="cls-4" points="288.44 286.01 295.22 282.29 295.22 277.39 288.44 281.21 288.44 286.01"/>
            <polygon class="cls-4" points="298.66 280.41 305.41 276.71 305.41 271.65 298.66 275.45 298.66 280.41"/>
            <polygon class="cls-4" points="285 283.14 278.22 286.96 278.22 291.61 285 287.89 285 283.14"/>
          </g>
          <g>
            <polygon class="cls-11" points="261.96 286.01 255.18 282.29 255.18 277.39 261.96 281.21 261.96 286.01"/>
            <polygon class="cls-11" points="251.74 280.41 244.99 276.71 244.99 271.65 251.74 275.45 251.74 280.41"/>
            <polygon class="cls-11" points="265.4 283.14 272.18 286.96 272.18 291.61 265.4 287.89 265.4 283.14"/>
          </g>
        </g>
      </g>
      <g>
        <g>
          <polygon class="cls-11" points="276.94 236.31 276.94 243.54 298.73 231.6 298.73 224.04 276.94 236.31"/>
          <polygon class="cls-1" points="254.92 224.04 254.92 231.51 276.94 243.54 276.94 236.31 254.92 224.04"/>
          <polygon class="cls-9" points="254.92 224.04 276.68 211.92 298.73 224.04 276.97 236.43 254.92 224.04"/>
          <g>
            <polygon class="cls-4" points="285.6 236.71 290.09 234.25 290.09 231.01 285.6 233.54 285.6 236.71"/>
            <polygon class="cls-4" points="292.36 233.01 296.83 230.56 296.83 227.21 292.36 229.73 292.36 233.01"/>
            <polygon class="cls-4" points="283.32 234.82 278.84 237.35 278.84 240.42 283.32 237.96 283.32 234.82"/>
          </g>
          <g>
            <polygon class="cls-11" points="268.07 236.71 263.58 234.25 263.58 231.01 268.07 233.54 268.07 236.71"/>
            <polygon class="cls-11" points="261.31 233.01 256.84 230.56 256.84 227.21 261.31 229.73 261.31 233.01"/>
            <polygon class="cls-11" points="270.35 234.82 274.84 237.35 274.84 240.42 270.35 237.96 270.35 234.82"/>
          </g>
        </g>
        <g>
          <polygon class="cls-11" points="276.94 222.12 276.94 229.34 298.73 217.4 298.73 209.84 276.94 222.12"/>
          <polygon class="cls-1" points="254.92 209.84 254.92 217.31 276.94 229.34 276.94 222.12 254.92 209.84"/>
          <polygon class="cls-7" points="254.92 209.84 276.68 197.72 298.73 209.84 276.97 222.23 254.92 209.84"/>
          <g>
            <polygon class="cls-4" points="285.6 222.51 290.09 220.05 290.09 216.81 285.6 219.34 285.6 222.51"/>
            <polygon class="cls-4" points="292.36 218.81 296.83 216.36 296.83 213.01 292.36 215.53 292.36 218.81"/>
            <polygon class="cls-4" points="283.32 220.62 278.84 223.15 278.84 226.22 283.32 223.76 283.32 220.62"/>
          </g>
          <g>
            <polygon class="cls-11" points="268.07 222.51 263.58 220.05 263.58 216.81 268.07 219.34 268.07 222.51"/>
            <polygon class="cls-11" points="261.31 218.81 256.84 216.36 256.84 213.01 261.31 215.53 261.31 218.81"/>
            <polygon class="cls-11" points="270.35 220.62 274.84 223.15 274.84 226.22 270.35 223.76 270.35 220.62"/>
          </g>
        </g>
      </g>
      <g>
        <g>
          <polygon class="cls-11" points="351.1 54.99 351.1 62.22 372.89 50.28 372.89 42.72 351.1 54.99"/>
          <polygon class="cls-1" points="329.07 42.72 329.07 50.19 351.1 62.22 351.1 54.99 329.07 42.72"/>
          <polygon class="cls-9" points="329.07 42.72 350.84 30.6 372.89 42.72 351.12 55.11 329.07 42.72"/>
          <g>
            <polygon class="cls-4" points="359.75 55.39 364.24 52.93 364.24 49.69 359.75 52.21 359.75 55.39"/>
            <polygon class="cls-4" points="366.52 51.69 370.99 49.24 370.99 45.89 366.52 48.4 366.52 51.69"/>
            <polygon class="cls-4" points="357.48 53.5 352.99 56.03 352.99 59.1 357.48 56.64 357.48 53.5"/>
          </g>
          <g>
            <polygon class="cls-11" points="342.23 55.39 337.74 52.93 337.74 49.69 342.23 52.21 342.23 55.39"/>
            <polygon class="cls-11" points="335.46 51.69 330.99 49.24 330.99 45.89 335.46 48.4 335.46 51.69"/>
            <polygon class="cls-11" points="344.5 53.5 348.99 56.03 348.99 59.1 344.5 56.64 344.5 53.5"/>
          </g>
        </g>
        <g>
          <polygon class="cls-11" points="351.1 40.79 351.1 48.02 372.89 36.08 372.89 28.52 351.1 40.79"/>
          <polygon class="cls-1" points="329.07 28.52 329.07 35.99 351.1 48.02 351.1 40.79 329.07 28.52"/>
          <polygon class="cls-7" points="329.07 28.52 350.84 16.4 372.89 28.52 351.12 40.91 329.07 28.52"/>
          <g>
            <polygon class="cls-4" points="359.75 41.19 364.24 38.73 364.24 35.49 359.75 38.02 359.75 41.19"/>
            <polygon class="cls-4" points="366.52 37.49 370.99 35.04 370.99 31.69 366.52 34.21 366.52 37.49"/>
            <polygon class="cls-4" points="357.48 39.3 352.99 41.83 352.99 44.9 357.48 42.44 357.48 39.3"/>
          </g>
          <g>
            <polygon class="cls-11" points="342.23 41.19 337.74 38.73 337.74 35.49 342.23 38.02 342.23 41.19"/>
            <polygon class="cls-11" points="335.46 37.49 330.99 35.04 330.99 31.69 335.46 34.21 335.46 37.49"/>
            <polygon class="cls-11" points="344.5 39.3 348.99 41.83 348.99 44.9 344.5 42.44 344.5 39.3"/>
          </g>
        </g>
      </g>
      <g>
        <g>
          <polygon class="cls-11" points="516.31 181.92 516.31 189.15 538.1 177.21 538.1 169.64 516.31 181.92"/>
          <polygon class="cls-1" points="494.29 169.64 494.29 177.12 516.31 189.15 516.31 181.92 494.29 169.64"/>
          <polygon class="cls-9" points="494.29 169.64 516.05 157.52 538.1 169.64 516.33 182.03 494.29 169.64"/>
          <g>
            <polygon class="cls-4" points="524.97 182.32 529.46 179.86 529.46 176.61 524.97 179.14 524.97 182.32"/>
            <polygon class="cls-4" points="531.73 178.61 536.2 176.16 536.2 172.81 531.73 175.33 531.73 178.61"/>
            <polygon class="cls-4" points="522.69 180.42 518.2 182.95 518.2 186.02 522.69 183.56 522.69 180.42"/>
          </g>
          <g>
            <polygon class="cls-11" points="507.44 182.32 502.95 179.86 502.95 176.61 507.44 179.14 507.44 182.32"/>
            <polygon class="cls-11" points="500.68 178.61 496.21 176.16 496.21 172.81 500.68 175.33 500.68 178.61"/>
            <polygon class="cls-11" points="509.72 180.42 514.2 182.95 514.2 186.02 509.72 183.56 509.72 180.42"/>
          </g>
        </g>
        <g>
          <polygon class="cls-11" points="516.31 167.72 516.31 174.95 538.1 163.01 538.1 155.44 516.31 167.72"/>
          <polygon class="cls-1" points="494.29 155.44 494.29 162.92 516.31 174.95 516.31 167.72 494.29 155.44"/>
          <polygon class="cls-7" points="494.29 155.44 516.05 143.32 538.1 155.44 516.33 167.83 494.29 155.44"/>
          <g>
            <polygon class="cls-4" points="524.97 168.12 529.46 165.66 529.46 162.41 524.97 164.94 524.97 168.12"/>
            <polygon class="cls-4" points="531.73 164.41 536.2 161.96 536.2 158.61 531.73 161.13 531.73 164.41"/>
            <polygon class="cls-4" points="522.69 166.22 518.2 168.75 518.2 171.82 522.69 169.36 522.69 166.22"/>
          </g>
          <g>
            <polygon class="cls-11" points="507.44 168.12 502.95 165.66 502.95 162.41 507.44 164.94 507.44 168.12"/>
            <polygon class="cls-11" points="500.68 164.41 496.21 161.96 496.21 158.61 500.68 161.13 500.68 164.41"/>
            <polygon class="cls-11" points="509.72 166.22 514.2 168.75 514.2 171.82 509.72 169.36 509.72 166.22"/>
          </g>
        </g>
      </g>
      <g>
        <g>
          <polygon class="cls-11" points="496.32 127.97 496.32 135.2 518.11 123.26 518.11 115.7 496.32 127.97"/>
          <polygon class="cls-1" points="474.3 115.7 474.3 123.17 496.32 135.2 496.32 127.97 474.3 115.7"/>
          <polygon class="cls-9" points="474.3 115.7 496.07 103.58 518.11 115.7 496.35 128.09 474.3 115.7"/>
          <g>
            <polygon class="cls-4" points="504.98 128.37 509.47 125.91 509.47 122.67 504.98 125.19 504.98 128.37"/>
            <polygon class="cls-4" points="511.75 124.67 516.22 122.22 516.22 118.87 511.75 121.38 511.75 124.67"/>
            <polygon class="cls-4" points="502.71 126.48 498.22 129 498.22 132.08 502.71 129.62 502.71 126.48"/>
          </g>
          <g>
            <polygon class="cls-11" points="487.46 128.37 482.97 125.91 482.97 122.67 487.46 125.19 487.46 128.37"/>
            <polygon class="cls-11" points="480.69 124.67 476.22 122.22 476.22 118.87 480.69 121.38 480.69 124.67"/>
            <polygon class="cls-11" points="489.73 126.48 494.22 129 494.22 132.08 489.73 129.62 489.73 126.48"/>
          </g>
        </g>
        <g>
          <polygon class="cls-11" points="496.32 113.77 496.32 121 518.11 109.06 518.11 101.5 496.32 113.77"/>
          <polygon class="cls-1" points="474.3 101.5 474.3 108.97 496.32 121 496.32 113.77 474.3 101.5"/>
          <polygon class="cls-7" points="474.3 101.5 496.07 89.38 518.11 101.5 496.35 113.89 474.3 101.5"/>
          <g>
            <polygon class="cls-4" points="504.98 114.17 509.47 111.71 509.47 108.47 504.98 110.99 504.98 114.17"/>
            <polygon class="cls-4" points="511.75 110.47 516.22 108.02 516.22 104.67 511.75 107.18 511.75 110.47"/>
            <polygon class="cls-4" points="502.71 112.28 498.22 114.8 498.22 117.88 502.71 115.42 502.71 112.28"/>
          </g>
          <g>
            <polygon class="cls-11" points="487.46 114.17 482.97 111.71 482.97 108.47 487.46 110.99 487.46 114.17"/>
            <polygon class="cls-11" points="480.69 110.47 476.22 108.02 476.22 104.67 480.69 107.18 480.69 110.47"/>
            <polygon class="cls-11" points="489.73 112.28 494.22 114.8 494.22 117.88 489.73 115.42 489.73 112.28"/>
          </g>
        </g>
      </g>
      <g>
        <g>
          <polygon class="cls-11" points="99.12 215.95 99.12 226.87 132.04 208.83 132.04 197.4 99.12 215.95"/>
          <polygon class="cls-1" points="65.85 197.4 65.85 208.7 99.12 226.87 99.12 215.95 65.85 197.4"/>
          <polygon class="cls-9" points="65.85 197.4 98.73 179.09 132.04 197.4 99.16 216.12 65.85 197.4"/>
          <g>
            <polygon class="cls-4" points="112.2 216.55 118.98 212.84 118.98 207.93 112.2 211.75 112.2 216.55"/>
            <polygon class="cls-4" points="122.42 210.95 129.17 207.25 129.17 202.19 122.42 205.99 122.42 210.95"/>
            <polygon class="cls-4" points="108.76 213.69 101.98 217.51 101.98 222.15 108.76 218.44 108.76 213.69"/>
          </g>
          <g>
            <polygon class="cls-11" points="85.72 216.55 78.94 212.84 78.94 207.93 85.72 211.75 85.72 216.55"/>
            <polygon class="cls-11" points="75.5 210.95 68.75 207.25 68.75 202.19 75.5 205.99 75.5 210.95"/>
            <polygon class="cls-11" points="89.16 213.69 95.94 217.51 95.94 222.15 89.16 218.44 89.16 213.69"/>
          </g>
        </g>
        <g>
          <polygon class="cls-11" points="99.12 194.5 99.12 205.42 132.04 187.38 132.04 175.95 99.12 194.5"/>
          <polygon class="cls-1" points="65.85 175.95 65.85 187.24 99.12 205.42 99.12 194.5 65.85 175.95"/>
          <polygon class="cls-7" points="65.85 175.95 98.73 157.64 132.04 175.95 99.16 194.67 65.85 175.95"/>
          <g>
            <polygon class="cls-4" points="112.2 195.1 118.98 191.38 118.98 186.48 112.2 190.3 112.2 195.1"/>
            <polygon class="cls-4" points="122.42 189.5 129.17 185.8 129.17 180.74 122.42 184.54 122.42 189.5"/>
            <polygon class="cls-4" points="108.76 192.23 101.98 196.05 101.98 200.7 108.76 196.98 108.76 192.23"/>
          </g>
          <g>
            <polygon class="cls-11" points="85.72 195.1 78.94 191.38 78.94 186.48 85.72 190.3 85.72 195.1"/>
            <polygon class="cls-11" points="75.5 189.5 68.75 185.8 68.75 180.74 75.5 184.54 75.5 189.5"/>
            <polygon class="cls-11" points="89.16 192.23 95.94 196.05 95.94 200.7 89.16 196.98 89.16 192.23"/>
          </g>
        </g>
      </g>
      <g>
        <g>
          <polygon class="cls-11" points="194.12 160.36 194.12 171.28 227.05 153.24 227.05 141.82 194.12 160.36"/>
          <polygon class="cls-1" points="160.86 141.82 160.86 153.11 194.12 171.28 194.12 160.36 160.86 141.82"/>
          <polygon class="cls-9" points="160.86 141.82 193.74 123.5 227.05 141.82 194.16 160.54 160.86 141.82"/>
          <g>
            <polygon class="cls-4" points="207.21 160.97 213.99 157.25 213.99 152.34 207.21 156.16 207.21 160.97"/>
            <polygon class="cls-4" points="217.43 155.37 224.18 151.66 224.18 146.6 217.43 150.41 217.43 155.37"/>
            <polygon class="cls-4" points="203.77 158.1 196.99 161.92 196.99 166.56 203.77 162.85 203.77 158.1"/>
          </g>
          <g>
            <polygon class="cls-11" points="180.73 160.97 173.95 157.25 173.95 152.34 180.73 156.16 180.73 160.97"/>
            <polygon class="cls-11" points="170.51 155.37 163.76 151.66 163.76 146.6 170.51 150.41 170.51 155.37"/>
            <polygon class="cls-11" points="184.17 158.1 190.95 161.92 190.95 166.56 184.17 162.85 184.17 158.1"/>
          </g>
        </g>
        <g>
          <polygon class="cls-11" points="194.12 138.91 194.12 149.83 227.05 131.79 227.05 120.36 194.12 138.91"/>
          <polygon class="cls-1" points="160.86 120.36 160.86 131.66 194.12 149.83 194.12 138.91 160.86 120.36"/>
          <polygon class="cls-7" points="160.86 120.36 193.74 102.05 227.05 120.36 194.16 139.08 160.86 120.36"/>
          <g>
            <polygon class="cls-4" points="207.21 139.51 213.99 135.8 213.99 130.89 207.21 134.71 207.21 139.51"/>
            <polygon class="cls-4" points="217.43 133.91 224.18 130.21 224.18 125.15 217.43 128.95 217.43 133.91"/>
            <polygon class="cls-4" points="203.77 136.65 196.99 140.47 196.99 145.11 203.77 141.4 203.77 136.65"/>
          </g>
          <g>
            <polygon class="cls-11" points="180.73 139.51 173.95 135.8 173.95 130.89 180.73 134.71 180.73 139.51"/>
            <polygon class="cls-11" points="170.51 133.91 163.76 130.21 163.76 125.15 170.51 128.95 170.51 133.91"/>
            <polygon class="cls-11" points="184.17 136.65 190.95 140.47 190.95 145.11 184.17 141.4 184.17 136.65"/>
          </g>
        </g>
      </g>
      <g>
        <g>
          <polygon class="cls-11" points="322.91 181.22 322.91 192.14 355.83 174.1 355.83 162.67 322.91 181.22"/>
          <polygon class="cls-1" points="289.64 162.67 289.64 173.96 322.91 192.14 322.91 181.22 289.64 162.67"/>
          <polygon class="cls-9" points="289.64 162.67 322.52 144.36 355.83 162.67 322.95 181.39 289.64 162.67"/>
          <g>
            <polygon class="cls-4" points="335.99 181.82 342.77 178.1 342.77 173.2 335.99 177.02 335.99 181.82"/>
            <polygon class="cls-4" points="346.21 176.22 352.97 172.52 352.97 167.46 346.21 171.26 346.21 176.22"/>
            <polygon class="cls-4" points="332.55 178.95 325.77 182.77 325.77 187.42 332.55 183.7 332.55 178.95"/>
          </g>
          <g>
            <polygon class="cls-11" points="309.51 181.82 302.73 178.1 302.73 173.2 309.51 177.02 309.51 181.82"/>
            <polygon class="cls-11" points="299.29 176.22 292.54 172.52 292.54 167.46 299.29 171.26 299.29 176.22"/>
            <polygon class="cls-11" points="312.95 178.95 319.73 182.77 319.73 187.42 312.95 183.7 312.95 178.95"/>
          </g>
        </g>
        <g>
          <polygon class="cls-11" points="322.91 159.76 322.91 170.69 355.83 152.64 355.83 141.22 322.91 159.76"/>
          <polygon class="cls-1" points="289.64 141.22 289.64 152.51 322.91 170.69 322.91 159.76 289.64 141.22"/>
          <polygon class="cls-7" points="289.64 141.22 322.52 122.9 355.83 141.22 322.95 159.94 289.64 141.22"/>
          <g>
            <polygon class="cls-4" points="335.99 160.37 342.77 156.65 342.77 151.74 335.99 155.56 335.99 160.37"/>
            <polygon class="cls-4" points="346.21 154.77 352.97 151.06 352.97 146 346.21 149.81 346.21 154.77"/>
            <polygon class="cls-4" points="332.55 157.5 325.77 161.32 325.77 165.97 332.55 162.25 332.55 157.5"/>
          </g>
          <g>
            <polygon class="cls-11" points="309.51 160.37 302.73 156.65 302.73 151.74 309.51 155.56 309.51 160.37"/>
            <polygon class="cls-11" points="299.29 154.77 292.54 151.06 292.54 146 299.29 149.81 299.29 154.77"/>
            <polygon class="cls-11" points="312.95 157.5 319.73 161.32 319.73 165.97 312.95 162.25 312.95 157.5"/>
          </g>
        </g>
      </g>
      <g>
        <g>
          <polygon class="cls-11" points="440.82 306.78 440.82 317.7 473.74 299.66 473.74 288.23 440.82 306.78"/>
          <polygon class="cls-1" points="407.55 288.23 407.55 299.52 440.82 317.7 440.82 306.78 407.55 288.23"/>
          <polygon class="cls-9" points="407.55 288.23 440.43 269.92 473.74 288.23 440.86 306.95 407.55 288.23"/>
          <g>
            <polygon class="cls-4" points="453.91 307.38 460.69 303.66 460.69 298.76 453.91 302.58 453.91 307.38"/>
            <polygon class="cls-4" points="464.12 301.78 470.88 298.08 470.88 293.01 464.12 296.82 464.12 301.78"/>
            <polygon class="cls-4" points="450.47 304.51 443.69 308.33 443.69 312.98 450.47 309.26 450.47 304.51"/>
          </g>
          <g>
            <polygon class="cls-11" points="427.43 307.38 420.64 303.66 420.64 298.76 427.43 302.58 427.43 307.38"/>
            <polygon class="cls-11" points="417.21 301.78 410.45 298.08 410.45 293.01 417.21 296.82 417.21 301.78"/>
            <polygon class="cls-11" points="430.86 304.51 437.64 308.33 437.64 312.98 430.86 309.26 430.86 304.51"/>
          </g>
        </g>
        <g>
          <polygon class="cls-11" points="440.82 285.32 440.82 296.24 473.74 278.2 473.74 266.78 440.82 285.32"/>
          <polygon class="cls-1" points="407.55 266.78 407.55 278.07 440.82 296.24 440.82 285.32 407.55 266.78"/>
          <polygon class="cls-7" points="407.55 266.78 440.43 248.46 473.74 266.78 440.86 285.5 407.55 266.78"/>
          <g>
            <polygon class="cls-4" points="453.91 285.92 460.69 282.21 460.69 277.3 453.91 281.12 453.91 285.92"/>
            <polygon class="cls-4" points="464.12 280.33 470.88 276.62 470.88 271.56 464.12 275.37 464.12 280.33"/>
            <polygon class="cls-4" points="450.47 283.06 443.69 286.88 443.69 291.52 450.47 287.81 450.47 283.06"/>
          </g>
          <g>
            <polygon class="cls-11" points="427.43 285.92 420.64 282.21 420.64 277.3 427.43 281.12 427.43 285.92"/>
            <polygon class="cls-11" points="417.21 280.33 410.45 276.62 410.45 271.56 417.21 275.37 417.21 280.33"/>
            <polygon class="cls-11" points="430.86 283.06 437.64 286.88 437.64 291.52 430.86 287.81 430.86 283.06"/>
          </g>
        </g>
      </g>
      <g>
        <g>
          <polygon class="cls-11" points="524.76 249.29 524.76 260.21 557.68 242.17 557.68 230.74 524.76 249.29"/>
          <polygon class="cls-1" points="491.49 230.74 491.49 242.03 524.76 260.21 524.76 249.29 491.49 230.74"/>
          <polygon class="cls-9" points="491.49 230.74 524.37 212.43 557.68 230.74 524.8 249.46 491.49 230.74"/>
          <g>
            <polygon class="cls-4" points="537.84 249.89 544.63 246.17 544.63 241.27 537.84 245.09 537.84 249.89"/>
            <polygon class="cls-4" points="548.06 244.29 554.82 240.59 554.82 235.52 548.06 239.33 548.06 244.29"/>
            <polygon class="cls-4" points="534.41 247.02 527.63 250.84 527.63 255.49 534.41 251.77 534.41 247.02"/>
          </g>
          <g>
            <polygon class="cls-11" points="511.37 249.89 504.58 246.17 504.58 241.27 511.37 245.09 511.37 249.89"/>
            <polygon class="cls-11" points="501.15 244.29 494.39 240.59 494.39 235.52 501.15 239.33 501.15 244.29"/>
            <polygon class="cls-11" points="514.8 247.02 521.58 250.84 521.58 255.49 514.8 251.77 514.8 247.02"/>
          </g>
        </g>
        <g>
          <polygon class="cls-11" points="524.76 227.83 524.76 238.75 557.68 220.71 557.68 209.29 524.76 227.83"/>
          <polygon class="cls-1" points="491.49 209.29 491.49 220.58 524.76 238.75 524.76 227.83 491.49 209.29"/>
          <polygon class="cls-7" points="491.49 209.29 524.37 190.97 557.68 209.29 524.8 228.01 491.49 209.29"/>
          <g>
            <polygon class="cls-4" points="537.84 228.43 544.63 224.72 544.63 219.81 537.84 223.63 537.84 228.43"/>
            <polygon class="cls-4" points="548.06 222.84 554.82 219.13 554.82 214.07 548.06 217.88 548.06 222.84"/>
            <polygon class="cls-4" points="534.41 225.57 527.63 229.39 527.63 234.03 534.41 230.32 534.41 225.57"/>
          </g>
          <g>
            <polygon class="cls-11" points="511.37 228.43 504.58 224.72 504.58 219.81 511.37 223.63 511.37 228.43"/>
            <polygon class="cls-11" points="501.15 222.84 494.39 219.13 494.39 214.07 501.15 217.88 501.15 222.84"/>
            <polygon class="cls-11" points="514.8 225.57 521.58 229.39 521.58 234.03 514.8 230.32 514.8 225.57"/>
          </g>
        </g>
      </g>
      <g>
        <g>
          <polygon class="cls-11" points="595.57 204.12 595.57 215.04 628.49 197 628.49 185.57 595.57 204.12"/>
          <polygon class="cls-1" points="562.3 185.57 562.3 196.86 595.57 215.04 595.57 204.12 562.3 185.57"/>
          <polygon class="cls-9" points="562.3 185.57 595.18 167.26 628.49 185.57 595.61 204.29 562.3 185.57"/>
          <g>
            <polygon class="cls-4" points="608.65 204.72 615.43 201 615.43 196.1 608.65 199.92 608.65 204.72"/>
            <polygon class="cls-4" points="618.87 199.12 625.63 195.42 625.63 190.36 618.87 194.16 618.87 199.12"/>
            <polygon class="cls-4" points="605.22 201.85 598.44 205.67 598.44 210.32 605.22 206.6 605.22 201.85"/>
          </g>
          <g>
            <polygon class="cls-11" points="582.17 204.72 575.39 201 575.39 196.1 582.17 199.92 582.17 204.72"/>
            <polygon class="cls-11" points="571.96 199.12 565.2 195.42 565.2 190.36 571.96 194.16 571.96 199.12"/>
            <polygon class="cls-11" points="585.61 201.85 592.39 205.67 592.39 210.32 585.61 206.6 585.61 201.85"/>
          </g>
        </g>
        <g>
          <polygon class="cls-11" points="595.57 182.66 595.57 193.58 628.49 175.54 628.49 164.12 595.57 182.66"/>
          <polygon class="cls-1" points="562.3 164.12 562.3 175.41 595.57 193.58 595.57 182.66 562.3 164.12"/>
          <polygon class="cls-7" points="562.3 164.12 595.18 145.8 628.49 164.12 595.61 182.84 562.3 164.12"/>
          <g>
            <polygon class="cls-4" points="608.65 183.27 615.43 179.55 615.43 174.64 608.65 178.46 608.65 183.27"/>
            <polygon class="cls-4" points="618.87 177.67 625.63 173.96 625.63 168.9 618.87 172.71 618.87 177.67"/>
            <polygon class="cls-4" points="605.22 180.4 598.44 184.22 598.44 188.87 605.22 185.15 605.22 180.4"/>
          </g>
          <g>
            <polygon class="cls-11" points="582.17 183.27 575.39 179.55 575.39 174.64 582.17 178.46 582.17 183.27"/>
            <polygon class="cls-11" points="571.96 177.67 565.2 173.96 565.2 168.9 571.96 172.71 571.96 177.67"/>
            <polygon class="cls-11" points="585.61 180.4 592.39 184.22 592.39 188.87 585.61 185.15 585.61 180.4"/>
          </g>
        </g>
      </g>
      <g class="cls-2">
        <polygon class="cls-10" points="376.41 335.32 327.35 363.34 283.36 339.1 332.97 311.76 376.41 335.32"/>
      </g>
      <g class="cls-2">
        <polygon class="cls-10" points="221.26 245.07 172.19 273.09 128.2 248.86 177.81 221.51 221.26 245.07"/>
      </g>
      <g class="cls-2">
        <polygon class="cls-10" points="382.67 250.23 333.61 278.25 289.61 254.02 339.22 226.67 382.67 250.23"/>
      </g>
      <g class="cls-2">
        <polygon class="cls-10" points="463.57 199.51 414.5 227.54 370.51 203.3 420.12 175.95 463.57 199.51"/>
      </g>
      <g>
        <polygon class="cls-10" points="395.25 293.04 395.17 327.94 341.21 357.83 341.3 322.92 395.25 293.04"/>
        <path d="M340.87,358.39v-.56s.09-35.1.09-35.1l.17-.09,54.47-30.16v.56s-.09,35.08-.09,35.08l-.17.09-54.47,30.17ZM341.63,323.11l-.08,34.15,53.28-29.52.08-34.14-53.28,29.5Z"/>
        <polygon class="cls-10" points="341.21 357.83 306.89 338.94 306.89 303.99 341.3 322.92 341.21 357.83"/>
        <path d="M341.55,358.39l-.51-.28-34.49-18.98v-35.7l.51.28,34.58,19.02v.19s-.09,35.47-.09,35.47ZM307.22,338.75l33.65,18.52.08-34.15-33.73-18.55v34.19Z"/>
        <polygon class="cls-6" points="395.25 293.04 341.3 322.92 306.71 303.89 360.67 274 395.25 293.04"/>
        <path d="M341.3,323.29l-.17-.1-35.1-19.31.51-.28,54.13-29.98.17.09,35.09,19.32-.51.28-54.13,29.97ZM307.38,303.89l33.91,18.65,53.28-29.5-33.91-18.67-53.29,29.52Z"/>
      </g>
      <g>
        <polygon class="cls-10" points="238.23 204.05 238.14 238.95 184.18 268.83 184.27 233.93 238.23 204.05"/>
        <path d="M183.84,269.4v-.56s.09-35.1.09-35.1l.17-.09,54.47-30.16v.56s-.09,35.08-.09,35.08l-.17.09-54.47,30.17ZM184.6,234.12l-.08,34.15,53.28-29.52.08-34.14-53.28,29.5Z"/>
        <polygon class="cls-10" points="184.18 268.83 149.86 249.95 149.86 215 184.27 233.93 184.18 268.83"/>
        <path d="M184.52,269.4l-.51-.28-34.49-18.98v-35.7l.51.28,34.58,19.02v.19s-.09,35.47-.09,35.47ZM150.19,249.76l33.65,18.52.08-34.15-33.73-18.55v34.19Z"/>
        <polygon class="cls-6" points="238.23 204.05 184.27 233.93 149.68 214.9 203.64 185.01 238.23 204.05"/>
        <path d="M184.27,234.3l-.17-.1-35.1-19.31.51-.28,54.13-29.98.17.09,35.09,19.32-.51.28-54.13,29.97ZM150.35,214.9l33.91,18.65,53.28-29.5-33.91-18.67-53.29,29.52Z"/>
      </g>
      <g>
        <polygon class="cls-10" points="396.28 209.09 396.19 243.98 342.23 273.87 342.32 238.97 396.28 209.09"/>
        <path d="M341.89,274.44v-.56s.09-35.1.09-35.1l.17-.09,54.47-30.16v.56s-.09,35.08-.09,35.08l-.17.09-54.47,30.17ZM342.66,239.16l-.08,34.15,53.28-29.52.08-34.14-53.28,29.5Z"/>
        <polygon class="cls-10" points="342.23 273.87 307.91 254.98 307.91 220.04 342.32 238.97 342.23 273.87"/>
        <path d="M342.57,274.44l-.51-.28-34.49-18.98v-35.7l.51.28,34.58,19.02v.19s-.09,35.47-.09,35.47ZM308.25,254.8l33.65,18.52.08-34.15-33.73-18.55v34.19Z"/>
        <polygon class="cls-6" points="396.28 209.09 342.32 238.97 307.73 219.94 361.69 190.05 396.28 209.09"/>
        <path d="M342.32,239.34l-.17-.1-35.1-19.31.51-.28,54.13-29.98.17.09,35.09,19.32-.51.28-54.13,29.97ZM308.4,219.94l33.91,18.65,53.28-29.5-33.91-18.67-53.29,29.52Z"/>
      </g>
      <g>
        <polygon class="cls-10" points="485.98 163.88 485.9 198.78 431.94 228.67 432.02 193.76 485.98 163.88"/>
        <path d="M431.6,229.23v-.56s.09-35.1.09-35.1l.17-.09,54.47-30.16v.56s-.09,35.08-.09,35.08l-.17.09-54.47,30.17ZM432.36,193.95l-.08,34.15,53.28-29.52.08-34.14-53.28,29.5Z"/>
        <polygon class="cls-10" points="431.94 228.67 397.61 209.78 397.61 174.83 432.02 193.76 431.94 228.67"/>
        <path d="M432.28,229.23l-.51-.28-34.49-18.98v-35.7l.51.28,34.58,19.02v.19s-.09,35.47-.09,35.47ZM397.95,209.59l33.65,18.52.08-34.15-33.73-18.55v34.19Z"/>
        <polygon class="cls-6" points="485.98 163.88 432.02 193.76 397.43 174.73 451.4 144.84 485.98 163.88"/>
        <path d="M432.02,194.13l-.17-.1-35.1-19.31.51-.28,54.13-29.98.17.09,35.09,19.32-.51.28-54.13,29.97ZM398.11,174.73l33.91,18.65,53.28-29.5-33.91-18.67-53.29,29.52Z"/>
      </g>
      <g class="cls-2">
        <polygon class="cls-10" points="435.32 117.27 386.26 145.29 342.27 121.06 391.88 93.71 435.32 117.27"/>
      </g>
      <g>
        <polygon class="cls-10" points="457.74 81.64 457.65 116.53 403.69 146.42 403.78 111.51 457.74 81.64"/>
        <path d="M403.35,146.98v-.56s.09-35.1.09-35.1l.17-.09,54.47-30.16v.56s-.09,35.08-.09,35.08l-.17.09-54.47,30.17ZM404.12,111.7l-.08,34.15,53.28-29.52.08-34.14-53.28,29.5Z"/>
        <polygon class="cls-10" points="403.69 146.42 369.37 127.53 369.37 92.58 403.78 111.51 403.69 146.42"/>
        <path d="M404.03,146.98l-.51-.28-34.49-18.98v-35.7l.51.28,34.58,19.02v.19s-.09,35.47-.09,35.47ZM369.71,127.34l33.65,18.52.08-34.15-33.73-18.55v34.19Z"/>
        <polygon class="cls-6" points="457.74 81.64 403.78 111.51 369.19 92.48 423.15 62.6 457.74 81.64"/>
        <path d="M403.78,111.89l-.17-.1-35.1-19.31.51-.28,54.13-29.98.17.09,35.09,19.32-.51.28-54.13,29.97ZM369.87,92.48l33.91,18.65,53.28-29.5-33.91-18.67-53.29,29.52Z"/>
      </g>
      <g class="cls-2">
        <polygon class="cls-10" points="303.05 97.87 253.99 125.89 210 101.66 259.61 74.31 303.05 97.87"/>
      </g>
      <g>
        <polygon class="cls-10" points="325.47 62.24 325.38 97.14 271.43 127.03 271.51 92.12 325.47 62.24"/>
        <path d="M271.08,127.59v-.56s.09-35.1.09-35.1l.17-.09,54.47-30.16v.56s-.09,35.08-.09,35.08l-.17.09-54.47,30.17ZM271.85,92.31l-.08,34.15,53.28-29.52.08-34.14-53.28,29.5Z"/>
        <polygon class="cls-10" points="271.43 127.03 237.1 108.14 237.1 73.19 271.51 92.12 271.43 127.03"/>
        <path d="M271.76,127.59l-.51-.28-34.49-18.98v-35.7l.51.28,34.58,19.02v.19s-.09,35.47-.09,35.47ZM237.44,107.95l33.65,18.52.08-34.15-33.73-18.55v34.19Z"/>
        <polygon class="cls-6" points="325.47 62.24 271.51 92.12 236.92 73.09 290.88 43.2 325.47 62.24"/>
        <path d="M271.51,92.49l-.17-.1-35.1-19.31.51-.28,54.13-29.98.17.09,35.09,19.32-.51.28-54.13,29.97ZM237.6,73.09l33.91,18.65,53.28-29.5-33.91-18.67-53.29,29.52Z"/>
      </g>
    </g>
  </g>
</svg>